%TF.GenerationSoftware,KiCad,Pcbnew,10.0.1*%
%TF.CreationDate,2026-06-25T14:26:35+01:00*%
%TF.ProjectId,rtk,72746b2e-6b69-4636-9164-5f7063625858,rev?*%
%TF.SameCoordinates,Original*%
%TF.FileFunction,OtherDrawing,Comment*%
%FSLAX46Y46*%
G04 Gerber Fmt 4.6, Leading zero omitted, Abs format (unit mm)*
G04 Created by KiCad (PCBNEW 10.0.1) date 2026-06-25 14:26:35*
%MOMM*%
%LPD*%
G01*
G04 APERTURE LIST*
%ADD10C,0.150000*%
%ADD11C,0.100000*%
G04 APERTURE END LIST*
D10*
X94710952Y-147949875D02*
X94710952Y-146949875D01*
X94710952Y-146949875D02*
X95044285Y-147664160D01*
X95044285Y-147664160D02*
X95377618Y-146949875D01*
X95377618Y-146949875D02*
X95377618Y-147949875D01*
X95710952Y-147283208D02*
X96091904Y-147283208D01*
X95853809Y-146949875D02*
X95853809Y-147807017D01*
X95853809Y-147807017D02*
X95901428Y-147902256D01*
X95901428Y-147902256D02*
X95996666Y-147949875D01*
X95996666Y-147949875D02*
X96091904Y-147949875D01*
X96853809Y-147283208D02*
X96853809Y-148092732D01*
X96853809Y-148092732D02*
X96806190Y-148187970D01*
X96806190Y-148187970D02*
X96758571Y-148235589D01*
X96758571Y-148235589D02*
X96663333Y-148283208D01*
X96663333Y-148283208D02*
X96520476Y-148283208D01*
X96520476Y-148283208D02*
X96425238Y-148235589D01*
X96853809Y-147902256D02*
X96758571Y-147949875D01*
X96758571Y-147949875D02*
X96568095Y-147949875D01*
X96568095Y-147949875D02*
X96472857Y-147902256D01*
X96472857Y-147902256D02*
X96425238Y-147854636D01*
X96425238Y-147854636D02*
X96377619Y-147759398D01*
X96377619Y-147759398D02*
X96377619Y-147473684D01*
X96377619Y-147473684D02*
X96425238Y-147378446D01*
X96425238Y-147378446D02*
X96472857Y-147330827D01*
X96472857Y-147330827D02*
X96568095Y-147283208D01*
X96568095Y-147283208D02*
X96758571Y-147283208D01*
X96758571Y-147283208D02*
X96853809Y-147330827D01*
X98091905Y-147949875D02*
X98091905Y-146949875D01*
X98091905Y-147426065D02*
X98663333Y-147426065D01*
X98663333Y-147949875D02*
X98663333Y-146949875D01*
X99282381Y-147949875D02*
X99187143Y-147902256D01*
X99187143Y-147902256D02*
X99139524Y-147854636D01*
X99139524Y-147854636D02*
X99091905Y-147759398D01*
X99091905Y-147759398D02*
X99091905Y-147473684D01*
X99091905Y-147473684D02*
X99139524Y-147378446D01*
X99139524Y-147378446D02*
X99187143Y-147330827D01*
X99187143Y-147330827D02*
X99282381Y-147283208D01*
X99282381Y-147283208D02*
X99425238Y-147283208D01*
X99425238Y-147283208D02*
X99520476Y-147330827D01*
X99520476Y-147330827D02*
X99568095Y-147378446D01*
X99568095Y-147378446D02*
X99615714Y-147473684D01*
X99615714Y-147473684D02*
X99615714Y-147759398D01*
X99615714Y-147759398D02*
X99568095Y-147854636D01*
X99568095Y-147854636D02*
X99520476Y-147902256D01*
X99520476Y-147902256D02*
X99425238Y-147949875D01*
X99425238Y-147949875D02*
X99282381Y-147949875D01*
X100187143Y-147949875D02*
X100091905Y-147902256D01*
X100091905Y-147902256D02*
X100044286Y-147807017D01*
X100044286Y-147807017D02*
X100044286Y-146949875D01*
X100949048Y-147902256D02*
X100853810Y-147949875D01*
X100853810Y-147949875D02*
X100663334Y-147949875D01*
X100663334Y-147949875D02*
X100568096Y-147902256D01*
X100568096Y-147902256D02*
X100520477Y-147807017D01*
X100520477Y-147807017D02*
X100520477Y-147426065D01*
X100520477Y-147426065D02*
X100568096Y-147330827D01*
X100568096Y-147330827D02*
X100663334Y-147283208D01*
X100663334Y-147283208D02*
X100853810Y-147283208D01*
X100853810Y-147283208D02*
X100949048Y-147330827D01*
X100949048Y-147330827D02*
X100996667Y-147426065D01*
X100996667Y-147426065D02*
X100996667Y-147521303D01*
X100996667Y-147521303D02*
X100520477Y-147616541D01*
X95496667Y-148655057D02*
X95544286Y-148607438D01*
X95544286Y-148607438D02*
X95639524Y-148559819D01*
X95639524Y-148559819D02*
X95877619Y-148559819D01*
X95877619Y-148559819D02*
X95972857Y-148607438D01*
X95972857Y-148607438D02*
X96020476Y-148655057D01*
X96020476Y-148655057D02*
X96068095Y-148750295D01*
X96068095Y-148750295D02*
X96068095Y-148845533D01*
X96068095Y-148845533D02*
X96020476Y-148988390D01*
X96020476Y-148988390D02*
X95449048Y-149559819D01*
X95449048Y-149559819D02*
X96068095Y-149559819D01*
X96496667Y-149464580D02*
X96544286Y-149512200D01*
X96544286Y-149512200D02*
X96496667Y-149559819D01*
X96496667Y-149559819D02*
X96449048Y-149512200D01*
X96449048Y-149512200D02*
X96496667Y-149464580D01*
X96496667Y-149464580D02*
X96496667Y-149559819D01*
X97449047Y-148559819D02*
X96972857Y-148559819D01*
X96972857Y-148559819D02*
X96925238Y-149036009D01*
X96925238Y-149036009D02*
X96972857Y-148988390D01*
X96972857Y-148988390D02*
X97068095Y-148940771D01*
X97068095Y-148940771D02*
X97306190Y-148940771D01*
X97306190Y-148940771D02*
X97401428Y-148988390D01*
X97401428Y-148988390D02*
X97449047Y-149036009D01*
X97449047Y-149036009D02*
X97496666Y-149131247D01*
X97496666Y-149131247D02*
X97496666Y-149369342D01*
X97496666Y-149369342D02*
X97449047Y-149464580D01*
X97449047Y-149464580D02*
X97401428Y-149512200D01*
X97401428Y-149512200D02*
X97306190Y-149559819D01*
X97306190Y-149559819D02*
X97068095Y-149559819D01*
X97068095Y-149559819D02*
X96972857Y-149512200D01*
X96972857Y-149512200D02*
X96925238Y-149464580D01*
X97925238Y-149559819D02*
X97925238Y-148893152D01*
X97925238Y-148988390D02*
X97972857Y-148940771D01*
X97972857Y-148940771D02*
X98068095Y-148893152D01*
X98068095Y-148893152D02*
X98210952Y-148893152D01*
X98210952Y-148893152D02*
X98306190Y-148940771D01*
X98306190Y-148940771D02*
X98353809Y-149036009D01*
X98353809Y-149036009D02*
X98353809Y-149559819D01*
X98353809Y-149036009D02*
X98401428Y-148940771D01*
X98401428Y-148940771D02*
X98496666Y-148893152D01*
X98496666Y-148893152D02*
X98639523Y-148893152D01*
X98639523Y-148893152D02*
X98734762Y-148940771D01*
X98734762Y-148940771D02*
X98782381Y-149036009D01*
X98782381Y-149036009D02*
X98782381Y-149559819D01*
X99258571Y-149559819D02*
X99258571Y-148893152D01*
X99258571Y-148988390D02*
X99306190Y-148940771D01*
X99306190Y-148940771D02*
X99401428Y-148893152D01*
X99401428Y-148893152D02*
X99544285Y-148893152D01*
X99544285Y-148893152D02*
X99639523Y-148940771D01*
X99639523Y-148940771D02*
X99687142Y-149036009D01*
X99687142Y-149036009D02*
X99687142Y-149559819D01*
X99687142Y-149036009D02*
X99734761Y-148940771D01*
X99734761Y-148940771D02*
X99829999Y-148893152D01*
X99829999Y-148893152D02*
X99972856Y-148893152D01*
X99972856Y-148893152D02*
X100068095Y-148940771D01*
X100068095Y-148940771D02*
X100115714Y-149036009D01*
X100115714Y-149036009D02*
X100115714Y-149559819D01*
X84664819Y-120856190D02*
X84664819Y-121046666D01*
X84664819Y-121046666D02*
X84712438Y-121141904D01*
X84712438Y-121141904D02*
X84760057Y-121189523D01*
X84760057Y-121189523D02*
X84902914Y-121284761D01*
X84902914Y-121284761D02*
X85093390Y-121332380D01*
X85093390Y-121332380D02*
X85474342Y-121332380D01*
X85474342Y-121332380D02*
X85569580Y-121284761D01*
X85569580Y-121284761D02*
X85617200Y-121237142D01*
X85617200Y-121237142D02*
X85664819Y-121141904D01*
X85664819Y-121141904D02*
X85664819Y-120951428D01*
X85664819Y-120951428D02*
X85617200Y-120856190D01*
X85617200Y-120856190D02*
X85569580Y-120808571D01*
X85569580Y-120808571D02*
X85474342Y-120760952D01*
X85474342Y-120760952D02*
X85236247Y-120760952D01*
X85236247Y-120760952D02*
X85141009Y-120808571D01*
X85141009Y-120808571D02*
X85093390Y-120856190D01*
X85093390Y-120856190D02*
X85045771Y-120951428D01*
X85045771Y-120951428D02*
X85045771Y-121141904D01*
X85045771Y-121141904D02*
X85093390Y-121237142D01*
X85093390Y-121237142D02*
X85141009Y-121284761D01*
X85141009Y-121284761D02*
X85236247Y-121332380D01*
X84664819Y-119903809D02*
X84664819Y-120094285D01*
X84664819Y-120094285D02*
X84712438Y-120189523D01*
X84712438Y-120189523D02*
X84760057Y-120237142D01*
X84760057Y-120237142D02*
X84902914Y-120332380D01*
X84902914Y-120332380D02*
X85093390Y-120379999D01*
X85093390Y-120379999D02*
X85474342Y-120379999D01*
X85474342Y-120379999D02*
X85569580Y-120332380D01*
X85569580Y-120332380D02*
X85617200Y-120284761D01*
X85617200Y-120284761D02*
X85664819Y-120189523D01*
X85664819Y-120189523D02*
X85664819Y-119999047D01*
X85664819Y-119999047D02*
X85617200Y-119903809D01*
X85617200Y-119903809D02*
X85569580Y-119856190D01*
X85569580Y-119856190D02*
X85474342Y-119808571D01*
X85474342Y-119808571D02*
X85236247Y-119808571D01*
X85236247Y-119808571D02*
X85141009Y-119856190D01*
X85141009Y-119856190D02*
X85093390Y-119903809D01*
X85093390Y-119903809D02*
X85045771Y-119999047D01*
X85045771Y-119999047D02*
X85045771Y-120189523D01*
X85045771Y-120189523D02*
X85093390Y-120284761D01*
X85093390Y-120284761D02*
X85141009Y-120332380D01*
X85141009Y-120332380D02*
X85236247Y-120379999D01*
X85569580Y-119379999D02*
X85617200Y-119332380D01*
X85617200Y-119332380D02*
X85664819Y-119379999D01*
X85664819Y-119379999D02*
X85617200Y-119427618D01*
X85617200Y-119427618D02*
X85569580Y-119379999D01*
X85569580Y-119379999D02*
X85664819Y-119379999D01*
X84664819Y-118713333D02*
X84664819Y-118618095D01*
X84664819Y-118618095D02*
X84712438Y-118522857D01*
X84712438Y-118522857D02*
X84760057Y-118475238D01*
X84760057Y-118475238D02*
X84855295Y-118427619D01*
X84855295Y-118427619D02*
X85045771Y-118380000D01*
X85045771Y-118380000D02*
X85283866Y-118380000D01*
X85283866Y-118380000D02*
X85474342Y-118427619D01*
X85474342Y-118427619D02*
X85569580Y-118475238D01*
X85569580Y-118475238D02*
X85617200Y-118522857D01*
X85617200Y-118522857D02*
X85664819Y-118618095D01*
X85664819Y-118618095D02*
X85664819Y-118713333D01*
X85664819Y-118713333D02*
X85617200Y-118808571D01*
X85617200Y-118808571D02*
X85569580Y-118856190D01*
X85569580Y-118856190D02*
X85474342Y-118903809D01*
X85474342Y-118903809D02*
X85283866Y-118951428D01*
X85283866Y-118951428D02*
X85045771Y-118951428D01*
X85045771Y-118951428D02*
X84855295Y-118903809D01*
X84855295Y-118903809D02*
X84760057Y-118856190D01*
X84760057Y-118856190D02*
X84712438Y-118808571D01*
X84712438Y-118808571D02*
X84664819Y-118713333D01*
X84998152Y-117522857D02*
X85664819Y-117522857D01*
X84617200Y-117760952D02*
X85331485Y-117999047D01*
X85331485Y-117999047D02*
X85331485Y-117380000D01*
D11*
X101100000Y-152400000D02*
X85773580Y-152400000D01*
X85773580Y-86360000D02*
X101100000Y-86360000D01*
X86360000Y-152400000D02*
X86360000Y-86360000D01*
X86360000Y-152400000D02*
X85773579Y-151273496D01*
X86360000Y-152400000D02*
X86946421Y-151273496D01*
X86360000Y-86360000D02*
X86946421Y-87486504D01*
X86360000Y-86360000D02*
X85773579Y-87486504D01*
D10*
X138176191Y-159594819D02*
X138842857Y-159594819D01*
X138842857Y-159594819D02*
X138414286Y-160594819D01*
X139652381Y-159594819D02*
X139461905Y-159594819D01*
X139461905Y-159594819D02*
X139366667Y-159642438D01*
X139366667Y-159642438D02*
X139319048Y-159690057D01*
X139319048Y-159690057D02*
X139223810Y-159832914D01*
X139223810Y-159832914D02*
X139176191Y-160023390D01*
X139176191Y-160023390D02*
X139176191Y-160404342D01*
X139176191Y-160404342D02*
X139223810Y-160499580D01*
X139223810Y-160499580D02*
X139271429Y-160547200D01*
X139271429Y-160547200D02*
X139366667Y-160594819D01*
X139366667Y-160594819D02*
X139557143Y-160594819D01*
X139557143Y-160594819D02*
X139652381Y-160547200D01*
X139652381Y-160547200D02*
X139700000Y-160499580D01*
X139700000Y-160499580D02*
X139747619Y-160404342D01*
X139747619Y-160404342D02*
X139747619Y-160166247D01*
X139747619Y-160166247D02*
X139700000Y-160071009D01*
X139700000Y-160071009D02*
X139652381Y-160023390D01*
X139652381Y-160023390D02*
X139557143Y-159975771D01*
X139557143Y-159975771D02*
X139366667Y-159975771D01*
X139366667Y-159975771D02*
X139271429Y-160023390D01*
X139271429Y-160023390D02*
X139223810Y-160071009D01*
X139223810Y-160071009D02*
X139176191Y-160166247D01*
X140176191Y-160499580D02*
X140223810Y-160547200D01*
X140223810Y-160547200D02*
X140176191Y-160594819D01*
X140176191Y-160594819D02*
X140128572Y-160547200D01*
X140128572Y-160547200D02*
X140176191Y-160499580D01*
X140176191Y-160499580D02*
X140176191Y-160594819D01*
X140604762Y-159690057D02*
X140652381Y-159642438D01*
X140652381Y-159642438D02*
X140747619Y-159594819D01*
X140747619Y-159594819D02*
X140985714Y-159594819D01*
X140985714Y-159594819D02*
X141080952Y-159642438D01*
X141080952Y-159642438D02*
X141128571Y-159690057D01*
X141128571Y-159690057D02*
X141176190Y-159785295D01*
X141176190Y-159785295D02*
X141176190Y-159880533D01*
X141176190Y-159880533D02*
X141128571Y-160023390D01*
X141128571Y-160023390D02*
X140557143Y-160594819D01*
X140557143Y-160594819D02*
X141176190Y-160594819D01*
D11*
X101600000Y-152900000D02*
X101600000Y-161876420D01*
X177800000Y-161876420D02*
X177800000Y-152900000D01*
X101600000Y-161290000D02*
X177800000Y-161290000D01*
X101600000Y-161290000D02*
X102726504Y-160703579D01*
X101600000Y-161290000D02*
X102726504Y-161876421D01*
X177800000Y-161290000D02*
X176673496Y-161876421D01*
X177800000Y-161290000D02*
X176673496Y-160703579D01*
D10*
X89744819Y-120856190D02*
X89744819Y-121046666D01*
X89744819Y-121046666D02*
X89792438Y-121141904D01*
X89792438Y-121141904D02*
X89840057Y-121189523D01*
X89840057Y-121189523D02*
X89982914Y-121284761D01*
X89982914Y-121284761D02*
X90173390Y-121332380D01*
X90173390Y-121332380D02*
X90554342Y-121332380D01*
X90554342Y-121332380D02*
X90649580Y-121284761D01*
X90649580Y-121284761D02*
X90697200Y-121237142D01*
X90697200Y-121237142D02*
X90744819Y-121141904D01*
X90744819Y-121141904D02*
X90744819Y-120951428D01*
X90744819Y-120951428D02*
X90697200Y-120856190D01*
X90697200Y-120856190D02*
X90649580Y-120808571D01*
X90649580Y-120808571D02*
X90554342Y-120760952D01*
X90554342Y-120760952D02*
X90316247Y-120760952D01*
X90316247Y-120760952D02*
X90221009Y-120808571D01*
X90221009Y-120808571D02*
X90173390Y-120856190D01*
X90173390Y-120856190D02*
X90125771Y-120951428D01*
X90125771Y-120951428D02*
X90125771Y-121141904D01*
X90125771Y-121141904D02*
X90173390Y-121237142D01*
X90173390Y-121237142D02*
X90221009Y-121284761D01*
X90221009Y-121284761D02*
X90316247Y-121332380D01*
X89744819Y-120141904D02*
X89744819Y-120046666D01*
X89744819Y-120046666D02*
X89792438Y-119951428D01*
X89792438Y-119951428D02*
X89840057Y-119903809D01*
X89840057Y-119903809D02*
X89935295Y-119856190D01*
X89935295Y-119856190D02*
X90125771Y-119808571D01*
X90125771Y-119808571D02*
X90363866Y-119808571D01*
X90363866Y-119808571D02*
X90554342Y-119856190D01*
X90554342Y-119856190D02*
X90649580Y-119903809D01*
X90649580Y-119903809D02*
X90697200Y-119951428D01*
X90697200Y-119951428D02*
X90744819Y-120046666D01*
X90744819Y-120046666D02*
X90744819Y-120141904D01*
X90744819Y-120141904D02*
X90697200Y-120237142D01*
X90697200Y-120237142D02*
X90649580Y-120284761D01*
X90649580Y-120284761D02*
X90554342Y-120332380D01*
X90554342Y-120332380D02*
X90363866Y-120379999D01*
X90363866Y-120379999D02*
X90125771Y-120379999D01*
X90125771Y-120379999D02*
X89935295Y-120332380D01*
X89935295Y-120332380D02*
X89840057Y-120284761D01*
X89840057Y-120284761D02*
X89792438Y-120237142D01*
X89792438Y-120237142D02*
X89744819Y-120141904D01*
X90649580Y-119379999D02*
X90697200Y-119332380D01*
X90697200Y-119332380D02*
X90744819Y-119379999D01*
X90744819Y-119379999D02*
X90697200Y-119427618D01*
X90697200Y-119427618D02*
X90649580Y-119379999D01*
X90649580Y-119379999D02*
X90744819Y-119379999D01*
X90744819Y-118856190D02*
X90744819Y-118665714D01*
X90744819Y-118665714D02*
X90697200Y-118570476D01*
X90697200Y-118570476D02*
X90649580Y-118522857D01*
X90649580Y-118522857D02*
X90506723Y-118427619D01*
X90506723Y-118427619D02*
X90316247Y-118380000D01*
X90316247Y-118380000D02*
X89935295Y-118380000D01*
X89935295Y-118380000D02*
X89840057Y-118427619D01*
X89840057Y-118427619D02*
X89792438Y-118475238D01*
X89792438Y-118475238D02*
X89744819Y-118570476D01*
X89744819Y-118570476D02*
X89744819Y-118760952D01*
X89744819Y-118760952D02*
X89792438Y-118856190D01*
X89792438Y-118856190D02*
X89840057Y-118903809D01*
X89840057Y-118903809D02*
X89935295Y-118951428D01*
X89935295Y-118951428D02*
X90173390Y-118951428D01*
X90173390Y-118951428D02*
X90268628Y-118903809D01*
X90268628Y-118903809D02*
X90316247Y-118856190D01*
X90316247Y-118856190D02*
X90363866Y-118760952D01*
X90363866Y-118760952D02*
X90363866Y-118570476D01*
X90363866Y-118570476D02*
X90316247Y-118475238D01*
X90316247Y-118475238D02*
X90268628Y-118427619D01*
X90268628Y-118427619D02*
X90173390Y-118380000D01*
X89744819Y-117522857D02*
X89744819Y-117713333D01*
X89744819Y-117713333D02*
X89792438Y-117808571D01*
X89792438Y-117808571D02*
X89840057Y-117856190D01*
X89840057Y-117856190D02*
X89982914Y-117951428D01*
X89982914Y-117951428D02*
X90173390Y-117999047D01*
X90173390Y-117999047D02*
X90554342Y-117999047D01*
X90554342Y-117999047D02*
X90649580Y-117951428D01*
X90649580Y-117951428D02*
X90697200Y-117903809D01*
X90697200Y-117903809D02*
X90744819Y-117808571D01*
X90744819Y-117808571D02*
X90744819Y-117618095D01*
X90744819Y-117618095D02*
X90697200Y-117522857D01*
X90697200Y-117522857D02*
X90649580Y-117475238D01*
X90649580Y-117475238D02*
X90554342Y-117427619D01*
X90554342Y-117427619D02*
X90316247Y-117427619D01*
X90316247Y-117427619D02*
X90221009Y-117475238D01*
X90221009Y-117475238D02*
X90173390Y-117522857D01*
X90173390Y-117522857D02*
X90125771Y-117618095D01*
X90125771Y-117618095D02*
X90125771Y-117808571D01*
X90125771Y-117808571D02*
X90173390Y-117903809D01*
X90173390Y-117903809D02*
X90221009Y-117951428D01*
X90221009Y-117951428D02*
X90316247Y-117999047D01*
D11*
X103640000Y-149860000D02*
X90853580Y-149860000D01*
X90853580Y-88900000D02*
X103640000Y-88900000D01*
X91440000Y-149860000D02*
X91440000Y-88900000D01*
X91440000Y-149860000D02*
X90853579Y-148733496D01*
X91440000Y-149860000D02*
X92026421Y-148733496D01*
X91440000Y-88900000D02*
X92026421Y-90026504D01*
X91440000Y-88900000D02*
X90853579Y-90026504D01*
D10*
X137700000Y-155784819D02*
X138366666Y-155784819D01*
X138366666Y-155784819D02*
X137938095Y-156784819D01*
X139271428Y-156784819D02*
X138700000Y-156784819D01*
X138985714Y-156784819D02*
X138985714Y-155784819D01*
X138985714Y-155784819D02*
X138890476Y-155927676D01*
X138890476Y-155927676D02*
X138795238Y-156022914D01*
X138795238Y-156022914D02*
X138700000Y-156070533D01*
X139700000Y-156689580D02*
X139747619Y-156737200D01*
X139747619Y-156737200D02*
X139700000Y-156784819D01*
X139700000Y-156784819D02*
X139652381Y-156737200D01*
X139652381Y-156737200D02*
X139700000Y-156689580D01*
X139700000Y-156689580D02*
X139700000Y-156784819D01*
X140699999Y-156784819D02*
X140128571Y-156784819D01*
X140414285Y-156784819D02*
X140414285Y-155784819D01*
X140414285Y-155784819D02*
X140319047Y-155927676D01*
X140319047Y-155927676D02*
X140223809Y-156022914D01*
X140223809Y-156022914D02*
X140128571Y-156070533D01*
X141080952Y-155880057D02*
X141128571Y-155832438D01*
X141128571Y-155832438D02*
X141223809Y-155784819D01*
X141223809Y-155784819D02*
X141461904Y-155784819D01*
X141461904Y-155784819D02*
X141557142Y-155832438D01*
X141557142Y-155832438D02*
X141604761Y-155880057D01*
X141604761Y-155880057D02*
X141652380Y-155975295D01*
X141652380Y-155975295D02*
X141652380Y-156070533D01*
X141652380Y-156070533D02*
X141604761Y-156213390D01*
X141604761Y-156213390D02*
X141033333Y-156784819D01*
X141033333Y-156784819D02*
X141652380Y-156784819D01*
D11*
X104140000Y-150360000D02*
X104140000Y-158066420D01*
X175260000Y-158066420D02*
X175260000Y-150360000D01*
X104140000Y-157480000D02*
X175260000Y-157480000D01*
X104140000Y-157480000D02*
X105266504Y-156893579D01*
X104140000Y-157480000D02*
X105266504Y-158066421D01*
X175260000Y-157480000D02*
X174133496Y-158066421D01*
X175260000Y-157480000D02*
X174133496Y-156893579D01*
M02*
