M48
; DRILL file KiCad 10.0.1 date 2026-06-25T14:26:44
; FORMAT={-:-/ absolute / metric / decimal}
; #@! TF.CreationDate,2026-06-25T14:26:44+01:00
; #@! TF.GenerationSoftware,Kicad,Pcbnew,10.0.1
; #@! TF.FileFunction,Plated,1,4,PTH
FMAT,2
METRIC
; #@! TA.AperFunction,Plated,PTH,ComponentDrill
T1C0.254
; #@! TA.AperFunction,Plated,PTH,ViaDrill
T2C0.300
; #@! TA.AperFunction,Plated,PTH,ComponentDrill
T3C1.000
; #@! TA.AperFunction,Plated,PTH,ComponentDrill
T4C1.400
%
G90
G05
T1
X130.035Y-147.263
X130.035Y-148.05
X130.035Y-148.837
X130.823Y-147.263
X130.823Y-148.05
X130.823Y-148.837
T2
X106.172Y-116.84
X106.172Y-123.901
X106.934Y-104.597
X108.712Y-116.84
X108.763Y-124.714
X109.423Y-105.816
X111.252Y-126.797
X112.522Y-135.89
X113.944Y-125.781
X115.824Y-144.526
X115.824Y-146.304
X115.824Y-147.32
X116.332Y-117.805
X116.383Y-124.104
X117.551Y-119.583
X118.872Y-119.177
X118.923Y-122.276
X121.412Y-128.118
X122.174Y-140.97
X122.174Y-141.732
X122.914Y-142.472
X122.936Y-141.224
X124.714Y-149.86
X125.171Y-103.886
X125.222Y-102.972
X126.035Y-106.172
X126.695Y-113.132
X126.746Y-140.462
X126.746Y-141.478
X126.746Y-142.494
X126.746Y-143.256
X126.797Y-115.113
X127.0Y-124.663
X127.102Y-122.53
X127.254Y-140.97
X127.254Y-146.05
X127.455Y-150.061
X127.762Y-128.016
X127.762Y-140.462
X127.762Y-141.732
X127.762Y-142.494
X127.762Y-143.256
X127.802Y-148.55
X127.864Y-115.418
X127.889Y-145.415
X128.422Y-101.295
X129.032Y-107.29
X130.15Y-115.519
X130.251Y-108.001
X130.556Y-123.088
X130.556Y-151.13
X130.658Y-102.108
X131.064Y-137.922
X131.216Y-131.318
X131.318Y-122.428
X131.318Y-135.255
X132.232Y-111.963
X132.461Y-88.9
X132.944Y-128.321
X133.096Y-145.796
X133.096Y-146.558
X133.096Y-147.32
X133.477Y-89.662
X133.604Y-148.082
X133.608Y-127.309
X133.731Y-146.685
X133.858Y-95.504
X133.858Y-147.32
X133.909Y-128.473
X134.112Y-145.796
X134.163Y-125.679
X134.251Y-123.495
X134.315Y-118.364
X134.36Y-99.879
X134.366Y-124.358
X134.366Y-146.558
X134.518Y-110.49
X134.62Y-145.288
X134.62Y-147.32
X134.671Y-113.944
X134.874Y-146.05
X135.001Y-121.158
X135.026Y-130.2
X135.077Y-137.262
X135.23Y-115.621
X135.23Y-116.484
X135.23Y-117.348
X135.23Y-118.161
X135.28Y-100.635
X135.382Y-135.23
X135.534Y-138.227
X135.546Y-134.394
X135.585Y-119.228
X135.585Y-132.537
X135.763Y-122.326
X135.992Y-101.346
X136.042Y-118.567
X136.271Y-121.056
X136.55Y-123.546
X136.601Y-117.856
X136.601Y-119.939
X136.906Y-144.526
X137.16Y-121.666
X137.185Y-120.625
X137.668Y-107.188
X137.688Y-137.394
X137.82Y-124.003
X137.922Y-140.843
X137.973Y-113.335
X138.176Y-144.272
X138.836Y-130.759
X138.938Y-136.144
X139.243Y-120.853
X139.294Y-119.99
X139.344Y-108.458
X139.446Y-147.066
X139.649Y-124.358
X139.852Y-119.38
X139.852Y-122.682
X139.954Y-144.526
X140.157Y-108.458
X140.36Y-113.69
X140.411Y-125.984
X140.462Y-120.04
X140.716Y-93.98
X140.716Y-149.352
X140.919Y-120.752
X141.021Y-108.509
X141.173Y-122.123
X141.376Y-113.589
X141.478Y-144.526
X141.681Y-122.885
X141.732Y-133.807
X141.986Y-138.481
X141.986Y-147.066
X142.025Y-99.111
X142.029Y-139.403
X142.316Y-134.747
X142.392Y-110.338
X142.494Y-113.411
X142.545Y-118.618
X142.596Y-137.719
X142.748Y-128.778
X143.256Y-144.018
X143.408Y-136.703
X143.459Y-137.668
X143.465Y-107.569
X143.764Y-94.234
X143.764Y-110.363
X143.815Y-129.032
X143.967Y-113.487
X144.17Y-136.398
X144.272Y-144.526
X144.653Y-141.478
X145.085Y-118.669
X145.415Y-138.811
X145.415Y-139.573
X145.542Y-115.011
X145.593Y-125.984
X145.669Y-113.411
X145.847Y-131.826
X146.05Y-117.754
X146.05Y-138.811
X146.05Y-139.569
X146.101Y-114.097
X146.253Y-133.604
X146.558Y-123.495
X146.609Y-113.386
X146.685Y-146.304
X146.812Y-122.631
X146.812Y-138.811
X146.812Y-139.569
X146.964Y-126.238
X147.32Y-112.979
X147.32Y-141.097
X147.371Y-128.727
X147.472Y-110.896
X147.472Y-134.214
X147.955Y-135.128
X148.082Y-136.779
X148.209Y-135.89
X148.692Y-129.286
X148.844Y-132.537
X148.844Y-143.002
X148.844Y-147.574
X149.403Y-112.522
X149.479Y-139.319
X149.809Y-119.431
X149.86Y-122.733
X149.911Y-121.818
X149.911Y-124.816
X150.266Y-120.091
X150.494Y-120.904
X150.749Y-141.605
X150.774Y-124.409
X150.825Y-111.1
X150.876Y-136.906
X151.282Y-123.749
X151.486Y-135.839
X151.511Y-98.933
X151.689Y-127.813
X151.74Y-128.727
X151.943Y-123.241
X152.4Y-108.077
X152.4Y-147.726
X152.527Y-109.474
X152.552Y-122.53
X152.908Y-101.092
X152.908Y-102.87
X152.908Y-104.648
X153.162Y-121.615
X154.076Y-113.233
X154.178Y-147.066
X154.432Y-116.383
X154.584Y-134.722
X154.686Y-114.046
X154.838Y-112.776
X155.042Y-120.142
X155.067Y-147.574
X155.143Y-123.647
X155.397Y-120.904
X155.804Y-132.791
X155.854Y-116.027
X156.312Y-145.288
X156.591Y-139.827
X156.591Y-141.605
X156.769Y-113.284
X156.972Y-115.875
X157.988Y-98.298
X157.988Y-102.616
X157.988Y-106.934
X157.988Y-110.998
X157.988Y-118.618
X158.598Y-144.831
X158.953Y-116.383
X159.207Y-144.475
X159.207Y-145.186
X160.477Y-116.281
X160.731Y-135.534
X161.206Y-116.873
X161.646Y-141.021
X162.238Y-102.616
X162.306Y-98.298
X162.306Y-106.934
X162.306Y-110.998
X162.306Y-117.551
X162.763Y-118.77
X163.627Y-134.417
X164.389Y-121.615
X164.389Y-123.292
X164.846Y-118.821
X165.25Y-134.626
X166.37Y-98.298
X166.37Y-102.616
X166.37Y-106.934
X166.37Y-110.998
X166.37Y-126.492
X166.4Y-130.326
X166.497Y-129.413
X166.878Y-117.348
X167.792Y-116.484
X168.148Y-129.032
X168.537Y-136.025
X168.783Y-130.048
X169.7Y-132.676
X170.129Y-136.906
X170.18Y-113.284
X171.044Y-107.391
X171.574Y-99.698
X171.958Y-108.509
X171.958Y-109.474
X172.568Y-106.274
T3
X105.664Y-93.853
X105.664Y-109.093
X108.204Y-93.853
X108.204Y-109.093
X110.744Y-93.853
X110.744Y-109.093
X113.284Y-93.853
X113.284Y-109.093
X115.189Y-139.192
X115.189Y-141.732
X115.824Y-93.853
X115.824Y-109.093
X117.475Y-150.495
X118.364Y-93.853
X118.364Y-109.093
X119.126Y-136.398
X120.904Y-93.853
X120.904Y-109.093
X121.666Y-136.398
X123.444Y-93.853
X123.444Y-109.093
X125.984Y-93.853
X125.984Y-109.093
X129.642Y-130.81
X148.844Y-91.186
X148.844Y-93.726
X148.844Y-96.266
X148.844Y-98.806
X148.844Y-101.346
X148.844Y-103.886
X148.844Y-106.426
X148.844Y-108.966
X155.194Y-129.54
X157.734Y-129.54
X160.274Y-129.54
X162.814Y-129.54
X170.18Y-142.189
X170.18Y-144.729
X174.904Y-130.302
X174.904Y-132.842
X174.904Y-135.382
X174.904Y-137.922
X174.904Y-140.462
X174.904Y-143.002
T4
X168.89Y-120.376
X168.89Y-125.476
X171.44Y-122.926
X173.99Y-120.376
X173.99Y-125.476
M30
