%TF.GenerationSoftware,KiCad,Pcbnew,10.0.1*%
%TF.CreationDate,2026-06-25T14:26:35+01:00*%
%TF.ProjectId,rtk,72746b2e-6b69-4636-9164-5f7063625858,rev?*%
%TF.SameCoordinates,Original*%
%TF.FileFunction,Copper,L1,Top*%
%TF.FilePolarity,Positive*%
%FSLAX46Y46*%
G04 Gerber Fmt 4.6, Leading zero omitted, Abs format (unit mm)*
G04 Created by KiCad (PCBNEW 10.0.1) date 2026-06-25 14:26:35*
%MOMM*%
%LPD*%
G01*
G04 APERTURE LIST*
G04 Aperture macros list*
%AMRoundRect*
0 Rectangle with rounded corners*
0 $1 Rounding radius*
0 $2 $3 $4 $5 $6 $7 $8 $9 X,Y pos of 4 corners*
0 Add a 4 corners polygon primitive as box body*
4,1,4,$2,$3,$4,$5,$6,$7,$8,$9,$2,$3,0*
0 Add four circle primitives for the rounded corners*
1,1,$1+$1,$2,$3*
1,1,$1+$1,$4,$5*
1,1,$1+$1,$6,$7*
1,1,$1+$1,$8,$9*
0 Add four rect primitives between the rounded corners*
20,1,$1+$1,$2,$3,$4,$5,0*
20,1,$1+$1,$4,$5,$6,$7,0*
20,1,$1+$1,$6,$7,$8,$9,0*
20,1,$1+$1,$8,$9,$2,$3,0*%
G04 Aperture macros list end*
%ADD10C,0.200000*%
%TA.AperFunction,NonConductor*%
%ADD11C,0.200000*%
%TD*%
%TA.AperFunction,SMDPad,CuDef*%
%ADD12RoundRect,0.237500X0.237500X-0.250000X0.237500X0.250000X-0.237500X0.250000X-0.237500X-0.250000X0*%
%TD*%
%TA.AperFunction,ComponentPad*%
%ADD13R,1.700000X1.700000*%
%TD*%
%TA.AperFunction,ComponentPad*%
%ADD14C,1.700000*%
%TD*%
%TA.AperFunction,SMDPad,CuDef*%
%ADD15R,0.730000X0.510000*%
%TD*%
%TA.AperFunction,SMDPad,CuDef*%
%ADD16R,1.168400X1.803400*%
%TD*%
%TA.AperFunction,SMDPad,CuDef*%
%ADD17RoundRect,0.250000X-0.475000X0.337500X-0.475000X-0.337500X0.475000X-0.337500X0.475000X0.337500X0*%
%TD*%
%TA.AperFunction,SMDPad,CuDef*%
%ADD18R,0.610000X0.350000*%
%TD*%
%TA.AperFunction,SMDPad,CuDef*%
%ADD19R,0.350000X0.610000*%
%TD*%
%TA.AperFunction,SMDPad,CuDef*%
%ADD20R,1.100000X1.300000*%
%TD*%
%TA.AperFunction,SMDPad,CuDef*%
%ADD21RoundRect,0.250000X0.450000X-0.350000X0.450000X0.350000X-0.450000X0.350000X-0.450000X-0.350000X0*%
%TD*%
%TA.AperFunction,SMDPad,CuDef*%
%ADD22RoundRect,0.250000X-0.350000X-0.450000X0.350000X-0.450000X0.350000X0.450000X-0.350000X0.450000X0*%
%TD*%
%TA.AperFunction,SMDPad,CuDef*%
%ADD23RoundRect,0.062500X0.062500X-0.375000X0.062500X0.375000X-0.062500X0.375000X-0.062500X-0.375000X0*%
%TD*%
%TA.AperFunction,SMDPad,CuDef*%
%ADD24RoundRect,0.062500X0.375000X-0.062500X0.375000X0.062500X-0.375000X0.062500X-0.375000X-0.062500X0*%
%TD*%
%TA.AperFunction,HeatsinkPad*%
%ADD25R,3.450000X3.450000*%
%TD*%
%TA.AperFunction,SMDPad,CuDef*%
%ADD26RoundRect,0.250000X-0.450000X0.325000X-0.450000X-0.325000X0.450000X-0.325000X0.450000X0.325000X0*%
%TD*%
%TA.AperFunction,SMDPad,CuDef*%
%ADD27R,1.400000X1.900000*%
%TD*%
%TA.AperFunction,SMDPad,CuDef*%
%ADD28R,1.200000X1.400000*%
%TD*%
%TA.AperFunction,SMDPad,CuDef*%
%ADD29R,1.300000X1.400000*%
%TD*%
%TA.AperFunction,SMDPad,CuDef*%
%ADD30R,0.800000X1.500000*%
%TD*%
%TA.AperFunction,SMDPad,CuDef*%
%ADD31R,1.000000X1.040000*%
%TD*%
%TA.AperFunction,SMDPad,CuDef*%
%ADD32R,1.498600X0.812800*%
%TD*%
%TA.AperFunction,SMDPad,CuDef*%
%ADD33R,0.812800X1.498600*%
%TD*%
%TA.AperFunction,SMDPad,CuDef*%
%ADD34R,1.092200X1.092200*%
%TD*%
%TA.AperFunction,SMDPad,CuDef*%
%ADD35RoundRect,0.250000X-0.450000X0.350000X-0.450000X-0.350000X0.450000X-0.350000X0.450000X0.350000X0*%
%TD*%
%TA.AperFunction,SMDPad,CuDef*%
%ADD36RoundRect,0.250000X-0.325000X-0.450000X0.325000X-0.450000X0.325000X0.450000X-0.325000X0.450000X0*%
%TD*%
%TA.AperFunction,SMDPad,CuDef*%
%ADD37RoundRect,0.250000X0.350000X0.450000X-0.350000X0.450000X-0.350000X-0.450000X0.350000X-0.450000X0*%
%TD*%
%TA.AperFunction,SMDPad,CuDef*%
%ADD38RoundRect,0.062500X0.375000X0.062500X-0.375000X0.062500X-0.375000X-0.062500X0.375000X-0.062500X0*%
%TD*%
%TA.AperFunction,SMDPad,CuDef*%
%ADD39RoundRect,0.062500X0.062500X0.375000X-0.062500X0.375000X-0.062500X-0.375000X0.062500X-0.375000X0*%
%TD*%
%TA.AperFunction,HeatsinkPad*%
%ADD40R,1.600000X1.600000*%
%TD*%
%TA.AperFunction,SMDPad,CuDef*%
%ADD41RoundRect,0.250000X0.337500X0.475000X-0.337500X0.475000X-0.337500X-0.475000X0.337500X-0.475000X0*%
%TD*%
%TA.AperFunction,SMDPad,CuDef*%
%ADD42RoundRect,0.250000X-0.337500X-0.475000X0.337500X-0.475000X0.337500X0.475000X-0.337500X0.475000X0*%
%TD*%
%TA.AperFunction,SMDPad,CuDef*%
%ADD43RoundRect,0.237500X-0.237500X0.300000X-0.237500X-0.300000X0.237500X-0.300000X0.237500X0.300000X0*%
%TD*%
%TA.AperFunction,SMDPad,CuDef*%
%ADD44RoundRect,0.237500X0.237500X-0.300000X0.237500X0.300000X-0.237500X0.300000X-0.237500X-0.300000X0*%
%TD*%
%TA.AperFunction,ComponentPad*%
%ADD45C,1.508000*%
%TD*%
%TA.AperFunction,ComponentPad*%
%ADD46R,1.508000X1.508000*%
%TD*%
%TA.AperFunction,SMDPad,CuDef*%
%ADD47R,5.511800X0.990600*%
%TD*%
%TA.AperFunction,SMDPad,CuDef*%
%ADD48R,3.098800X1.701800*%
%TD*%
%TA.AperFunction,WasherPad*%
%ADD49O,0.990600X2.108200*%
%TD*%
%TA.AperFunction,WasherPad*%
%ADD50O,0.990600X1.803400*%
%TD*%
%TA.AperFunction,SMDPad,CuDef*%
%ADD51R,0.584200X1.143000*%
%TD*%
%TA.AperFunction,SMDPad,CuDef*%
%ADD52R,0.304800X1.143000*%
%TD*%
%TA.AperFunction,SMDPad,CuDef*%
%ADD53R,0.820000X0.280000*%
%TD*%
%TA.AperFunction,SMDPad,CuDef*%
%ADD54R,1.580000X2.849999*%
%TD*%
%TA.AperFunction,ComponentPad*%
%ADD55C,0.508000*%
%TD*%
%TA.AperFunction,SMDPad,CuDef*%
%ADD56RoundRect,0.250000X0.475000X-0.337500X0.475000X0.337500X-0.475000X0.337500X-0.475000X-0.337500X0*%
%TD*%
%TA.AperFunction,SMDPad,CuDef*%
%ADD57RoundRect,0.075000X-0.725000X-0.075000X0.725000X-0.075000X0.725000X0.075000X-0.725000X0.075000X0*%
%TD*%
%TA.AperFunction,SMDPad,CuDef*%
%ADD58RoundRect,0.075000X-0.075000X-0.725000X0.075000X-0.725000X0.075000X0.725000X-0.075000X0.725000X0*%
%TD*%
%TA.AperFunction,SMDPad,CuDef*%
%ADD59RoundRect,0.150000X0.150000X-0.512500X0.150000X0.512500X-0.150000X0.512500X-0.150000X-0.512500X0*%
%TD*%
%TA.AperFunction,ComponentPad*%
%ADD60RoundRect,0.200100X0.949900X-0.949900X0.949900X0.949900X-0.949900X0.949900X-0.949900X-0.949900X0*%
%TD*%
%TA.AperFunction,ComponentPad*%
%ADD61C,2.200000*%
%TD*%
%TA.AperFunction,SMDPad,CuDef*%
%ADD62RoundRect,0.225000X0.375000X-0.225000X0.375000X0.225000X-0.375000X0.225000X-0.375000X-0.225000X0*%
%TD*%
%TA.AperFunction,SMDPad,CuDef*%
%ADD63R,1.610000X3.610000*%
%TD*%
%TA.AperFunction,ViaPad*%
%ADD64C,0.600000*%
%TD*%
%TA.AperFunction,Conductor*%
%ADD65C,0.200000*%
%TD*%
%TA.AperFunction,Conductor*%
%ADD66C,0.500000*%
%TD*%
%TA.AperFunction,Conductor*%
%ADD67C,0.300000*%
%TD*%
%TA.AperFunction,Conductor*%
%ADD68C,0.350000*%
%TD*%
%TA.AperFunction,Conductor*%
%ADD69C,0.400000*%
%TD*%
%TA.AperFunction,Conductor*%
%ADD70C,1.300000*%
%TD*%
%TA.AperFunction,Conductor*%
%ADD71C,0.900000*%
%TD*%
G04 APERTURE END LIST*
D10*
D11*
X162132701Y-87369390D02*
X162056511Y-87331295D01*
X162056511Y-87331295D02*
X161942225Y-87331295D01*
X161942225Y-87331295D02*
X161827939Y-87369390D01*
X161827939Y-87369390D02*
X161751749Y-87445580D01*
X161751749Y-87445580D02*
X161713654Y-87521771D01*
X161713654Y-87521771D02*
X161675558Y-87674152D01*
X161675558Y-87674152D02*
X161675558Y-87788438D01*
X161675558Y-87788438D02*
X161713654Y-87940819D01*
X161713654Y-87940819D02*
X161751749Y-88017009D01*
X161751749Y-88017009D02*
X161827939Y-88093200D01*
X161827939Y-88093200D02*
X161942225Y-88131295D01*
X161942225Y-88131295D02*
X162018416Y-88131295D01*
X162018416Y-88131295D02*
X162132701Y-88093200D01*
X162132701Y-88093200D02*
X162170797Y-88055104D01*
X162170797Y-88055104D02*
X162170797Y-87788438D01*
X162170797Y-87788438D02*
X162018416Y-87788438D01*
X162513654Y-88131295D02*
X162513654Y-87331295D01*
X162513654Y-87331295D02*
X162818416Y-87331295D01*
X162818416Y-87331295D02*
X162894606Y-87369390D01*
X162894606Y-87369390D02*
X162932701Y-87407485D01*
X162932701Y-87407485D02*
X162970797Y-87483676D01*
X162970797Y-87483676D02*
X162970797Y-87597961D01*
X162970797Y-87597961D02*
X162932701Y-87674152D01*
X162932701Y-87674152D02*
X162894606Y-87712247D01*
X162894606Y-87712247D02*
X162818416Y-87750342D01*
X162818416Y-87750342D02*
X162513654Y-87750342D01*
X163275558Y-88093200D02*
X163389844Y-88131295D01*
X163389844Y-88131295D02*
X163580320Y-88131295D01*
X163580320Y-88131295D02*
X163656511Y-88093200D01*
X163656511Y-88093200D02*
X163694606Y-88055104D01*
X163694606Y-88055104D02*
X163732701Y-87978914D01*
X163732701Y-87978914D02*
X163732701Y-87902723D01*
X163732701Y-87902723D02*
X163694606Y-87826533D01*
X163694606Y-87826533D02*
X163656511Y-87788438D01*
X163656511Y-87788438D02*
X163580320Y-87750342D01*
X163580320Y-87750342D02*
X163427939Y-87712247D01*
X163427939Y-87712247D02*
X163351749Y-87674152D01*
X163351749Y-87674152D02*
X163313654Y-87636057D01*
X163313654Y-87636057D02*
X163275558Y-87559866D01*
X163275558Y-87559866D02*
X163275558Y-87483676D01*
X163275558Y-87483676D02*
X163313654Y-87407485D01*
X163313654Y-87407485D02*
X163351749Y-87369390D01*
X163351749Y-87369390D02*
X163427939Y-87331295D01*
X163427939Y-87331295D02*
X163618416Y-87331295D01*
X163618416Y-87331295D02*
X163732701Y-87369390D01*
X164075559Y-87826533D02*
X164685083Y-87826533D01*
X165027939Y-88093200D02*
X165142225Y-88131295D01*
X165142225Y-88131295D02*
X165332701Y-88131295D01*
X165332701Y-88131295D02*
X165408892Y-88093200D01*
X165408892Y-88093200D02*
X165446987Y-88055104D01*
X165446987Y-88055104D02*
X165485082Y-87978914D01*
X165485082Y-87978914D02*
X165485082Y-87902723D01*
X165485082Y-87902723D02*
X165446987Y-87826533D01*
X165446987Y-87826533D02*
X165408892Y-87788438D01*
X165408892Y-87788438D02*
X165332701Y-87750342D01*
X165332701Y-87750342D02*
X165180320Y-87712247D01*
X165180320Y-87712247D02*
X165104130Y-87674152D01*
X165104130Y-87674152D02*
X165066035Y-87636057D01*
X165066035Y-87636057D02*
X165027939Y-87559866D01*
X165027939Y-87559866D02*
X165027939Y-87483676D01*
X165027939Y-87483676D02*
X165066035Y-87407485D01*
X165066035Y-87407485D02*
X165104130Y-87369390D01*
X165104130Y-87369390D02*
X165180320Y-87331295D01*
X165180320Y-87331295D02*
X165370797Y-87331295D01*
X165370797Y-87331295D02*
X165485082Y-87369390D01*
X165713654Y-87331295D02*
X166170797Y-87331295D01*
X165942225Y-88131295D02*
X165942225Y-87331295D01*
X166399368Y-87902723D02*
X166780321Y-87902723D01*
X166323178Y-88131295D02*
X166589845Y-87331295D01*
X166589845Y-87331295D02*
X166856511Y-88131295D01*
X167389844Y-87712247D02*
X167123178Y-87712247D01*
X167123178Y-88131295D02*
X167123178Y-87331295D01*
X167123178Y-87331295D02*
X167504130Y-87331295D01*
X168075558Y-87712247D02*
X167808892Y-87712247D01*
X167808892Y-88131295D02*
X167808892Y-87331295D01*
X167808892Y-87331295D02*
X168189844Y-87331295D01*
X169027939Y-87597961D02*
X169218415Y-88131295D01*
X169218415Y-88131295D02*
X169408892Y-87597961D01*
X170132701Y-88131295D02*
X169675558Y-88131295D01*
X169904130Y-88131295D02*
X169904130Y-87331295D01*
X169904130Y-87331295D02*
X169827939Y-87445580D01*
X169827939Y-87445580D02*
X169751749Y-87521771D01*
X169751749Y-87521771D02*
X169675558Y-87559866D01*
X170475559Y-88055104D02*
X170513654Y-88093200D01*
X170513654Y-88093200D02*
X170475559Y-88131295D01*
X170475559Y-88131295D02*
X170437463Y-88093200D01*
X170437463Y-88093200D02*
X170475559Y-88055104D01*
X170475559Y-88055104D02*
X170475559Y-88131295D01*
X171008892Y-87331295D02*
X171085082Y-87331295D01*
X171085082Y-87331295D02*
X171161273Y-87369390D01*
X171161273Y-87369390D02*
X171199368Y-87407485D01*
X171199368Y-87407485D02*
X171237463Y-87483676D01*
X171237463Y-87483676D02*
X171275558Y-87636057D01*
X171275558Y-87636057D02*
X171275558Y-87826533D01*
X171275558Y-87826533D02*
X171237463Y-87978914D01*
X171237463Y-87978914D02*
X171199368Y-88055104D01*
X171199368Y-88055104D02*
X171161273Y-88093200D01*
X171161273Y-88093200D02*
X171085082Y-88131295D01*
X171085082Y-88131295D02*
X171008892Y-88131295D01*
X171008892Y-88131295D02*
X170932701Y-88093200D01*
X170932701Y-88093200D02*
X170894606Y-88055104D01*
X170894606Y-88055104D02*
X170856511Y-87978914D01*
X170856511Y-87978914D02*
X170818415Y-87826533D01*
X170818415Y-87826533D02*
X170818415Y-87636057D01*
X170818415Y-87636057D02*
X170856511Y-87483676D01*
X170856511Y-87483676D02*
X170894606Y-87407485D01*
X170894606Y-87407485D02*
X170932701Y-87369390D01*
X170932701Y-87369390D02*
X171008892Y-87331295D01*
D12*
%TO.P,R7,1*%
%TO.N,Net-(D1-K)*%
X122809000Y-147962500D03*
%TO.P,R7,2*%
%TO.N,+3V3*%
X122809000Y-146137500D03*
%TD*%
D13*
%TO.P,J12,1,Pin_1_1*%
%TO.N,GND*%
X115189000Y-141732000D03*
D14*
%TO.P,J12,2,Pin_2_2*%
%TO.N,Net-(J12-Pin_2)*%
X115189000Y-139192000D03*
%TD*%
D15*
%TO.P,L2,1*%
%TO.N,Net-(J5-In)*%
X173731000Y-114449000D03*
%TO.P,L2,2*%
%TO.N,Net-(U4A-VCC_RF)*%
X173731000Y-115369000D03*
%TD*%
D13*
%TO.P,TP1,1,1_1*%
%TO.N,Net-(U2-PG)*%
X117475000Y-150495000D03*
%TD*%
D16*
%TO.P,L1,1,1_1*%
%TO.N,Net-(L1-Pad1)*%
X131178300Y-144113000D03*
%TO.P,L1,2,2_2*%
%TO.N,Net-(L1-Pad2)*%
X129425700Y-144113000D03*
%TD*%
D17*
%TO.P,C28,1*%
%TO.N,Net-(U8-VDDA1.8)*%
X129844800Y-136355000D03*
%TO.P,C28,2*%
%TO.N,GND*%
X129844800Y-138430000D03*
%TD*%
D18*
%TO.P,U7,1,SDO/SA0_1*%
%TO.N,GND*%
X166390000Y-131176000D03*
%TO.P,U7,2,SDX_2*%
%TO.N,unconnected-(U7-SDX-Pad2)*%
X166390000Y-131676000D03*
%TO.P,U7,3,SCX_3*%
%TO.N,unconnected-(U7-SCX-Pad3)*%
X166390000Y-132176000D03*
%TO.P,U7,4,INT1_4*%
%TO.N,LSM6DSOX_INT1*%
X166390000Y-132676000D03*
D19*
%TO.P,U7,5,VDDIO_5*%
%TO.N,+3V3*%
X167050000Y-132836000D03*
%TO.P,U7,6,GND_6*%
%TO.N,GND*%
X167550000Y-132836000D03*
%TO.P,U7,7,GND__1_7*%
X168050000Y-132836000D03*
D18*
%TO.P,U7,8,VDD_8*%
%TO.N,+3V3*%
X168710000Y-132676000D03*
%TO.P,U7,9,INT2_9*%
%TO.N,LSM6DSOX_INT2*%
X168710000Y-132176000D03*
%TO.P,U7,10,OCS_AUX_10*%
%TO.N,unconnected-(U7-OCS_AUX-Pad10)*%
X168710000Y-131676000D03*
%TO.P,U7,11,SDO_AUX_11*%
%TO.N,unconnected-(U7-SDO_AUX-Pad11)*%
X168710000Y-131176000D03*
D19*
%TO.P,U7,12,CS_12*%
%TO.N,+3V3*%
X168050000Y-131016000D03*
%TO.P,U7,13,SCL_13*%
%TO.N,I2C4_SCK*%
X167550000Y-131016000D03*
%TO.P,U7,14,SDA_14*%
%TO.N,I2C4_SDA*%
X167050000Y-131016000D03*
%TD*%
D17*
%TO.P,C31,1*%
%TO.N,+3V3*%
X120396000Y-140927000D03*
%TO.P,C31,2*%
%TO.N,Net-(D1-A)*%
X120396000Y-143002000D03*
%TD*%
D20*
%TO.P,Y1,1,TRI_STATE_1*%
%TO.N,unconnected-(Y1-TRI_STATE-Pad1)*%
X128590000Y-116826000D03*
%TO.P,Y1,2,GND_2*%
%TO.N,GND*%
X128590000Y-119126000D03*
%TO.P,Y1,3,OUTPUT_3*%
%TO.N,RCCCLK*%
X130490000Y-119126000D03*
%TO.P,Y1,4,VDD_4*%
%TO.N,+3V3*%
X130490000Y-116826000D03*
%TD*%
D21*
%TO.P,R22,1*%
%TO.N,/Power/VBAT*%
X159258000Y-134416800D03*
%TO.P,R22,2*%
%TO.N,VBAT_2*%
X159258000Y-132416800D03*
%TD*%
D13*
%TO.P,J4,1,Pin_1_1*%
%TO.N,/Power/VBAT*%
X170180000Y-144729200D03*
D14*
%TO.P,J4,2,Pin_2_2*%
%TO.N,VBSW*%
X170180000Y-142189200D03*
%TD*%
D22*
%TO.P,R1,1*%
%TO.N,Net-(U1-ISET)*%
X153416000Y-141732000D03*
%TO.P,R1,2*%
%TO.N,GND*%
X155416000Y-141732000D03*
%TD*%
D23*
%TO.P,U8,1,GND_1*%
%TO.N,GND*%
X137188000Y-138581500D03*
%TO.P,U8,2,GND_2*%
X137688000Y-138581500D03*
%TO.P,U8,3,CPEN_3*%
X138188000Y-138581500D03*
%TO.P,U8,4,VBUS_4*%
%TO.N,Net-(U8-VBUS)*%
X138688000Y-138581500D03*
%TO.P,U8,5,ID_5*%
%TO.N,unconnected-(U8-ID-Pad5)*%
X139188000Y-138581500D03*
%TO.P,U8,6,VDD3.3_6*%
%TO.N,+3V3*%
X139688000Y-138581500D03*
%TO.P,U8,7,DP_7*%
%TO.N,USB_D_P*%
X140188000Y-138581500D03*
%TO.P,U8,8,DM_8*%
%TO.N,USB_D_N*%
X140688000Y-138581500D03*
D24*
%TO.P,U8,9,RESET_9*%
%TO.N,USB3300_RST*%
X141375500Y-137894000D03*
%TO.P,U8,10,EXTVBUS_10*%
%TO.N,unconnected-(U8-EXTVBUS-Pad10)*%
X141375500Y-137394000D03*
%TO.P,U8,11,NXT_11*%
%TO.N,HS_ULPI_NXT*%
X141375500Y-136894000D03*
%TO.P,U8,12,DIR_12*%
%TO.N,HS_ULPI_DIR*%
X141375500Y-136394000D03*
%TO.P,U8,13,STP_13*%
%TO.N,HS_ULPI_STP*%
X141375500Y-135894000D03*
%TO.P,U8,14,CLKOUT_14*%
%TO.N,HS_ULPI_CK*%
X141375500Y-135394000D03*
%TO.P,U8,15,VDD1.8_15*%
%TO.N,Net-(C29-Pad1)*%
X141375500Y-134894000D03*
%TO.P,U8,16,VDD3.3_16*%
%TO.N,+3V3*%
X141375500Y-134394000D03*
D23*
%TO.P,U8,17,DATA7_17*%
%TO.N,HS_ULPI_D7*%
X140688000Y-133706500D03*
%TO.P,U8,18,DATA6_18*%
%TO.N,HS_ULPI_D6*%
X140188000Y-133706500D03*
%TO.P,U8,19,DATA5_19*%
%TO.N,HS_ULPI_D5*%
X139688000Y-133706500D03*
%TO.P,U8,20,DATA4_20*%
%TO.N,HS_ULPI_D4*%
X139188000Y-133706500D03*
%TO.P,U8,21,DATA3_21*%
%TO.N,HS_ULPI_D3*%
X138688000Y-133706500D03*
%TO.P,U8,22,DATA2_22*%
%TO.N,HS_ULPI_D2*%
X138188000Y-133706500D03*
%TO.P,U8,23,DATA1_23*%
%TO.N,HS_ULPI_D1*%
X137688000Y-133706500D03*
%TO.P,U8,24,DATA0_24*%
%TO.N,HS_ULPI_DO*%
X137188000Y-133706500D03*
D24*
%TO.P,U8,25,VDD3.3_25*%
%TO.N,+3V3*%
X136500500Y-134394000D03*
%TO.P,U8,26,VDD1.8_26*%
%TO.N,Net-(C29-Pad1)*%
X136500500Y-134894000D03*
%TO.P,U8,27,XO_27*%
%TO.N,unconnected-(U8-XO-Pad27)*%
X136500500Y-135394000D03*
%TO.P,U8,28,XI_28*%
%TO.N,Net-(U8-XI)*%
X136500500Y-135894000D03*
%TO.P,U8,29,VDDA1.8_29*%
%TO.N,Net-(U8-VDDA1.8)*%
X136500500Y-136394000D03*
%TO.P,U8,30,VDD3.3_30*%
%TO.N,+3V3*%
X136500500Y-136894000D03*
%TO.P,U8,31,REG_EN_31*%
X136500500Y-137394000D03*
%TO.P,U8,32,RBIAS_32*%
%TO.N,Net-(U8-RBIAS)*%
X136500500Y-137894000D03*
D25*
%TO.P,U8,33,GND_33*%
%TO.N,GND*%
X138938000Y-136144000D03*
%TD*%
D26*
%TO.P,LD2,1,K_1*%
%TO.N,nCHG*%
X153543000Y-149080000D03*
%TO.P,LD2,2,A_2*%
%TO.N,Net-(LD2-A)*%
X153543000Y-151130000D03*
%TD*%
D27*
%TO.P,J6,G1,SHIELD_GND_G1*%
%TO.N,GND*%
X145005000Y-95675000D03*
%TO.P,J6,G2,SHIELD_GND_G2*%
X131855000Y-94675000D03*
D28*
%TO.P,J6,G3,SHIELD_GND_G3*%
X143465000Y-108825000D03*
D29*
%TO.P,J6,G4,SHIELD_GND_G4*%
X137715000Y-108825000D03*
D30*
%TO.P,J6,P1,DAT2_P1*%
%TO.N,SDMMC_D2*%
X136525000Y-97965000D03*
%TO.P,J6,P2,CD/DAT3_P2*%
%TO.N,SDMMC_D3*%
X137625000Y-98365000D03*
%TO.P,J6,P3,CMD_P3*%
%TO.N,SDMMC_CMD*%
X138725000Y-97965000D03*
%TO.P,J6,P4,VDD_P4*%
%TO.N,+3V3*%
X139825000Y-97765000D03*
%TO.P,J6,P5,CLK_P5*%
%TO.N,SDMMC_CK*%
X140925000Y-97965000D03*
%TO.P,J6,P6,VSS_P6*%
%TO.N,GND*%
X142025000Y-97765000D03*
%TO.P,J6,P7,DAT0_P7*%
%TO.N,SDMMC_D0*%
X143125000Y-97965000D03*
%TO.P,J6,P8,DAT1_P8*%
%TO.N,SDMMC_D1*%
X144225000Y-97965000D03*
D31*
%TO.P,J6,P9,CD_PIN_P9*%
%TO.N,SDMMC_CD*%
X142015000Y-109195000D03*
%TD*%
D22*
%TO.P,R18,1*%
%TO.N,F9P_SAFEBOOT_N*%
X163830000Y-117348000D03*
%TO.P,R18,2*%
%TO.N,+3V3*%
X165830000Y-117348000D03*
%TD*%
D32*
%TO.P,U4,1,GND_1*%
%TO.N,GND*%
X169756000Y-111798001D03*
%TO.P,U4,2,RF_IN_2*%
%TO.N,/ZED-F9P-05B/GANT*%
X169756000Y-110698001D03*
%TO.P,U4,3,GND_3*%
%TO.N,GND*%
X169756000Y-109598000D03*
%TO.P,U4,4,ANT_DETECT_4*%
%TO.N,F9P_ANT_DETECT*%
X169756000Y-108498000D03*
%TO.P,U4,5,ANT_OFF_5*%
%TO.N,F9P_ANT_OFF*%
X169756000Y-107398000D03*
%TO.P,U4,6,ANT_SHORT_N_6*%
%TO.N,F9P_ANT_SHORT*%
X169756000Y-106297999D03*
%TO.P,U4,7,VCC_RF_7*%
%TO.N,Net-(U4A-VCC_RF)*%
X169756000Y-105197999D03*
%TO.P,U4,8,RESERVED_8*%
%TO.N,unconnected-(U4A-RESERVED-Pad8)*%
X169756000Y-104098001D03*
%TO.P,U4,9,RESERVED_9*%
%TO.N,unconnected-(U4A-RESERVED-Pad9)*%
X169756000Y-102998001D03*
%TO.P,U4,10,RESERVED_10*%
%TO.N,unconnected-(U4A-RESERVED-Pad10)*%
X169756000Y-101898000D03*
%TO.P,U4,11,RESERVED_11*%
%TO.N,unconnected-(U4A-RESERVED-Pad11)*%
X169756000Y-100798000D03*
%TO.P,U4,12,GND_12*%
%TO.N,GND*%
X169756000Y-99698000D03*
%TO.P,U4,13,RESERVED_13*%
%TO.N,unconnected-(U4A-RESERVED-Pad13)*%
X169756000Y-98597999D03*
%TO.P,U4,14,GND_14*%
%TO.N,GND*%
X169756000Y-97497999D03*
D33*
%TO.P,U4,15,RESERVED_15*%
%TO.N,unconnected-(U4A-RESERVED-Pad15)*%
X168905999Y-94698000D03*
%TO.P,U4,16,RESERVED_16*%
%TO.N,unconnected-(U4A-RESERVED-Pad16)*%
X167805999Y-94698000D03*
%TO.P,U4,17,RESERVED_17*%
%TO.N,unconnected-(U4A-RESERVED-Pad17)*%
X166705999Y-94698000D03*
%TO.P,U4,18,RESERVED_18*%
%TO.N,unconnected-(U4A-RESERVED-Pad18)*%
X165606001Y-94698000D03*
%TO.P,U4,19,GEOFENCE_STAT_19*%
%TO.N,F9P_GEOFENCE_STAT*%
X164506001Y-94698000D03*
%TO.P,U4,20,RTK_STAT_20*%
%TO.N,F9P_RTK_STAT*%
X163406000Y-94698000D03*
%TO.P,U4,21,RESERVED_21*%
%TO.N,unconnected-(U4A-RESERVED-Pad21)*%
X162306000Y-94698000D03*
%TO.P,U4,22,RESERVED_22*%
%TO.N,unconnected-(U4A-RESERVED-Pad22)*%
X161206000Y-94698000D03*
%TO.P,U4,23,RESERVED_23*%
%TO.N,unconnected-(U4A-RESERVED-Pad23)*%
X160105999Y-94698000D03*
%TO.P,U4,24,RESERVED_24*%
%TO.N,unconnected-(U4A-RESERVED-Pad24)*%
X159005999Y-94698000D03*
%TO.P,U4,25,RESERVED_25*%
%TO.N,unconnected-(U4A-RESERVED-Pad25)*%
X157905999Y-94698000D03*
%TO.P,U4,26,RXD2_26*%
%TO.N,UART7_TX_F9P_RXD2*%
X156805998Y-94698000D03*
%TO.P,U4,27,TXD2_27*%
%TO.N,UART7_RX_F9P_TXD2*%
X155705998Y-94698000D03*
D32*
%TO.P,U4,28,RESERVED_28*%
%TO.N,unconnected-(U4A-RESERVED-Pad28)*%
X154856000Y-97497999D03*
%TO.P,U4,29,RESERVED_29*%
%TO.N,unconnected-(U4A-RESERVED-Pad29)*%
X154856000Y-98597999D03*
%TO.P,U4,30,RESERVED_30*%
%TO.N,unconnected-(U4A-RESERVED-Pad30)*%
X154856000Y-99698000D03*
%TO.P,U4,31,RESERVED_31*%
%TO.N,unconnected-(U4A-RESERVED-Pad31)*%
X154856000Y-100798000D03*
%TO.P,U4,32,GND_32*%
%TO.N,GND*%
X154856000Y-101898000D03*
%TO.P,U4,33,VCC_33*%
%TO.N,+3V3*%
X154856000Y-102998001D03*
%TO.P,U4,34,VCC_34*%
X154856000Y-104098001D03*
%TO.P,U4,35,RESERVED_35*%
%TO.N,unconnected-(U4A-RESERVED-Pad35)*%
X154856000Y-105197999D03*
%TO.P,U4,36,V_BCKP_36*%
%TO.N,+3V3*%
X154856000Y-106297999D03*
%TO.P,U4,37,GND_37*%
%TO.N,GND*%
X154856000Y-107398000D03*
%TO.P,U4,38,V_USB_38*%
%TO.N,unconnected-(U4A-V_USB-Pad38)*%
X154856000Y-108498000D03*
%TO.P,U4,39,USB_DM_39*%
%TO.N,unconnected-(U4A-USB_DM-Pad39)*%
X154856000Y-109598000D03*
%TO.P,U4,40,USB_DP_40*%
%TO.N,unconnected-(U4A-USB_DP-Pad40)*%
X154856000Y-110698001D03*
%TO.P,U4,41,GND_41*%
%TO.N,GND*%
X154856000Y-111798001D03*
D33*
%TO.P,U4,42,TXD/SPI_MISO_42*%
%TO.N,UART5_RX_F9P_TXD*%
X155706001Y-114598000D03*
%TO.P,U4,43,RXD/SPI_MOSI_43*%
%TO.N,UART5_TX_F9P_RXD*%
X156806001Y-114598000D03*
%TO.P,U4,44,SDA/SPI_CS_N_44*%
%TO.N,unconnected-(U4A-SDA{slash}SPI_CS_N-Pad44)*%
X157906001Y-114598000D03*
%TO.P,U4,45,SCL/SPI_CLK_45*%
%TO.N,unconnected-(U4A-SCL{slash}SPI_CLK-Pad45)*%
X159005999Y-114598000D03*
%TO.P,U4,46,TX_READY_46*%
%TO.N,F9P_TX_READY*%
X160105999Y-114598000D03*
%TO.P,U4,47,D_SEL_47*%
%TO.N,F9P_D_SEL*%
X161206000Y-114598000D03*
%TO.P,U4,48,GND_48*%
%TO.N,GND*%
X162306000Y-114598000D03*
%TO.P,U4,49,RESET_N_49*%
%TO.N,F9P_RESET_N*%
X163406000Y-114598000D03*
%TO.P,U4,50,SAFEBOOT_N_50*%
%TO.N,F9P_SAFEBOOT_N*%
X164506001Y-114598000D03*
%TO.P,U4,51,EXTINT_51*%
%TO.N,F9P_EXTINT*%
X165606001Y-114598000D03*
%TO.P,U4,52,RESERVED_52*%
%TO.N,unconnected-(U4B-RESERVED-Pad52)*%
X166706001Y-114598000D03*
%TO.P,U4,53,TIMEPULSE_53*%
%TO.N,F9P_TIMEP*%
X167806002Y-114598000D03*
%TO.P,U4,54,RESERVED_54*%
%TO.N,unconnected-(U4B-RESERVED-Pad54)*%
X168906002Y-114598000D03*
D34*
%TO.P,U4,55,GND_55*%
%TO.N,GND*%
X167556000Y-111998000D03*
%TO.P,U4,56,GND_56*%
X165455999Y-111998000D03*
%TO.P,U4,57,GND_57*%
X163356000Y-111998000D03*
%TO.P,U4,58,GND_58*%
X161256000Y-111998000D03*
%TO.P,U4,59,GND_59*%
X159156001Y-111998000D03*
%TO.P,U4,60,GND_60*%
X157056000Y-111998000D03*
%TO.P,U4,61,GND_61*%
X167556000Y-109898000D03*
%TO.P,U4,62,GND_62*%
X165455999Y-109898000D03*
%TO.P,U4,63,GND_63*%
X163356000Y-109898000D03*
%TO.P,U4,64,GND_64*%
X161256000Y-109898000D03*
%TO.P,U4,65,GND_65*%
X159156001Y-109898000D03*
%TO.P,U4,66,GND_66*%
X157056000Y-109898000D03*
%TO.P,U4,67,GND_67*%
X167556000Y-107798000D03*
%TO.P,U4,68,GND_68*%
X165455999Y-107798000D03*
%TO.P,U4,69,GND_69*%
X163356000Y-107798000D03*
%TO.P,U4,70,GND_70*%
X161256000Y-107798000D03*
%TO.P,U4,71,GND_71*%
X159156001Y-107798000D03*
%TO.P,U4,72,GND_72*%
X157056000Y-107798000D03*
%TO.P,U4,73,GND_73*%
X167556000Y-105698000D03*
%TO.P,U4,74,GND_74*%
X165455999Y-105698000D03*
%TO.P,U4,75,GND_75*%
X163356000Y-105698000D03*
%TO.P,U4,76,GND_76*%
X161256000Y-105698000D03*
%TO.P,U4,77,GND_77*%
X159156001Y-105698000D03*
%TO.P,U4,78,GND_78*%
X157056000Y-105698000D03*
%TO.P,U4,79,GND_79*%
X167556000Y-103598000D03*
%TO.P,U4,80,GND_80*%
X165455999Y-103598000D03*
%TO.P,U4,81,GND_81*%
X163356000Y-103598000D03*
%TO.P,U4,82,GND_82*%
X161256000Y-103598000D03*
%TO.P,U4,83,GND_83*%
X159156001Y-103598000D03*
%TO.P,U4,84,GND_84*%
X157056000Y-103598000D03*
%TO.P,U4,85,GND_85*%
X167556000Y-101498000D03*
%TO.P,U4,86,GND_86*%
X165455999Y-101498000D03*
%TO.P,U4,87,GND_87*%
X163356000Y-101498000D03*
%TO.P,U4,88,GND_88*%
X161256000Y-101498000D03*
%TO.P,U4,89,GND_89*%
X159156001Y-101498000D03*
%TO.P,U4,90,GND_90*%
X157056000Y-101498000D03*
%TO.P,U4,91,GND_91*%
X167556000Y-99398000D03*
%TO.P,U4,92,GND_92*%
X165455999Y-99398000D03*
%TO.P,U4,93,GND_93*%
X163356000Y-99398000D03*
%TO.P,U4,94,GND_94*%
X161256000Y-99398000D03*
%TO.P,U4,95,GND_95*%
X159156001Y-99398000D03*
%TO.P,U4,96,GND_96*%
X157056000Y-99398000D03*
%TO.P,U4,97,GND_97*%
X167556000Y-97298000D03*
%TO.P,U4,98,GND_98*%
X165455999Y-97298000D03*
%TO.P,U4,99,GND_99*%
X163356000Y-97298000D03*
%TO.P,U4,100,GND_100*%
X161256000Y-97298000D03*
%TO.P,U4,101,GND_101*%
X159156001Y-97298000D03*
%TO.P,U4,102,GND_102*%
X157056000Y-97298000D03*
%TD*%
D13*
%TO.P,J9,1,Pin_1_1*%
%TO.N,+3V3*%
X148844000Y-91186000D03*
D14*
%TO.P,J9,2,Pin_2_2*%
%TO.N,PA14{slash}SWCLK*%
X148844000Y-93726000D03*
%TO.P,J9,3,Pin_3_3*%
%TO.N,GND*%
X148844000Y-96266000D03*
%TO.P,J9,4,Pin_4_4*%
%TO.N,PA13{slash}SWDIO*%
X148844000Y-98806000D03*
%TO.P,J9,5,Pin_5_5*%
%TO.N,NRST*%
X148844000Y-101346000D03*
%TO.P,J9,6,Pin_6_6*%
%TO.N,PB3{slash}SWO*%
X148844000Y-103886000D03*
%TO.P,J9,7,Pin_7_7*%
%TO.N,PD8{slash}DEBUG_TX*%
X148844000Y-106426000D03*
%TO.P,J9,8,Pin_8_8*%
%TO.N,PD9{slash}DEBUG_RX*%
X148844000Y-108966000D03*
%TD*%
D13*
%TO.P,J8,1,Pin_1_1*%
%TO.N,HS_SOF*%
X129641600Y-130810000D03*
%TD*%
D35*
%TO.P,R8,1*%
%TO.N,GND*%
X124714000Y-146050000D03*
%TO.P,R8,2*%
%TO.N,Net-(D1-K)*%
X124714000Y-148050000D03*
%TD*%
D36*
%TO.P,LD4,1,K_1*%
%TO.N,PD6_LD4*%
X156556600Y-121513600D03*
%TO.P,LD4,2,A_2*%
%TO.N,Net-(LD4-A)*%
X158606600Y-121513600D03*
%TD*%
%TO.P,LD3,1,K_1*%
%TO.N,PD5_LD3*%
X156556600Y-123647200D03*
%TO.P,LD3,2,A_2*%
%TO.N,Net-(LD3-A)*%
X158606600Y-123647200D03*
%TD*%
D37*
%TO.P,R17,1*%
%TO.N,I2C4_SCK*%
X171519600Y-138303000D03*
%TO.P,R17,2*%
%TO.N,+3V3*%
X169519600Y-138303000D03*
%TD*%
D22*
%TO.P,R2,1*%
%TO.N,Net-(LD1-A)*%
X156210000Y-148844000D03*
%TO.P,R2,2*%
%TO.N,+5V*%
X158210000Y-148844000D03*
%TD*%
D35*
%TO.P,R6,1*%
%TO.N,SYSOFF*%
X152654000Y-144304000D03*
%TO.P,R6,2*%
%TO.N,GND*%
X152654000Y-146304000D03*
%TD*%
D37*
%TO.P,R19,1*%
%TO.N,F9P_RESET_N*%
X157972000Y-117246400D03*
%TO.P,R19,2*%
%TO.N,+3V3*%
X155972000Y-117246400D03*
%TD*%
D22*
%TO.P,R21,1*%
%TO.N,Net-(LD4-A)*%
X160848800Y-121615200D03*
%TO.P,R21,2*%
%TO.N,+3V3*%
X162848800Y-121615200D03*
%TD*%
D38*
%TO.P,U1,1,TS_1*%
%TO.N,Net-(U1-TS)*%
X150916500Y-140069000D03*
%TO.P,U1,2,BAT_2*%
%TO.N,VBSW*%
X150916500Y-139569000D03*
%TO.P,U1,3,BAT_3*%
X150916500Y-139069000D03*
%TO.P,U1,4,~{CE}_4*%
%TO.N,BQ24975_nCE*%
X150916500Y-138569000D03*
D39*
%TO.P,U1,5,EN2_5*%
%TO.N,BQ24975_EN2*%
X150229000Y-137881500D03*
%TO.P,U1,6,EN1_6*%
%TO.N,BQ24975_EN1*%
X149729000Y-137881500D03*
%TO.P,U1,7,~{PGOOD}_7*%
%TO.N,nPGOOD*%
X149229000Y-137881500D03*
%TO.P,U1,8,VSS_8*%
%TO.N,GND*%
X148729000Y-137881500D03*
D38*
%TO.P,U1,9,~{CHG}_9*%
%TO.N,nCHG*%
X148041500Y-138569000D03*
%TO.P,U1,10,OUT_10*%
%TO.N,+5V*%
X148041500Y-139069000D03*
%TO.P,U1,11,OUT_11*%
X148041500Y-139569000D03*
%TO.P,U1,12,ILIM_12*%
%TO.N,Net-(U1-ILIM)*%
X148041500Y-140069000D03*
D39*
%TO.P,U1,13,IN_13*%
%TO.N,VBUS*%
X148729000Y-140756500D03*
%TO.P,U1,14,TMR_14*%
%TO.N,Net-(U1-TMR)*%
X149229000Y-140756500D03*
%TO.P,U1,15,SYSOFF_15*%
%TO.N,SYSOFF*%
X149729000Y-140756500D03*
%TO.P,U1,16,ISET_16*%
%TO.N,Net-(U1-ISET)*%
X150229000Y-140756500D03*
D40*
%TO.P,U1,17,VSS_17*%
%TO.N,GND*%
X149479000Y-139319000D03*
%TD*%
D41*
%TO.P,C29,1*%
%TO.N,Net-(C29-Pad1)*%
X134082700Y-137718800D03*
%TO.P,C29,2*%
%TO.N,GND*%
X132007700Y-137718800D03*
%TD*%
D42*
%TO.P,C6,1*%
%TO.N,+3V3*%
X122914500Y-143859000D03*
%TO.P,C6,2*%
%TO.N,GND*%
X124989500Y-143859000D03*
%TD*%
D43*
%TO.P,C5,1*%
%TO.N,+5V*%
X126492000Y-148336000D03*
%TO.P,C5,2*%
%TO.N,GND*%
X126492000Y-150061000D03*
%TD*%
D44*
%TO.P,C4,1*%
%TO.N,Net-(U2-EN)*%
X134112000Y-150976500D03*
%TO.P,C4,2*%
%TO.N,GND*%
X134112000Y-149251500D03*
%TD*%
D21*
%TO.P,R14,1*%
%TO.N,+3V3*%
X117729000Y-147780000D03*
%TO.P,R14,2*%
%TO.N,Net-(D1-A)*%
X117729000Y-145780000D03*
%TD*%
D45*
%TO.P,U5,1,GP1_1*%
%TO.N,ESP32_GP1*%
X118364000Y-93853000D03*
%TO.P,U5,2,GP2_2*%
%TO.N,ESP32_GP2*%
X115824000Y-93853000D03*
%TO.P,U5,3,GP3_3*%
%TO.N,ESP32_GP3*%
X113284000Y-93853000D03*
%TO.P,U5,3V3,3V3(OUT)_3V3*%
%TO.N,+3V3*%
X120904000Y-93853000D03*
%TO.P,U5,4,GP4_4*%
%TO.N,ESP32_GP4*%
X110744000Y-93853000D03*
%TO.P,U5,5,GP5_5*%
%TO.N,ESP32_GP5*%
X108204000Y-93853000D03*
D46*
%TO.P,U5,5V,5V_5V*%
%TO.N,unconnected-(U5-Pad5V)*%
X125984000Y-93853000D03*
D45*
%TO.P,U5,6,GP6_6*%
%TO.N,unconnected-(U5-GP6-Pad6)*%
X105664000Y-93853000D03*
%TO.P,U5,7,GP7_7*%
%TO.N,unconnected-(U5-GP7-Pad7)*%
X105664000Y-109093000D03*
%TO.P,U5,8,GP8_8*%
%TO.N,unconnected-(U5-GP8-Pad8)*%
X108204000Y-109093000D03*
%TO.P,U5,9,GP9_9*%
%TO.N,unconnected-(U5-GP9-Pad9)*%
X110744000Y-109093000D03*
%TO.P,U5,10,GP10_10*%
%TO.N,unconnected-(U5-GP10-Pad10)*%
X113284000Y-109093000D03*
%TO.P,U5,11,GP11_11*%
%TO.N,unconnected-(U5-GP11-Pad11)*%
X115824000Y-109093000D03*
%TO.P,U5,12,GP12_12*%
%TO.N,unconnected-(U5-GP12-Pad12)*%
X118364000Y-109093000D03*
%TO.P,U5,13,GP13_13*%
%TO.N,unconnected-(U5-GP13-Pad13)*%
X120904000Y-109093000D03*
%TO.P,U5,GND,GND_GND*%
%TO.N,GND*%
X123444000Y-93853000D03*
%TO.P,U5,RX,RX_RX*%
%TO.N,ESP32_RX*%
X123444000Y-109093000D03*
%TO.P,U5,TX,TX_TX*%
%TO.N,ESP32_TX*%
X125984000Y-109093000D03*
%TD*%
D43*
%TO.P,C34,1*%
%TO.N,GND*%
X151638000Y-101145000D03*
%TO.P,C34,2*%
%TO.N,+3V3*%
X151638000Y-102870000D03*
%TD*%
D47*
%TO.P,J3,1,Pin_1_1*%
%TO.N,/Power/VBAT*%
X162578949Y-142873750D03*
%TO.P,J3,2,Pin_2_2*%
%TO.N,GND*%
X162578949Y-144873752D03*
D48*
%TO.P,J3,3,Pin_3_3*%
%TO.N,unconnected-(J3-Pin_3-Pad3)*%
X164828950Y-140473753D03*
%TO.P,J3,4,Pin_4_4*%
%TO.N,unconnected-(J3-Pin_4-Pad4)*%
X164828950Y-147273749D03*
%TD*%
D13*
%TO.P,J11,1,Pin_1_1*%
%TO.N,+3V3*%
X174904400Y-130302000D03*
D14*
%TO.P,J11,2,Pin_2_2*%
%TO.N,I2C4_SDA*%
X174904400Y-132842000D03*
%TO.P,J11,3,Pin_3_3*%
%TO.N,I2C4_SCK*%
X174904400Y-135382000D03*
%TO.P,J11,4,Pin_4_4*%
%TO.N,MAGNETO_SPARE1*%
X174904400Y-137922000D03*
%TO.P,J11,5,Pin_5_5*%
%TO.N,MAGNETO_SPARE2*%
X174904400Y-140462000D03*
%TO.P,J11,6,Pin_6_6*%
%TO.N,GND*%
X174904400Y-143002000D03*
%TD*%
D49*
%TO.P,J1,*%
%TO.N,*%
X136139996Y-146187200D03*
D50*
X136139996Y-150367200D03*
D49*
X144780000Y-146187200D03*
D50*
X144780000Y-150367200D03*
D51*
%TO.P,J1,A1-B12,GND_A1-B12*%
%TO.N,GND*%
X137259998Y-145612200D03*
%TO.P,J1,A4-B9,VBUS_A4-B9*%
%TO.N,VBUS*%
X138059997Y-145612200D03*
D52*
%TO.P,J1,A5,CC1_A5*%
%TO.N,Net-(J1-CC1)*%
X139209998Y-145612200D03*
%TO.P,J1,A6,DP1_A6*%
%TO.N,USB_D2_P*%
X140209998Y-145612200D03*
%TO.P,J1,A7,DN1_A7*%
%TO.N,USB_D2_N*%
X140709998Y-145612200D03*
%TO.P,J1,A8,SBU1_A8*%
%TO.N,unconnected-(J1-SBU1-PadA8)*%
X141709998Y-145612200D03*
D51*
%TO.P,J1,B1-A12,GND_B1-A12*%
%TO.N,GND*%
X143659998Y-145612200D03*
%TO.P,J1,B4-A9,VBUS_B4-A9*%
%TO.N,VBUS*%
X142859999Y-145612200D03*
D52*
%TO.P,J1,B5,CC2_B5*%
%TO.N,Net-(J1-CC2)*%
X142209997Y-145612200D03*
%TO.P,J1,B6,DP2_B6*%
%TO.N,USB_D2_P*%
X141209999Y-145612200D03*
%TO.P,J1,B7,DN2_B7*%
%TO.N,USB_D2_N*%
X139709997Y-145612200D03*
%TO.P,J1,B8,SBU2_B8*%
%TO.N,unconnected-(J1-SBU2-PadB8)*%
X138709999Y-145612200D03*
%TD*%
D53*
%TO.P,U2,1,VINA_1*%
%TO.N,Net-(U2-EN)*%
X131939000Y-149550000D03*
%TO.P,U2,2,GND_2*%
%TO.N,GND*%
X131939000Y-149050001D03*
%TO.P,U2,3,FB_3*%
%TO.N,Net-(D1-K)*%
X131939000Y-148549999D03*
%TO.P,U2,4,VOUT_4*%
%TO.N,+3V3*%
X131939000Y-148050000D03*
%TO.P,U2,5,VOUT_5*%
X131939000Y-147549998D03*
%TO.P,U2,6,L2_6*%
%TO.N,Net-(L1-Pad1)*%
X131939000Y-147049999D03*
%TO.P,U2,7,L2_7*%
X131939000Y-146550000D03*
%TO.P,U2,8,L1_8*%
%TO.N,Net-(L1-Pad2)*%
X128919000Y-146550000D03*
%TO.P,U2,9,L1_9*%
X128919000Y-147049999D03*
%TO.P,U2,10,VIN_10*%
%TO.N,+5V*%
X128919000Y-147550001D03*
%TO.P,U2,11,VIN_11*%
X128919000Y-148050000D03*
%TO.P,U2,12,EN_12*%
%TO.N,Net-(U2-EN)*%
X128919000Y-148550002D03*
%TO.P,U2,13,PS/SYNC_13*%
%TO.N,GND*%
X128919000Y-149050001D03*
%TO.P,U2,14,PG_14*%
%TO.N,Net-(U2-PG)*%
X128919000Y-149550000D03*
D54*
%TO.P,U2,15,EPAD_15*%
%TO.N,GND*%
X130429000Y-148050000D03*
D55*
%TO.P,U2,V*%
%TO.N,N/C*%
X130822700Y-148837400D03*
X130822700Y-148050000D03*
X130822700Y-147262600D03*
X130035300Y-148837400D03*
X130035300Y-148050000D03*
X130035300Y-147262600D03*
%TD*%
D20*
%TO.P,Y2,1,TRI_STATE_1*%
%TO.N,unconnected-(Y2-TRI_STATE-Pad1)*%
X132349200Y-133336000D03*
%TO.P,Y2,2,GND_2*%
%TO.N,GND*%
X132349200Y-135636000D03*
%TO.P,Y2,3,OUTPUT_3*%
%TO.N,Net-(U8-XI)*%
X134249200Y-135636000D03*
%TO.P,Y2,4,VDD_4*%
%TO.N,+3V3*%
X134249200Y-133336000D03*
%TD*%
D42*
%TO.P,C21,1*%
%TO.N,+3V3*%
X166462500Y-134626000D03*
%TO.P,C21,2*%
%TO.N,GND*%
X168537500Y-134626000D03*
%TD*%
%TO.P,C2,1*%
%TO.N,+5V*%
X154559000Y-143764000D03*
%TO.P,C2,2*%
%TO.N,GND*%
X156634000Y-143764000D03*
%TD*%
D21*
%TO.P,R16,1*%
%TO.N,I2C4_SDA*%
X171577000Y-133985000D03*
%TO.P,R16,2*%
%TO.N,+3V3*%
X171577000Y-131985000D03*
%TD*%
D56*
%TO.P,C32,1*%
%TO.N,Net-(U3-VCAP_2)*%
X150672800Y-114597000D03*
%TO.P,C32,2*%
%TO.N,GND*%
X150672800Y-112522000D03*
%TD*%
D57*
%TO.P,U3,1,PE2_1*%
%TO.N,ESP32_GP1*%
X132787000Y-113634000D03*
%TO.P,U3,2,PE3_2*%
%TO.N,ESP32_GP2*%
X132787000Y-114134000D03*
%TO.P,U3,3,PE4_3*%
%TO.N,ESP32_GP3*%
X132787000Y-114634000D03*
%TO.P,U3,4,PE5_4*%
%TO.N,ESP32_GP4*%
X132787000Y-115134000D03*
%TO.P,U3,5,PE6_5*%
%TO.N,ESP32_GP5*%
X132787000Y-115634000D03*
%TO.P,U3,6,VBAT_6*%
%TO.N,+3V3*%
X132787000Y-116134000D03*
%TO.P,U3,7,PC13_7*%
%TO.N,SDMMC_CD*%
X132787000Y-116634000D03*
%TO.P,U3,8,PC14_8*%
%TO.N,unconnected-(U3-PC14-Pad8)*%
X132787000Y-117134000D03*
%TO.P,U3,9,PC15_9*%
%TO.N,unconnected-(U3-PC15-Pad9)*%
X132787000Y-117634000D03*
%TO.P,U3,10,VSS_10*%
%TO.N,GND*%
X132787000Y-118134000D03*
%TO.P,U3,11,VDD_11*%
%TO.N,+3V3*%
X132787000Y-118634000D03*
%TO.P,U3,12,PH0_12*%
%TO.N,RCCCLK*%
X132787000Y-119134000D03*
%TO.P,U3,13,PH1_13*%
%TO.N,unconnected-(U3-PH1-Pad13)*%
X132787000Y-119634000D03*
%TO.P,U3,14,NRST_14*%
%TO.N,NRST*%
X132787000Y-120134000D03*
%TO.P,U3,15,PC0_15*%
%TO.N,HS_ULPI_STP*%
X132787000Y-120634000D03*
%TO.P,U3,16,PC1_16*%
%TO.N,USB3300_RST*%
X132787000Y-121134000D03*
%TO.P,U3,17,PC2_17*%
%TO.N,HS_ULPI_DIR*%
X132787000Y-121634000D03*
%TO.P,U3,18,PC3_18*%
%TO.N,HS_ULPI_NXT*%
X132787000Y-122134000D03*
%TO.P,U3,19,VSSA_19*%
%TO.N,GND*%
X132787000Y-122634000D03*
%TO.P,U3,20,VREF+_20*%
%TO.N,unconnected-(U3-VREF+-Pad20)*%
X132787000Y-123134000D03*
%TO.P,U3,21,VDDA_21*%
%TO.N,+3V3*%
X132787000Y-123634000D03*
%TO.P,U3,22,PA0_22*%
%TO.N,Net-(J12-Pin_2)*%
X132787000Y-124134000D03*
%TO.P,U3,23,PA1_23*%
%TO.N,VBAT_2*%
X132787000Y-124634000D03*
%TO.P,U3,24,PA2_24*%
%TO.N,unconnected-(U3-PA2-Pad24)*%
X132787000Y-125134000D03*
%TO.P,U3,25,PA3_25*%
%TO.N,HS_ULPI_DO*%
X132787000Y-125634000D03*
D58*
%TO.P,U3,26,VSS_26*%
%TO.N,GND*%
X134462000Y-127309000D03*
%TO.P,U3,27,VDD_27*%
%TO.N,+3V3*%
X134962000Y-127309000D03*
%TO.P,U3,28,PA4_28*%
%TO.N,HS_SOF*%
X135462000Y-127309000D03*
%TO.P,U3,29,PA5_29*%
%TO.N,HS_ULPI_CK*%
X135962000Y-127309000D03*
%TO.P,U3,30,PA6_30*%
%TO.N,F9P_GEOFENCE_STAT*%
X136462000Y-127309000D03*
%TO.P,U3,31,PA7_31*%
%TO.N,F9P_RTK_STAT*%
X136962000Y-127309000D03*
%TO.P,U3,32,PC4_32*%
%TO.N,F9P_ANT_DETECT*%
X137462000Y-127309000D03*
%TO.P,U3,33,PC5_33*%
%TO.N,F9P_ANT_OFF*%
X137962000Y-127309000D03*
%TO.P,U3,34,PB0_34*%
%TO.N,HS_ULPI_D1*%
X138462000Y-127309000D03*
%TO.P,U3,35,PB1_35*%
%TO.N,HS_ULPI_D2*%
X138962000Y-127309000D03*
%TO.P,U3,36,PB2_36*%
%TO.N,F9P_ANT_SHORT*%
X139462000Y-127309000D03*
%TO.P,U3,37,PE7_37*%
%TO.N,MAGNETO_SPARE1*%
X139962000Y-127309000D03*
%TO.P,U3,38,PE8_38*%
%TO.N,MAGNETO_SPARE2*%
X140462000Y-127309000D03*
%TO.P,U3,39,PE9_39*%
%TO.N,unconnected-(U3-PE9-Pad39)*%
X140962000Y-127309000D03*
%TO.P,U3,40,PE10_40*%
%TO.N,F9P_TIMEP*%
X141462000Y-127309000D03*
%TO.P,U3,41,PE11_41*%
%TO.N,F9P_EXTINT*%
X141962000Y-127309000D03*
%TO.P,U3,42,PE12_42*%
%TO.N,F9P_SAFEBOOT_N*%
X142462000Y-127309000D03*
%TO.P,U3,43,PE13_43*%
%TO.N,F9P_RESET_N*%
X142962000Y-127309000D03*
%TO.P,U3,44,PE14_44*%
%TO.N,F9P_D_SEL*%
X143462000Y-127309000D03*
%TO.P,U3,45,PE15_45*%
%TO.N,F9P_TX_READY*%
X143962000Y-127309000D03*
%TO.P,U3,46,PB10_46*%
%TO.N,HS_ULPI_D3*%
X144462000Y-127309000D03*
%TO.P,U3,47,PB11_47*%
%TO.N,HS_ULPI_D4*%
X144962000Y-127309000D03*
%TO.P,U3,48,VCAP_1_48*%
%TO.N,Net-(U3-VCAP_1)*%
X145462000Y-127309000D03*
%TO.P,U3,49,VSS_49*%
%TO.N,GND*%
X145962000Y-127309000D03*
%TO.P,U3,50,VDD_50*%
%TO.N,+3V3*%
X146462000Y-127309000D03*
D57*
%TO.P,U3,51,PB12_51*%
%TO.N,HS_ULPI_D5*%
X148137000Y-125634000D03*
%TO.P,U3,52,PB13_52*%
%TO.N,HS_ULPI_D6*%
X148137000Y-125134000D03*
%TO.P,U3,53,PB14_53*%
%TO.N,SX1262_SPI2_MISO*%
X148137000Y-124634000D03*
%TO.P,U3,54,PB15_54*%
%TO.N,SX1262_SPI2_MOSI*%
X148137000Y-124134000D03*
%TO.P,U3,55,PD8_55*%
%TO.N,PD8{slash}DEBUG_TX*%
X148137000Y-123634000D03*
%TO.P,U3,56,PD9_56*%
%TO.N,PD9{slash}DEBUG_RX*%
X148137000Y-123134000D03*
%TO.P,U3,57,PD10_57*%
%TO.N,nPGOOD*%
X148137000Y-122634000D03*
%TO.P,U3,58,PD11_58*%
%TO.N,nCHG*%
X148137000Y-122134000D03*
%TO.P,U3,59,PD12_59*%
%TO.N,I2C4_SCK*%
X148137000Y-121634000D03*
%TO.P,U3,60,PD13_60*%
%TO.N,I2C4_SDA*%
X148137000Y-121134000D03*
%TO.P,U3,61,PD14_61*%
%TO.N,LSM6DSOX_INT1*%
X148137000Y-120634000D03*
%TO.P,U3,62,PD15_62*%
%TO.N,LSM6DSOX_INT2*%
X148137000Y-120134000D03*
%TO.P,U3,63,PC6_63*%
%TO.N,SX1262_RXEN*%
X148137000Y-119634000D03*
%TO.P,U3,64,PC7_64*%
%TO.N,SX1262_TXEN*%
X148137000Y-119134000D03*
%TO.P,U3,65,PC8_65*%
%TO.N,SDMMC_D0*%
X148137000Y-118634000D03*
%TO.P,U3,66,PC9_66*%
%TO.N,SDMMC_D1*%
X148137000Y-118134000D03*
%TO.P,U3,67,PA8_67*%
%TO.N,UART7_RX_F9P_TXD2*%
X148137000Y-117634000D03*
%TO.P,U3,68,PA9_68*%
%TO.N,SX1262_SPI2_SCK*%
X148137000Y-117134000D03*
%TO.P,U3,69,PA10_69*%
%TO.N,SX1262_SPI2_CS*%
X148137000Y-116634000D03*
%TO.P,U3,70,PA11_70*%
%TO.N,SX1262_SPI2_RST*%
X148137000Y-116134000D03*
%TO.P,U3,71,PA12_71*%
%TO.N,SX1262_SPI2_BUSY*%
X148137000Y-115634000D03*
%TO.P,U3,72,PA13_72*%
%TO.N,PA13{slash}SWDIO*%
X148137000Y-115134000D03*
%TO.P,U3,73,VCAP_2_73*%
%TO.N,Net-(U3-VCAP_2)*%
X148137000Y-114634000D03*
%TO.P,U3,74,VSS_74*%
%TO.N,GND*%
X148137000Y-114134000D03*
%TO.P,U3,75,VDD_75*%
%TO.N,+3V3*%
X148137000Y-113634000D03*
D58*
%TO.P,U3,76,PA14_76*%
%TO.N,PA14{slash}SWCLK*%
X146462000Y-111959000D03*
%TO.P,U3,77,PA15_77*%
%TO.N,UART7_TX_F9P_RXD2*%
X145962000Y-111959000D03*
%TO.P,U3,78,PC10_78*%
%TO.N,SDMMC_D2*%
X145462000Y-111959000D03*
%TO.P,U3,79,PC11_79*%
%TO.N,SDMMC_D3*%
X144962000Y-111959000D03*
%TO.P,U3,80,PC12_80*%
%TO.N,SDMMC_CK*%
X144462000Y-111959000D03*
%TO.P,U3,81,PD0_81*%
%TO.N,BQ24975_nCE*%
X143962000Y-111959000D03*
%TO.P,U3,82,PD1_82*%
%TO.N,unconnected-(U3-PD1-Pad82)*%
X143462000Y-111959000D03*
%TO.P,U3,83,PD2_83*%
%TO.N,SDMMC_CMD*%
X142962000Y-111959000D03*
%TO.P,U3,84,PD3_84*%
%TO.N,BQ24975_EN1*%
X142462000Y-111959000D03*
%TO.P,U3,85,PD4_85*%
%TO.N,BQ24975_EN2*%
X141962000Y-111959000D03*
%TO.P,U3,86,PD5_86*%
%TO.N,PD5_LD3*%
X141462000Y-111959000D03*
%TO.P,U3,87,PD6_87*%
%TO.N,PD6_LD4*%
X140962000Y-111959000D03*
%TO.P,U3,88,PD7_88*%
%TO.N,SYSOFF*%
X140462000Y-111959000D03*
%TO.P,U3,89,PB3_89*%
%TO.N,PB3{slash}SWO*%
X139962000Y-111959000D03*
%TO.P,U3,90,PB4_90*%
%TO.N,unconnected-(U3-PB4-Pad90)*%
X139462000Y-111959000D03*
%TO.P,U3,91,PB5_91*%
%TO.N,HS_ULPI_D7*%
X138962000Y-111959000D03*
%TO.P,U3,92,PB6_92*%
%TO.N,SX1262_SPI2_DIO2*%
X138462000Y-111959000D03*
%TO.P,U3,93,PB7_93*%
%TO.N,SX1262_SPI2_DIO1*%
X137962000Y-111959000D03*
%TO.P,U3,94,BOOT0_94*%
%TO.N,BOOT0*%
X137462000Y-111959000D03*
%TO.P,U3,95,PB8_95*%
%TO.N,UART5_RX_F9P_TXD*%
X136962000Y-111959000D03*
%TO.P,U3,96,PB9_96*%
%TO.N,UART5_TX_F9P_RXD*%
X136462000Y-111959000D03*
%TO.P,U3,97,PE0_97*%
%TO.N,ESP32_TX*%
X135962000Y-111959000D03*
%TO.P,U3,98,PE1_98*%
%TO.N,ESP32_RX*%
X135462000Y-111959000D03*
%TO.P,U3,99,VSS_99*%
%TO.N,GND*%
X134962000Y-111959000D03*
%TO.P,U3,100,VDD_100*%
%TO.N,+3V3*%
X134462000Y-111959000D03*
%TD*%
D59*
%TO.P,U9,1,I/O1_1*%
%TO.N,USB_D2_P*%
X139385000Y-143123500D03*
%TO.P,U9,2,GND_2*%
%TO.N,GND*%
X140335000Y-143123500D03*
%TO.P,U9,3,I/O2_3*%
%TO.N,USB_D2_N*%
X141285000Y-143123500D03*
%TO.P,U9,4,I/O2_4*%
%TO.N,USB_D_N*%
X141285000Y-140848500D03*
%TO.P,U9,5,VBUS_5*%
%TO.N,+3V3*%
X140335000Y-140848500D03*
%TO.P,U9,6,I/O1_6*%
%TO.N,USB_D_P*%
X139385000Y-140848500D03*
%TD*%
D26*
%TO.P,LD1,1,K_1*%
%TO.N,nPGOOD*%
X148844000Y-149080000D03*
%TO.P,LD1,2,A_2*%
%TO.N,Net-(LD1-A)*%
X148844000Y-151130000D03*
%TD*%
D44*
%TO.P,C7,1*%
%TO.N,Net-(J5-In)*%
X173736000Y-112522000D03*
%TO.P,C7,2*%
%TO.N,/ZED-F9P-05B/GANT*%
X173736000Y-110797000D03*
%TD*%
D35*
%TO.P,R5,1*%
%TO.N,Net-(U1-TMR)*%
X150749000Y-144304000D03*
%TO.P,R5,2*%
%TO.N,GND*%
X150749000Y-146304000D03*
%TD*%
D22*
%TO.P,R13,1*%
%TO.N,Net-(U1-TS)*%
X153416000Y-139827000D03*
%TO.P,R13,2*%
%TO.N,GND*%
X155416000Y-139827000D03*
%TD*%
D13*
%TO.P,J7,1,Pin_1_1*%
%TO.N,I2C4_SDA*%
X155194000Y-129540000D03*
D14*
%TO.P,J7,2,Pin_2_2*%
%TO.N,I2C4_SCK*%
X157734000Y-129540000D03*
%TO.P,J7,3,Pin_3_3*%
%TO.N,+3V3*%
X160274000Y-129540000D03*
%TO.P,J7,4,Pin_4_4*%
%TO.N,GND*%
X162814000Y-129540000D03*
%TD*%
D35*
%TO.P,R23,1*%
%TO.N,VBAT_2*%
X162458400Y-132416800D03*
%TO.P,R23,2*%
%TO.N,GND*%
X162458400Y-134416800D03*
%TD*%
D60*
%TO.P,J5,1,In_1*%
%TO.N,Net-(J5-In)*%
X171440000Y-122926000D03*
D61*
%TO.P,J5,2,Ext_2*%
%TO.N,GND*%
X168890000Y-125476000D03*
X173990000Y-125476000D03*
X168890000Y-120376000D03*
X173990000Y-120376000D03*
%TD*%
D56*
%TO.P,C27,1*%
%TO.N,+3V3*%
X144780000Y-134874000D03*
%TO.P,C27,2*%
%TO.N,GND*%
X144780000Y-132799000D03*
%TD*%
D17*
%TO.P,C1,1*%
%TO.N,VBUS*%
X146685000Y-142451000D03*
%TO.P,C1,2*%
%TO.N,GND*%
X146685000Y-144526000D03*
%TD*%
D22*
%TO.P,R20,1*%
%TO.N,Net-(LD3-A)*%
X160798000Y-123647200D03*
%TO.P,R20,2*%
%TO.N,+3V3*%
X162798000Y-123647200D03*
%TD*%
D56*
%TO.P,C24,1*%
%TO.N,GND*%
X151638000Y-106723000D03*
%TO.P,C24,2*%
%TO.N,+3V3*%
X151638000Y-104648000D03*
%TD*%
D13*
%TO.P,J10,1,Pin_1_1*%
%TO.N,+3V3*%
X119126000Y-136398000D03*
D14*
%TO.P,J10,2,Pin_2_2*%
%TO.N,BOOT0*%
X121666000Y-136398000D03*
%TD*%
D22*
%TO.P,R3,1*%
%TO.N,Net-(LD2-A)*%
X156210000Y-150749000D03*
%TO.P,R3,2*%
%TO.N,+5V*%
X158210000Y-150749000D03*
%TD*%
%TO.P,R15,1*%
%TO.N,GND*%
X113824000Y-135890000D03*
%TO.P,R15,2*%
%TO.N,BOOT0*%
X115824000Y-135890000D03*
%TD*%
D21*
%TO.P,R10,1*%
%TO.N,VBUS*%
X135890000Y-143240000D03*
%TO.P,R10,2*%
%TO.N,Net-(U8-VBUS)*%
X135890000Y-141240000D03*
%TD*%
D41*
%TO.P,C30,1*%
%TO.N,+3V3*%
X134663000Y-131318000D03*
%TO.P,C30,2*%
%TO.N,GND*%
X132588000Y-131318000D03*
%TD*%
%TO.P,C12,1*%
%TO.N,+3V3*%
X130446600Y-124663200D03*
%TO.P,C12,2*%
%TO.N,GND*%
X128371600Y-124663200D03*
%TD*%
%TO.P,C8,1*%
%TO.N,+3V3*%
X131339500Y-128016000D03*
%TO.P,C8,2*%
%TO.N,GND*%
X129264500Y-128016000D03*
%TD*%
D35*
%TO.P,R4,1*%
%TO.N,Net-(U1-ILIM)*%
X148844000Y-144304000D03*
%TO.P,R4,2*%
%TO.N,GND*%
X148844000Y-146304000D03*
%TD*%
D17*
%TO.P,C25,1*%
%TO.N,+3V3*%
X143256000Y-139403000D03*
%TO.P,C25,2*%
%TO.N,GND*%
X143256000Y-141478000D03*
%TD*%
D41*
%TO.P,C26,1*%
%TO.N,+3V3*%
X130395800Y-121310400D03*
%TO.P,C26,2*%
%TO.N,GND*%
X128320800Y-121310400D03*
%TD*%
D22*
%TO.P,R9,1*%
%TO.N,GND*%
X130080000Y-140462000D03*
%TO.P,R9,2*%
%TO.N,Net-(U8-RBIAS)*%
X132080000Y-140462000D03*
%TD*%
D42*
%TO.P,C3,1*%
%TO.N,VBSW*%
X153289000Y-137795000D03*
%TO.P,C3,2*%
%TO.N,GND*%
X155364000Y-137795000D03*
%TD*%
D62*
%TO.P,D1,1,K_1*%
%TO.N,Net-(D1-K)*%
X120524000Y-148050000D03*
%TO.P,D1,2,A_2*%
%TO.N,Net-(D1-A)*%
X120524000Y-144750000D03*
%TD*%
D63*
%TO.P,U6,1,GND_1*%
%TO.N,GND*%
X123952000Y-114382000D03*
%TO.P,U6,2,GND_2*%
X121412000Y-114382000D03*
%TO.P,U6,3,RXEN_3*%
%TO.N,SX1262_RXEN*%
X118872000Y-114382000D03*
%TO.P,U6,4,TXEN_4*%
%TO.N,SX1262_TXEN*%
X116332000Y-114382000D03*
%TO.P,U6,5,DIO2_5*%
%TO.N,SX1262_SPI2_DIO2*%
X113792000Y-114382000D03*
%TO.P,U6,6,DIO1_6*%
%TO.N,SX1262_SPI2_DIO1*%
X111252000Y-114382000D03*
%TO.P,U6,7,GND_7*%
%TO.N,GND*%
X108712000Y-114382000D03*
%TO.P,U6,8,3V3_8*%
%TO.N,+3V3*%
X106172000Y-114382000D03*
%TO.P,U6,9,BUSY_9*%
%TO.N,SX1262_SPI2_BUSY*%
X106172000Y-130982000D03*
%TO.P,U6,10,RESET_10*%
%TO.N,SX1262_SPI2_RST*%
X108712000Y-130982000D03*
%TO.P,U6,11,MISO_11*%
%TO.N,SX1262_SPI2_MISO*%
X111252000Y-130982000D03*
%TO.P,U6,12,MOSI_12*%
%TO.N,SX1262_SPI2_MOSI*%
X113792000Y-130982000D03*
%TO.P,U6,13,CLK_13*%
%TO.N,SX1262_SPI2_SCK*%
X116332000Y-130982000D03*
%TO.P,U6,14,CS_14*%
%TO.N,SX1262_SPI2_CS*%
X118872000Y-130982000D03*
%TO.P,U6,15,GND_15*%
%TO.N,GND*%
X121412000Y-130982000D03*
%TO.P,U6,16,ANT_16*%
%TO.N,unconnected-(U6-ANT-Pad16)*%
X123952000Y-130982000D03*
%TD*%
D64*
%TO.N,Net-(J12-Pin_2)*%
X134366000Y-124358400D03*
%TO.N,GND*%
X166370000Y-126492000D03*
%TO.N,PD8{slash}DEBUG_TX*%
X152400000Y-108077000D03*
%TO.N,PD9{slash}DEBUG_RX*%
X152527000Y-109474000D03*
%TO.N,PA14{slash}SWCLK*%
X151511000Y-98933000D03*
%TO.N,+5V*%
X127254000Y-146050000D03*
%TO.N,GND*%
X126746000Y-140462000D03*
X127762000Y-141732000D03*
X127762000Y-142494000D03*
X127762000Y-143256000D03*
%TO.N,+3V3*%
X122936000Y-141224000D03*
%TO.N,GND*%
X166370000Y-98298000D03*
X127101600Y-122529600D03*
X135585200Y-132537200D03*
X145592800Y-125984000D03*
X156591000Y-139827000D03*
X148691600Y-129286000D03*
X121412000Y-128117600D03*
X126746000Y-143256000D03*
X171958000Y-109474000D03*
X146253200Y-133604000D03*
X140716000Y-149352000D03*
X171574000Y-99698000D03*
X162238000Y-102616000D03*
X127863600Y-115417600D03*
X131318000Y-122428000D03*
X127000000Y-124663200D03*
X166370000Y-106934000D03*
X163626800Y-134416800D03*
X137668000Y-107188000D03*
X142025000Y-99110800D03*
X168537500Y-136025500D03*
X137688000Y-137394000D03*
X162306000Y-110998000D03*
X156311600Y-145288000D03*
X138938000Y-136144000D03*
X133858000Y-95504000D03*
X134518400Y-110490000D03*
X159207200Y-144475200D03*
X126746000Y-142494000D03*
X133608200Y-127309000D03*
X149479000Y-139319000D03*
X131318000Y-135255000D03*
X127762000Y-140462000D03*
X136906000Y-144526000D03*
X130251200Y-108000800D03*
X127762000Y-128016000D03*
X159207200Y-145186400D03*
X152908000Y-101092000D03*
X146685000Y-146304000D03*
X162306000Y-98298000D03*
X157988000Y-110998000D03*
X157988000Y-102616000D03*
X127254000Y-140970000D03*
X156591000Y-141605000D03*
X127455000Y-150061000D03*
X148082000Y-136779000D03*
X157988000Y-106934000D03*
X152400000Y-147726400D03*
X146608800Y-113385600D03*
X108712000Y-116840000D03*
X112522000Y-135890000D03*
X131064000Y-137922000D03*
X166400000Y-130326000D03*
X158597600Y-144830800D03*
X154838400Y-112776000D03*
X170180000Y-113284000D03*
X157988000Y-98298000D03*
X162306000Y-106934000D03*
X144653000Y-141478000D03*
X144272000Y-144526000D03*
X126746000Y-141478000D03*
X143764000Y-94234000D03*
X166370000Y-110998000D03*
X131216400Y-131318000D03*
X149402800Y-112522000D03*
X145669000Y-113411000D03*
X126695200Y-113131600D03*
X143465000Y-107569000D03*
X166370000Y-102616000D03*
%TO.N,LSM6DSOX_INT1*%
X155397200Y-120904000D03*
X150266400Y-120091200D03*
%TO.N,+3V3*%
X133096000Y-145796000D03*
X152908000Y-104648000D03*
X134251200Y-123494800D03*
X133096000Y-146558000D03*
X115824000Y-147320000D03*
X137922000Y-140843000D03*
X142029000Y-139403000D03*
X135534400Y-138226800D03*
X133858000Y-147320000D03*
X115824000Y-144526000D03*
X132232400Y-111963200D03*
X134315200Y-118364000D03*
X155854400Y-116027200D03*
X106172000Y-116840000D03*
X135026400Y-130200400D03*
X166878000Y-117348000D03*
X170129200Y-136906000D03*
X141732000Y-133807200D03*
X130149600Y-115519200D03*
X134112000Y-145796000D03*
X134366000Y-146558000D03*
X122174000Y-141732000D03*
X133096000Y-147320000D03*
X146964400Y-126238000D03*
X122174000Y-140970000D03*
X134620000Y-145288000D03*
X164388800Y-121615200D03*
X168783000Y-130048000D03*
X169700000Y-132676000D03*
X130556000Y-123088400D03*
X133731000Y-146685000D03*
X115824000Y-146304000D03*
X135546000Y-134394000D03*
X133908800Y-128473200D03*
X164388800Y-123291600D03*
X147320000Y-112979200D03*
X134620000Y-147320000D03*
X134874000Y-146050000D03*
X122914500Y-142472500D03*
X147472400Y-134213600D03*
X152908000Y-102870000D03*
X165250000Y-134626000D03*
X140716000Y-93980000D03*
%TO.N,LSM6DSOX_INT2*%
X155041600Y-120142000D03*
X149809200Y-119430800D03*
%TO.N,I2C4_SCK*%
X151942800Y-123240800D03*
X168148000Y-129032000D03*
X149910800Y-121818400D03*
X151688800Y-127812800D03*
%TO.N,I2C4_SDA*%
X152552400Y-122529600D03*
X166497000Y-129413000D03*
X150493600Y-120904000D03*
X151739600Y-128727200D03*
%TO.N,/Power/VBAT*%
X161645600Y-141020800D03*
X160731200Y-135534400D03*
%TO.N,VBAT_2*%
X134162800Y-125679200D03*
X155803600Y-132791200D03*
X138836400Y-130759200D03*
X143814800Y-129032000D03*
%TO.N,USB3300_RST*%
X141986000Y-138480800D03*
X135001000Y-121158000D03*
%TO.N,HS_ULPI_NXT*%
X135763000Y-122326400D03*
X142595600Y-137718800D03*
%TO.N,HS_ULPI_DIR*%
X143459200Y-137668000D03*
X137160000Y-121666000D03*
%TO.N,HS_ULPI_STP*%
X136271000Y-121056400D03*
X143408400Y-136702800D03*
%TO.N,HS_ULPI_CK*%
X144170400Y-136398000D03*
X136550400Y-123545600D03*
%TO.N,Net-(C29-Pad1)*%
X142316200Y-134747000D03*
X135382000Y-135229600D03*
X135077200Y-137261600D03*
%TO.N,HS_ULPI_D7*%
X140360400Y-113690400D03*
X145846800Y-131826000D03*
%TO.N,nCHG*%
X151485600Y-135839200D03*
X155067000Y-147574000D03*
X151282400Y-123748800D03*
X147955000Y-135128000D03*
X149860000Y-122732800D03*
%TO.N,SDMMC_CMD*%
X137972800Y-113334800D03*
X134359600Y-99879200D03*
%TO.N,SDMMC_D0*%
X145084800Y-118668800D03*
X135280400Y-100634800D03*
%TO.N,SDMMC_D1*%
X143764000Y-110363000D03*
X146050000Y-117754400D03*
%TO.N,SDMMC_CD*%
X134670800Y-113944400D03*
X130657600Y-102108000D03*
%TO.N,F9P_SAFEBOOT_N*%
X141173200Y-122123200D03*
X162763200Y-118770400D03*
%TO.N,F9P_ANT_DETECT*%
X139649200Y-124358400D03*
X171958000Y-108508800D03*
%TO.N,F9P_ANT_OFF*%
X171043600Y-107391200D03*
X139242800Y-120853200D03*
%TO.N,F9P_ANT_SHORT*%
X139852400Y-122682000D03*
X172567600Y-106273600D03*
%TO.N,F9P_GEOFENCE_STAT*%
X137185400Y-120624600D03*
X132461000Y-88900000D03*
%TO.N,F9P_RTK_STAT*%
X137820400Y-124002800D03*
X133477000Y-89662000D03*
%TO.N,UART5_RX_F9P_TXD*%
X146100800Y-114096800D03*
X154686000Y-114046000D03*
%TO.N,UART5_TX_F9P_RXD*%
X156768800Y-113284000D03*
X145542000Y-115011200D03*
%TO.N,F9P_TX_READY*%
X160477200Y-116281200D03*
X139852400Y-119380000D03*
%TO.N,F9P_D_SEL*%
X140462000Y-120040400D03*
X161206000Y-116873200D03*
%TO.N,F9P_RESET_N*%
X157988000Y-118618000D03*
X162306000Y-117551200D03*
X140919200Y-120751600D03*
%TO.N,F9P_EXTINT*%
X141681200Y-122885200D03*
X164846000Y-118821200D03*
%TO.N,F9P_TIMEP*%
X139293600Y-119989600D03*
X167792400Y-116484400D03*
%TO.N,PA13{slash}SWDIO*%
X150825200Y-111099600D03*
X147472400Y-110896400D03*
%TO.N,NRST*%
X126796800Y-115112800D03*
X135991600Y-101346000D03*
X128422400Y-101295200D03*
%TO.N,PB3{slash}SWO*%
X139344400Y-108458000D03*
%TO.N,HS_SOF*%
X132943600Y-128320800D03*
%TO.N,Net-(D1-K)*%
X124714000Y-149860000D03*
X133604000Y-148082000D03*
%TO.N,PD6_LD4*%
X141020800Y-108508800D03*
X156972000Y-115874800D03*
%TO.N,PD5_LD3*%
X154076400Y-113233200D03*
X153162000Y-121615200D03*
X155143200Y-123647200D03*
X142392400Y-110337600D03*
%TO.N,+5V*%
X146812000Y-138811000D03*
X146050000Y-139569000D03*
X145415000Y-138811000D03*
X146812000Y-139569000D03*
X150749000Y-141605000D03*
X127889000Y-145415000D03*
X146050000Y-138811000D03*
X145415000Y-139573000D03*
%TO.N,SYSOFF*%
X154584400Y-134721600D03*
X158953200Y-116382800D03*
X140157200Y-108458000D03*
X154178000Y-147066000D03*
%TO.N,BQ24975_nCE*%
X143967200Y-113487200D03*
X154432000Y-116382800D03*
%TO.N,BQ24975_EN2*%
X146558000Y-123494800D03*
X149910800Y-124815600D03*
X142544800Y-118618000D03*
X141376400Y-113588800D03*
%TO.N,BQ24975_EN1*%
X148844000Y-132537200D03*
X142494000Y-113411000D03*
%TO.N,nPGOOD*%
X150876000Y-136906000D03*
X148844000Y-147574000D03*
X146812000Y-122631200D03*
X150774400Y-124409200D03*
X148209000Y-135890000D03*
%TO.N,Net-(U1-ILIM)*%
X147320000Y-141097000D03*
X148844000Y-143002000D03*
%TO.N,VBUS*%
X143256000Y-144018000D03*
X138176000Y-144272000D03*
%TO.N,Net-(U2-EN)*%
X127801998Y-148550002D03*
X130556000Y-151130000D03*
%TO.N,ESP32_TX*%
X126034800Y-106172000D03*
%TO.N,MAGNETO_SPARE1*%
X140411200Y-125984000D03*
%TO.N,MAGNETO_SPARE2*%
X142748000Y-128778000D03*
%TO.N,Net-(J1-CC1)*%
X139446000Y-147066000D03*
%TO.N,USB_D2_P*%
X139954000Y-144526000D03*
X141478000Y-144526000D03*
%TO.N,Net-(J1-CC2)*%
X141986000Y-147066000D03*
%TO.N,Net-(U3-VCAP_1)*%
X147370800Y-128727200D03*
%TO.N,SX1262_SPI2_MISO*%
X136601200Y-119938800D03*
X111252000Y-126796800D03*
%TO.N,SX1262_SPI2_MOSI*%
X113944400Y-125780800D03*
X135585200Y-119227600D03*
%TO.N,SX1262_RXEN*%
X136042400Y-118567200D03*
X118872000Y-119176800D03*
%TO.N,SX1262_TXEN*%
X116332000Y-117805200D03*
X136601200Y-117856000D03*
%TO.N,SX1262_SPI2_SCK*%
X135229600Y-118160800D03*
X116382800Y-124104400D03*
%TO.N,SX1262_SPI2_CS*%
X118922800Y-122275600D03*
X135229600Y-117348000D03*
%TO.N,SX1262_SPI2_RST*%
X135229600Y-116484400D03*
X108762800Y-124714000D03*
%TO.N,SX1262_SPI2_BUSY*%
X135229600Y-115620800D03*
X106172000Y-123901200D03*
%TO.N,SX1262_SPI2_DIO2*%
X109423200Y-105816400D03*
X125222000Y-102971600D03*
%TO.N,SX1262_SPI2_DIO1*%
X125171200Y-103886000D03*
X106934000Y-104597200D03*
%TO.N,BOOT0*%
X117551200Y-119583200D03*
X129032000Y-107289600D03*
%TD*%
%TO.N,F9P_GEOFENCE_STAT*%
D65*
X164490400Y-94682399D02*
X164506001Y-94698000D01*
X135890000Y-89154000D02*
X160070800Y-89154000D01*
X160070800Y-89154000D02*
X164490400Y-93573600D01*
X164490400Y-93573600D02*
X164490400Y-94682399D01*
X135636000Y-88900000D02*
X135890000Y-89154000D01*
X132461000Y-88900000D02*
X135636000Y-88900000D01*
%TO.N,F9P_RTK_STAT*%
X163423600Y-93522800D02*
X163423600Y-94680400D01*
X163423600Y-94680400D02*
X163406000Y-94698000D01*
X159562800Y-89662000D02*
X163423600Y-93522800D01*
X133477000Y-89662000D02*
X159562800Y-89662000D01*
%TO.N,Net-(J12-Pin_2)*%
X134141600Y-124134000D02*
X134366000Y-124358400D01*
X132787000Y-124134000D02*
X134141600Y-124134000D01*
%TO.N,+3V3*%
X134251200Y-123634000D02*
X134251200Y-123494800D01*
X134264400Y-123647200D02*
X134251200Y-123634000D01*
X134112000Y-123634000D02*
X134251200Y-123494800D01*
X132787000Y-123634000D02*
X134112000Y-123634000D01*
%TO.N,VBAT_2*%
X133727200Y-124634000D02*
X132787000Y-124634000D01*
X133908800Y-124815600D02*
X133727200Y-124634000D01*
X134162800Y-125272800D02*
X133908800Y-125018800D01*
X133908800Y-125018800D02*
X133908800Y-124815600D01*
X134162800Y-125679200D02*
X134162800Y-125272800D01*
%TO.N,UART5_RX_F9P_TXD*%
X155238000Y-114598000D02*
X155706001Y-114598000D01*
X154686000Y-114046000D02*
X155238000Y-114598000D01*
%TO.N,UART7_RX_F9P_TXD2*%
X155661998Y-94742000D02*
X155705998Y-94698000D01*
X154686000Y-94742000D02*
X155661998Y-94742000D01*
X152654000Y-96774000D02*
X154686000Y-94742000D01*
X152654000Y-99568000D02*
X152654000Y-96774000D01*
X151003000Y-100076000D02*
X152146000Y-100076000D01*
X152527000Y-111125000D02*
X150368000Y-108966000D01*
X150368000Y-108966000D02*
X150368000Y-100711000D01*
X152527000Y-115443000D02*
X152527000Y-111125000D01*
X150368000Y-100711000D02*
X151003000Y-100076000D01*
X150336000Y-117634000D02*
X152527000Y-115443000D01*
X152146000Y-100076000D02*
X152654000Y-99568000D01*
X148137000Y-117634000D02*
X150336000Y-117634000D01*
%TO.N,PA14{slash}SWCLK*%
X150876000Y-98933000D02*
X149733000Y-100076000D01*
X151511000Y-98933000D02*
X150876000Y-98933000D01*
X147955000Y-100076000D02*
X149733000Y-100076000D01*
X147421600Y-100609400D02*
X147955000Y-100076000D01*
X149733000Y-110236000D02*
X147955000Y-110236000D01*
X150114000Y-110998000D02*
X150114000Y-110617000D01*
X150114000Y-110617000D02*
X149733000Y-110236000D01*
X147955000Y-110236000D02*
X147421600Y-109702600D01*
X149199600Y-111912400D02*
X150114000Y-110998000D01*
X146462000Y-111959000D02*
X146508600Y-111912400D01*
X146508600Y-111912400D02*
X149199600Y-111912400D01*
X147421600Y-109702600D02*
X147421600Y-100609400D01*
%TO.N,PA13{slash}SWDIO*%
X146958000Y-109874000D02*
X146958000Y-99720400D01*
X146958000Y-99720400D02*
X147872400Y-98806000D01*
X147472400Y-110388400D02*
X146958000Y-109874000D01*
X147872400Y-98806000D02*
X148844000Y-98806000D01*
X147472400Y-110896400D02*
X147472400Y-110388400D01*
%TO.N,PD8{slash}DEBUG_TX*%
X153416000Y-109093000D02*
X152400000Y-108077000D01*
X153416000Y-109347000D02*
X153416000Y-109093000D01*
X153416000Y-115824000D02*
X153416000Y-109347000D01*
X153035000Y-116205000D02*
X153416000Y-115824000D01*
X153035000Y-116713000D02*
X153035000Y-116205000D01*
X152495200Y-121672400D02*
X152495200Y-117252800D01*
X152495200Y-117252800D02*
X153035000Y-116713000D01*
X149301200Y-123901200D02*
X150266400Y-123901200D01*
X150266400Y-123901200D02*
X152495200Y-121672400D01*
X148150200Y-123647200D02*
X149047200Y-123647200D01*
X149047200Y-123647200D02*
X149301200Y-123901200D01*
X148137000Y-123634000D02*
X148150200Y-123647200D01*
%TO.N,PD9{slash}DEBUG_RX*%
X153016000Y-109963000D02*
X152527000Y-109474000D01*
X153016000Y-111868000D02*
X153016000Y-109963000D01*
X153016000Y-115589000D02*
X153016000Y-111868000D01*
X152527000Y-116078000D02*
X153016000Y-115589000D01*
X150063200Y-123494800D02*
X152095200Y-121462800D01*
X149504400Y-123494800D02*
X150063200Y-123494800D01*
X152095200Y-117017800D02*
X152527000Y-116586000D01*
X149148800Y-123139200D02*
X149504400Y-123494800D01*
X152527000Y-116586000D02*
X152527000Y-116078000D01*
X148142200Y-123139200D02*
X149148800Y-123139200D01*
X148137000Y-123134000D02*
X148142200Y-123139200D01*
X152095200Y-121462800D02*
X152095200Y-117017800D01*
%TO.N,PA13{slash}SWDIO*%
X148166600Y-115163600D02*
X148137000Y-115134000D01*
X149656800Y-115570000D02*
X149250400Y-115163600D01*
X151638000Y-115570000D02*
X149656800Y-115570000D01*
X152019000Y-111683800D02*
X152019000Y-115189000D01*
X152019000Y-115189000D02*
X151638000Y-115570000D01*
X149250400Y-115163600D02*
X148166600Y-115163600D01*
X151079200Y-111353600D02*
X151688800Y-111353600D01*
X150825200Y-111099600D02*
X151079200Y-111353600D01*
X151688800Y-111353600D02*
X152019000Y-111683800D01*
%TO.N,PD5_LD3*%
X153162000Y-117259100D02*
X153162000Y-121615200D01*
X153543000Y-116878100D02*
X153162000Y-117259100D01*
X153543000Y-116332000D02*
X153543000Y-116878100D01*
X154033136Y-115841864D02*
X153543000Y-116332000D01*
X154033136Y-113276464D02*
X154033136Y-115841864D01*
X154076400Y-113233200D02*
X154033136Y-113276464D01*
%TO.N,UART7_TX_F9P_RXD2*%
X156845000Y-94658998D02*
X156805998Y-94698000D01*
X156845000Y-93091000D02*
X156845000Y-94658998D01*
X156210000Y-92456000D02*
X156845000Y-93091000D01*
X153797000Y-92456000D02*
X156210000Y-92456000D01*
X152273000Y-93980000D02*
X153797000Y-92456000D01*
X152273000Y-95377000D02*
X152273000Y-93980000D01*
X150114000Y-97536000D02*
X152273000Y-95377000D01*
X147701000Y-97536000D02*
X150114000Y-97536000D01*
X146304000Y-106807000D02*
X146558000Y-106553000D01*
X146558000Y-98679000D02*
X147701000Y-97536000D01*
X146304000Y-110490000D02*
X146304000Y-106807000D01*
X145962000Y-110832000D02*
X146304000Y-110490000D01*
X146558000Y-106553000D02*
X146558000Y-98679000D01*
X145962000Y-111959000D02*
X145962000Y-110832000D01*
%TO.N,SDMMC_D2*%
X145462000Y-110570000D02*
X145462000Y-111959000D01*
X145796000Y-110236000D02*
X145462000Y-110570000D01*
X145796000Y-106743500D02*
X145796000Y-110236000D01*
X146050000Y-106489500D02*
X145796000Y-106743500D01*
X147193000Y-93243400D02*
X147193000Y-97155000D01*
X147193000Y-97155000D02*
X146050000Y-98298000D01*
X139509400Y-92200200D02*
X146149800Y-92200200D01*
X146050000Y-98298000D02*
X146050000Y-106489500D01*
X136499600Y-95210000D02*
X139509400Y-92200200D01*
X136499600Y-97939600D02*
X136499600Y-95210000D01*
X146149800Y-92200200D02*
X147193000Y-93243400D01*
X136525000Y-97965000D02*
X136499600Y-97939600D01*
%TO.N,SDMMC_D3*%
X137668000Y-98322000D02*
X137625000Y-98365000D01*
X137668000Y-95504000D02*
X137668000Y-98322000D01*
X140342000Y-92830000D02*
X137668000Y-95504000D01*
X146176400Y-92830000D02*
X140342000Y-92830000D01*
X145288000Y-106680000D02*
X145542000Y-106426000D01*
X145288000Y-110109000D02*
X145288000Y-106680000D01*
X145542000Y-106426000D02*
X145542000Y-98171000D01*
X145542000Y-98171000D02*
X146685000Y-97028000D01*
X144962000Y-110435000D02*
X145288000Y-110109000D01*
X146685000Y-93338600D02*
X146176400Y-92830000D01*
X144962000Y-111959000D02*
X144962000Y-110435000D01*
X146685000Y-97028000D02*
X146685000Y-93338600D01*
%TO.N,SDMMC_CK*%
X140817600Y-95504000D02*
X140817600Y-97857600D01*
X142841600Y-93480000D02*
X140817600Y-95504000D01*
X145905600Y-93480000D02*
X142841600Y-93480000D01*
X146177000Y-93751400D02*
X145905600Y-93480000D01*
X146177000Y-96901000D02*
X146177000Y-93751400D01*
X145034000Y-98044000D02*
X146177000Y-96901000D01*
X144462000Y-110300000D02*
X144780000Y-109982000D01*
X144780000Y-109982000D02*
X144780000Y-105664000D01*
X140817600Y-97857600D02*
X140925000Y-97965000D01*
X144780000Y-105664000D02*
X145034000Y-105410000D01*
X144462000Y-111959000D02*
X144462000Y-110300000D01*
X145034000Y-105410000D02*
X145034000Y-98044000D01*
%TO.N,SDMMC_D1*%
X144225000Y-99869000D02*
X144225000Y-97965000D01*
X141859000Y-102235000D02*
X144225000Y-99869000D01*
X136271000Y-102235000D02*
X141859000Y-102235000D01*
X134874000Y-103632000D02*
X136271000Y-102235000D01*
X134874000Y-105156000D02*
X134874000Y-103632000D01*
X135255000Y-105537000D02*
X134874000Y-105156000D01*
X138938000Y-105537000D02*
X135255000Y-105537000D01*
X140716000Y-107315000D02*
X138938000Y-105537000D01*
X142748000Y-107315000D02*
X140716000Y-107315000D01*
X143383000Y-106680000D02*
X142748000Y-107315000D01*
X143764000Y-106680000D02*
X143383000Y-106680000D01*
X144373600Y-107289600D02*
X143764000Y-106680000D01*
X144373600Y-109753400D02*
X144373600Y-107289600D01*
X143764000Y-110363000D02*
X144373600Y-109753400D01*
%TO.N,SDMMC_CD*%
X130657600Y-104749600D02*
X130657600Y-102108000D01*
X131699000Y-105791000D02*
X130657600Y-104749600D01*
X134366000Y-105791000D02*
X131699000Y-105791000D01*
X134620000Y-106045000D02*
X134366000Y-105791000D01*
X138430000Y-106045000D02*
X134620000Y-106045000D01*
X139446000Y-107061000D02*
X138430000Y-106045000D01*
X139827000Y-107823000D02*
X139446000Y-107442000D01*
X141351000Y-107823000D02*
X139827000Y-107823000D01*
X142015000Y-108487000D02*
X141351000Y-107823000D01*
X139446000Y-107442000D02*
X139446000Y-107061000D01*
X142015000Y-109195000D02*
X142015000Y-108487000D01*
%TO.N,SX1262_SPI2_DIO2*%
X138462000Y-110864400D02*
X138462000Y-111959000D01*
X138734800Y-110591600D02*
X138462000Y-110864400D01*
X138734800Y-107238800D02*
X138734800Y-110591600D01*
X138049000Y-106553000D02*
X138734800Y-107238800D01*
X134493000Y-106553000D02*
X138049000Y-106553000D01*
X134239000Y-106299000D02*
X134493000Y-106553000D01*
X129514600Y-105003600D02*
X130810000Y-106299000D01*
X128371600Y-105003600D02*
X129514600Y-105003600D01*
X126365000Y-102997000D02*
X128371600Y-105003600D01*
X130810000Y-106299000D02*
X134239000Y-106299000D01*
X125247400Y-102997000D02*
X126365000Y-102997000D01*
X125222000Y-102971600D02*
X125247400Y-102997000D01*
%TO.N,SX1262_SPI2_DIO1*%
X126847600Y-105562400D02*
X125171200Y-103886000D01*
X129311400Y-105562400D02*
X126847600Y-105562400D01*
X130556000Y-106807000D02*
X129311400Y-105562400D01*
X136931400Y-110134400D02*
X133604000Y-106807000D01*
X137617200Y-110134400D02*
X136931400Y-110134400D01*
X137972800Y-110874800D02*
X137972800Y-110490000D01*
X137962000Y-110885600D02*
X137972800Y-110874800D01*
X133604000Y-106807000D02*
X130556000Y-106807000D01*
X137962000Y-111959000D02*
X137962000Y-110885600D01*
X137972800Y-110490000D02*
X137617200Y-110134400D01*
%TO.N,BOOT0*%
X133477000Y-107315000D02*
X129057400Y-107315000D01*
X129057400Y-107315000D02*
X129032000Y-107289600D01*
X136753600Y-110591600D02*
X133477000Y-107315000D01*
X137312400Y-110591600D02*
X136753600Y-110591600D01*
X137462000Y-110741200D02*
X137312400Y-110591600D01*
X137462000Y-111959000D02*
X137462000Y-110741200D01*
%TO.N,ESP32_TX*%
X126695200Y-106172000D02*
X126034800Y-106172000D01*
X129336800Y-108813600D02*
X126695200Y-106172000D01*
X134340600Y-108813600D02*
X129336800Y-108813600D01*
X135962000Y-111959000D02*
X135962000Y-110435000D01*
X135962000Y-110435000D02*
X134340600Y-108813600D01*
%TO.N,ESP32_RX*%
X135462000Y-110570000D02*
X135462000Y-111959000D01*
X134162800Y-109270800D02*
X135462000Y-110570000D01*
X128981200Y-109270800D02*
X134162800Y-109270800D01*
X125399800Y-107137200D02*
X126847600Y-107137200D01*
X123444000Y-109093000D02*
X125399800Y-107137200D01*
X126847600Y-107137200D02*
X128981200Y-109270800D01*
%TO.N,GND*%
D66*
X143465000Y-107569000D02*
X143465000Y-108825000D01*
%TO.N,PA14{slash}SWCLK*%
D65*
X148844000Y-93726000D02*
X149504400Y-93726000D01*
%TO.N,Net-(J5-In)*%
D67*
X171450000Y-122916000D02*
X171440000Y-122926000D01*
D68*
X172466000Y-114935000D02*
X172466000Y-117602000D01*
X172466000Y-117602000D02*
X171450000Y-118618000D01*
X172952000Y-114449000D02*
X172466000Y-114935000D01*
X173731000Y-114449000D02*
X172952000Y-114449000D01*
X171450000Y-118618000D02*
X171450000Y-122916000D01*
D67*
X173731000Y-112527000D02*
X173736000Y-112522000D01*
D68*
X173731000Y-114449000D02*
X173731000Y-112527000D01*
%TO.N,Net-(U4A-VCC_RF)*%
D67*
X169841001Y-105283000D02*
X169756000Y-105197999D01*
X175768000Y-106172000D02*
X174879000Y-105283000D01*
X175768000Y-114427000D02*
X175768000Y-106172000D01*
X174826000Y-115369000D02*
X175768000Y-114427000D01*
X174879000Y-105283000D02*
X169841001Y-105283000D01*
X173731000Y-115369000D02*
X174826000Y-115369000D01*
%TO.N,Net-(U2-PG)*%
D65*
X118398000Y-150241000D02*
X118381000Y-150258000D01*
X121412000Y-151130000D02*
X120523000Y-150241000D01*
X128919000Y-149973000D02*
X127762000Y-151130000D01*
X127762000Y-151130000D02*
X121412000Y-151130000D01*
X128919000Y-149550000D02*
X128919000Y-149973000D01*
X120523000Y-150241000D02*
X118398000Y-150241000D01*
%TO.N,PD6_LD4*%
X156556600Y-120455800D02*
X156556600Y-121513600D01*
X157251400Y-119761000D02*
X156556600Y-120455800D01*
X159283400Y-119761000D02*
X157251400Y-119761000D01*
X159664400Y-116128800D02*
X159664400Y-119380000D01*
X159562800Y-116027200D02*
X159664400Y-116128800D01*
X159359600Y-115773200D02*
X159562800Y-115976400D01*
X158445200Y-115773200D02*
X159359600Y-115773200D01*
X158343600Y-115874800D02*
X158445200Y-115773200D01*
X156972000Y-115874800D02*
X158343600Y-115874800D01*
X159562800Y-115976400D02*
X159562800Y-116027200D01*
X159664400Y-119380000D02*
X159283400Y-119761000D01*
%TO.N,SYSOFF*%
X158521400Y-119253000D02*
X158953200Y-118821200D01*
X154813000Y-119253000D02*
X158521400Y-119253000D01*
X154330400Y-119735600D02*
X154813000Y-119253000D01*
X153632000Y-127546000D02*
X153632000Y-122923200D01*
X153168400Y-132530800D02*
X153168400Y-128009600D01*
X158953200Y-118821200D02*
X158953200Y-116382800D01*
X154330400Y-122224800D02*
X154330400Y-119735600D01*
X153136600Y-132562600D02*
X153168400Y-132530800D01*
X154584400Y-134010400D02*
X153136600Y-132562600D01*
X153168400Y-128009600D02*
X153632000Y-127546000D01*
X153632000Y-122923200D02*
X154330400Y-122224800D01*
X154584400Y-134721600D02*
X154584400Y-134010400D01*
%TO.N,PB3{slash}SWO*%
X139962000Y-110707600D02*
X139962000Y-111959000D01*
X139319000Y-110064600D02*
X139962000Y-110707600D01*
X139344400Y-108458000D02*
X139319000Y-108458000D01*
X139319000Y-108458000D02*
X139319000Y-110064600D01*
%TO.N,HS_ULPI_DO*%
X132334000Y-126492000D02*
X132791200Y-126034800D01*
X132791200Y-125638200D02*
X132787000Y-125634000D01*
X132334000Y-128676400D02*
X132334000Y-126492000D01*
X132791200Y-126034800D02*
X132791200Y-125638200D01*
X133197600Y-129540000D02*
X132334000Y-128676400D01*
X137188000Y-131447600D02*
X135280400Y-129540000D01*
X137188000Y-133706500D02*
X137188000Y-131447600D01*
X135280400Y-129540000D02*
X133197600Y-129540000D01*
%TO.N,HS_SOF*%
X135483600Y-128646400D02*
X135483600Y-127330600D01*
X134996400Y-129133600D02*
X135483600Y-128646400D01*
X133356886Y-129133600D02*
X134996400Y-129133600D01*
X135483600Y-127330600D02*
X135462000Y-127309000D01*
X132943600Y-128720314D02*
X133356886Y-129133600D01*
X132943600Y-128320800D02*
X132943600Y-128720314D01*
%TO.N,SDMMC_CMD*%
X139072000Y-114434000D02*
X137972800Y-113334800D01*
X143103600Y-113746400D02*
X142416000Y-114434000D01*
X143103600Y-113080800D02*
X143103600Y-113746400D01*
X142962000Y-111959000D02*
X142962000Y-112939200D01*
X142962000Y-112939200D02*
X143103600Y-113080800D01*
X142416000Y-114434000D02*
X139072000Y-114434000D01*
%TO.N,Net-(L1-Pad1)*%
D68*
X131939000Y-146550000D02*
X131939000Y-146163000D01*
X131939000Y-146163000D02*
X131178300Y-145402300D01*
X131178300Y-145402300D02*
X131178300Y-144113000D01*
D67*
X131939000Y-147049999D02*
X131939000Y-146550000D01*
%TO.N,Net-(L1-Pad2)*%
D68*
X129286000Y-145796000D02*
X129286000Y-144252700D01*
X128919000Y-146550000D02*
X128919000Y-146163000D01*
X129286000Y-144252700D02*
X129425700Y-144113000D01*
X128919000Y-146163000D02*
X129286000Y-145796000D01*
D67*
X128919000Y-147049999D02*
X128919000Y-146550000D01*
%TO.N,Net-(U8-VDDA1.8)*%
D65*
X130302000Y-136355000D02*
X131148000Y-136355000D01*
X135640000Y-136394000D02*
X136500500Y-136394000D01*
X131148000Y-136355000D02*
X131445000Y-136652000D01*
X135382000Y-136652000D02*
X135640000Y-136394000D01*
X131445000Y-136652000D02*
X135382000Y-136652000D01*
%TO.N,GND*%
D69*
X161306000Y-97298000D02*
X162306000Y-98298000D01*
X159088000Y-99398000D02*
X157988000Y-98298000D01*
D67*
X124989500Y-143859000D02*
X126143000Y-143859000D01*
D65*
X145962000Y-127309000D02*
X145962000Y-126353200D01*
D70*
X162535997Y-144830800D02*
X162578949Y-144873752D01*
D69*
X163356000Y-109948000D02*
X162306000Y-110998000D01*
X159156001Y-105765999D02*
X157988000Y-106934000D01*
D66*
X137259998Y-145612200D02*
X137259998Y-144879998D01*
D67*
X124714000Y-144134500D02*
X124989500Y-143859000D01*
D65*
X156464000Y-141732000D02*
X156591000Y-141605000D01*
D68*
X127558800Y-119126000D02*
X127152400Y-118719600D01*
D69*
X159156001Y-111998000D02*
X158988000Y-111998000D01*
X165455999Y-106019999D02*
X166370000Y-106934000D01*
D65*
X131494400Y-118134000D02*
X131368800Y-118008400D01*
X134962000Y-110933600D02*
X134518400Y-110490000D01*
D67*
X134011500Y-149352000D02*
X134112000Y-149251500D01*
D69*
X165455999Y-97383999D02*
X166370000Y-98298000D01*
D66*
X169756000Y-109598000D02*
X171834000Y-109598000D01*
D69*
X165455999Y-111912001D02*
X166370000Y-110998000D01*
X167234000Y-107798000D02*
X166370000Y-106934000D01*
D67*
X132540001Y-149050001D02*
X132842000Y-149352000D01*
D65*
X168050000Y-133576000D02*
X168050000Y-132836000D01*
D67*
X127762000Y-140462000D02*
X127254000Y-140970000D01*
X130822700Y-148512702D02*
X130429000Y-148119002D01*
X131064000Y-137922000D02*
X130810000Y-137922000D01*
X121412000Y-114382000D02*
X123952000Y-114382000D01*
D69*
X157056000Y-103548000D02*
X157988000Y-102616000D01*
D66*
X169756000Y-99698000D02*
X171574000Y-99698000D01*
D69*
X159156001Y-103598000D02*
X159156001Y-103479999D01*
D66*
X169756000Y-97497999D02*
X171157999Y-97497999D01*
D67*
X132588000Y-131318000D02*
X131216400Y-131318000D01*
D69*
X159156001Y-105698000D02*
X159156001Y-105765999D01*
D65*
X168537500Y-134063500D02*
X168050000Y-133576000D01*
D67*
X126746000Y-143256000D02*
X126746000Y-142494000D01*
D66*
X108712000Y-114382000D02*
X108712000Y-116840000D01*
D69*
X157056000Y-106002000D02*
X157988000Y-106934000D01*
D66*
X154856000Y-101898000D02*
X153714000Y-101898000D01*
X145005000Y-95675000D02*
X145005000Y-95475000D01*
D69*
X157056000Y-101684000D02*
X157988000Y-102616000D01*
X167352000Y-103598000D02*
X166370000Y-102616000D01*
X167556000Y-103598000D02*
X167352000Y-103598000D01*
X165506000Y-107798000D02*
X166370000Y-106934000D01*
D65*
X144787800Y-132799000D02*
X145592800Y-133604000D01*
D66*
X152855000Y-101145000D02*
X152908000Y-101092000D01*
D65*
X137688000Y-137394000D02*
X138938000Y-136144000D01*
X168000000Y-133526000D02*
X168050000Y-133576000D01*
D69*
X159156001Y-99398000D02*
X159088000Y-99398000D01*
D65*
X129692400Y-118008400D02*
X128590000Y-119110800D01*
D66*
X151638000Y-101145000D02*
X152855000Y-101145000D01*
D65*
X137188000Y-138581500D02*
X137688000Y-138581500D01*
D66*
X142025000Y-96735000D02*
X143002000Y-95758000D01*
D67*
X130822700Y-148837400D02*
X130822700Y-148512702D01*
D68*
X128590000Y-119126000D02*
X127558800Y-119126000D01*
D65*
X167550000Y-132836000D02*
X167550000Y-133376000D01*
D67*
X128317999Y-149050001D02*
X127455000Y-149913000D01*
D65*
X146456400Y-113436400D02*
X146507200Y-113385600D01*
X156634000Y-143764000D02*
X156634000Y-141648000D01*
D67*
X143256000Y-141478000D02*
X144653000Y-141478000D01*
D65*
X149111600Y-114134000D02*
X149402800Y-113842800D01*
D69*
X167370000Y-111998000D02*
X166370000Y-110998000D01*
X157056000Y-103598000D02*
X157056000Y-103548000D01*
D67*
X123952000Y-114382000D02*
X125444800Y-114382000D01*
D69*
X166456000Y-98298000D02*
X166370000Y-98298000D01*
D66*
X163356000Y-112488000D02*
X163356000Y-111998000D01*
D65*
X144780000Y-132799000D02*
X144787800Y-132799000D01*
X168537500Y-134626000D02*
X168537500Y-134063500D01*
X155416000Y-139827000D02*
X155416000Y-137847000D01*
D69*
X161256000Y-109898000D02*
X161374000Y-109898000D01*
D65*
X148729000Y-137426000D02*
X148082000Y-136779000D01*
D67*
X128919000Y-149050001D02*
X129540001Y-149050001D01*
D69*
X157056000Y-101498000D02*
X157056000Y-101684000D01*
D66*
X143002000Y-95758000D02*
X144922000Y-95758000D01*
X137715000Y-108825000D02*
X137715000Y-107235000D01*
D69*
X161256000Y-105698000D02*
X162306000Y-106748000D01*
D66*
X142025000Y-99110800D02*
X142025000Y-96735000D01*
D65*
X150672800Y-112522000D02*
X149402800Y-112522000D01*
D67*
X130080000Y-140462000D02*
X127762000Y-140462000D01*
D65*
X155416000Y-139827000D02*
X156591000Y-139827000D01*
D69*
X154856000Y-112758400D02*
X154856000Y-111798001D01*
X163306000Y-97298000D02*
X162306000Y-98298000D01*
D66*
X133029000Y-94675000D02*
X133858000Y-95504000D01*
D69*
X163356000Y-107798000D02*
X163170000Y-107798000D01*
D65*
X137688000Y-138581500D02*
X138188000Y-138581500D01*
X155416000Y-141732000D02*
X156464000Y-141732000D01*
D69*
X159088000Y-109898000D02*
X157988000Y-110998000D01*
D66*
X171157999Y-97497999D02*
X171574000Y-97914000D01*
D67*
X125444800Y-114382000D02*
X126695200Y-113131600D01*
D65*
X145962000Y-126353200D02*
X145592800Y-125984000D01*
D67*
X148844000Y-146304000D02*
X146685000Y-146304000D01*
D69*
X159156001Y-99398000D02*
X159174000Y-99398000D01*
X169756000Y-111798001D02*
X169756000Y-112860000D01*
D68*
X129264500Y-128016000D02*
X127762000Y-128016000D01*
D65*
X156634000Y-141648000D02*
X156591000Y-141605000D01*
D69*
X157056000Y-111998000D02*
X157056000Y-111930000D01*
X165455999Y-107798000D02*
X165506000Y-107798000D01*
D66*
X156312000Y-107798000D02*
X157056000Y-107798000D01*
D67*
X140335000Y-143123500D02*
X140335000Y-142494000D01*
D69*
X161256000Y-101634000D02*
X162238000Y-102616000D01*
D68*
X127152400Y-118719600D02*
X127152400Y-116128800D01*
D65*
X148137000Y-114134000D02*
X149111600Y-114134000D01*
D67*
X130429000Y-148050000D02*
X130035300Y-148443700D01*
D69*
X161442000Y-107798000D02*
X162306000Y-106934000D01*
D67*
X130080000Y-138652000D02*
X130080000Y-140462000D01*
D65*
X128590000Y-119110800D02*
X128590000Y-119126000D01*
X167550000Y-133376000D02*
X167700000Y-133526000D01*
D69*
X159156001Y-109898000D02*
X159088000Y-109898000D01*
D67*
X132545000Y-137922000D02*
X131064000Y-137922000D01*
D66*
X162306000Y-113538000D02*
X163356000Y-112488000D01*
X155912000Y-107398000D02*
X156312000Y-107798000D01*
D69*
X161256000Y-109898000D02*
X161256000Y-109948000D01*
X159156001Y-103598000D02*
X158970000Y-103598000D01*
X157056000Y-107798000D02*
X157124000Y-107798000D01*
X157124000Y-107798000D02*
X157988000Y-106934000D01*
X161256000Y-109948000D02*
X162306000Y-110998000D01*
D66*
X151638000Y-106723000D02*
X152697000Y-106723000D01*
D69*
X161256000Y-99398000D02*
X161256000Y-99348000D01*
X159156001Y-109829999D02*
X159156001Y-109898000D01*
D67*
X131939000Y-149050001D02*
X131035301Y-149050001D01*
D65*
X166390000Y-130336000D02*
X166400000Y-130326000D01*
D69*
X165455999Y-99398000D02*
X165455999Y-99212001D01*
X165455999Y-101498000D02*
X165455999Y-101701999D01*
D67*
X113824000Y-135890000D02*
X112522000Y-135890000D01*
D69*
X157056000Y-105698000D02*
X157056000Y-106002000D01*
X158038001Y-102616000D02*
X157988000Y-102616000D01*
X163356000Y-97298000D02*
X163306000Y-97298000D01*
X169756000Y-112860000D02*
X170180000Y-113284000D01*
D67*
X130810000Y-137922000D02*
X130080000Y-138652000D01*
D65*
X168554400Y-136042400D02*
X168537500Y-136025500D01*
D69*
X167370000Y-97298000D02*
X166370000Y-98298000D01*
X161256000Y-103598000D02*
X162238000Y-102616000D01*
X165455999Y-103598000D02*
X165455999Y-103530001D01*
D65*
X167700000Y-133526000D02*
X168000000Y-133526000D01*
D66*
X144145000Y-144526000D02*
X144272000Y-144526000D01*
D65*
X155416000Y-137847000D02*
X155364000Y-137795000D01*
D69*
X157056000Y-99398000D02*
X157988000Y-98466000D01*
X167556000Y-107798000D02*
X167234000Y-107798000D01*
D65*
X131368800Y-118008400D02*
X129692400Y-118008400D01*
D66*
X162306000Y-114598000D02*
X162306000Y-113538000D01*
D69*
X165455999Y-111998000D02*
X165455999Y-111912001D01*
D66*
X137259998Y-144879998D02*
X136906000Y-144526000D01*
D67*
X132842000Y-149352000D02*
X134011500Y-149352000D01*
D69*
X165455999Y-97298000D02*
X165455999Y-97383999D01*
X159156001Y-101498000D02*
X158038001Y-102616000D01*
D67*
X146685000Y-144526000D02*
X146685000Y-146304000D01*
D69*
X158988000Y-111998000D02*
X157988000Y-110998000D01*
X157056000Y-109898000D02*
X157988000Y-110830000D01*
D67*
X128919000Y-149050001D02*
X128317999Y-149050001D01*
D69*
X159156001Y-105698000D02*
X159224000Y-105698000D01*
X163356000Y-97298000D02*
X163356000Y-97316000D01*
X159156001Y-111998000D02*
X159274000Y-111998000D01*
D66*
X153372000Y-107398000D02*
X154856000Y-107398000D01*
D65*
X148137000Y-114134000D02*
X147154000Y-114134000D01*
X148729000Y-137881500D02*
X148729000Y-137426000D01*
D66*
X142025000Y-97765000D02*
X142025000Y-96735000D01*
D65*
X138188000Y-138581500D02*
X138188000Y-136894000D01*
D66*
X128320800Y-119395200D02*
X128590000Y-119126000D01*
D69*
X167556000Y-111998000D02*
X167370000Y-111998000D01*
X167556000Y-105748000D02*
X166370000Y-106934000D01*
X167556000Y-101498000D02*
X167488000Y-101498000D01*
D67*
X130035300Y-148443700D02*
X130035300Y-148837400D01*
D69*
X167488000Y-101498000D02*
X166370000Y-102616000D01*
D67*
X126746000Y-141478000D02*
X126746000Y-142494000D01*
D65*
X152654000Y-147472400D02*
X152400000Y-147726400D01*
D69*
X157056000Y-105698000D02*
X157192000Y-105698000D01*
D66*
X144272000Y-144526000D02*
X146685000Y-144526000D01*
D67*
X131939000Y-149050001D02*
X132540001Y-149050001D01*
D65*
X134462000Y-127309000D02*
X133608200Y-127309000D01*
D66*
X153714000Y-101898000D02*
X152908000Y-101092000D01*
D69*
X157056000Y-97366000D02*
X157988000Y-98298000D01*
D70*
X158597600Y-144830800D02*
X162535997Y-144830800D01*
D69*
X165455999Y-105698000D02*
X165455999Y-106019999D01*
D67*
X126143000Y-143859000D02*
X126746000Y-143256000D01*
D66*
X145005000Y-95475000D02*
X143764000Y-94234000D01*
D67*
X130429000Y-148161002D02*
X130429000Y-148050000D01*
D66*
X171834000Y-109598000D02*
X171958000Y-109474000D01*
X154856000Y-107398000D02*
X155912000Y-107398000D01*
X131855000Y-94675000D02*
X133029000Y-94675000D01*
D65*
X138188000Y-136894000D02*
X138938000Y-136144000D01*
D67*
X142748000Y-141986000D02*
X143256000Y-141478000D01*
D69*
X163356000Y-111998000D02*
X163306000Y-111998000D01*
D65*
X131524000Y-122634000D02*
X131318000Y-122428000D01*
X145592800Y-133604000D02*
X146253200Y-133604000D01*
X131699000Y-135636000D02*
X131318000Y-135255000D01*
D69*
X161256000Y-101498000D02*
X161256000Y-101380000D01*
X165455999Y-103530001D02*
X166370000Y-102616000D01*
X166456000Y-110998000D02*
X166370000Y-110998000D01*
X163306000Y-111998000D02*
X162306000Y-110998000D01*
X161306000Y-111998000D02*
X162306000Y-110998000D01*
D67*
X148844000Y-146304000D02*
X150749000Y-146304000D01*
D65*
X152654000Y-146304000D02*
X152654000Y-147472400D01*
D67*
X127254000Y-140970000D02*
X126746000Y-141478000D01*
D69*
X157056000Y-111930000D02*
X157988000Y-110998000D01*
D65*
X166390000Y-131176000D02*
X166390000Y-130336000D01*
D69*
X163356000Y-109898000D02*
X163406000Y-109898000D01*
X165455999Y-105698000D02*
X165574000Y-105698000D01*
D66*
X137715000Y-107235000D02*
X137668000Y-107188000D01*
D67*
X127455000Y-149913000D02*
X127455000Y-150061000D01*
X131035301Y-149050001D02*
X130822700Y-148837400D01*
D69*
X163356000Y-101498000D02*
X162238000Y-102616000D01*
D67*
X129540001Y-149050001D02*
X130429000Y-148161002D01*
D69*
X158988000Y-97298000D02*
X157988000Y-98298000D01*
D67*
X140335000Y-142494000D02*
X140843000Y-141986000D01*
D69*
X163356000Y-103598000D02*
X162374000Y-102616000D01*
X161256000Y-111998000D02*
X161306000Y-111998000D01*
D65*
X156634000Y-143764000D02*
X156634000Y-144965600D01*
D67*
X124714000Y-146050000D02*
X124714000Y-144134500D01*
D69*
X162374000Y-102616000D02*
X162238000Y-102616000D01*
X157988000Y-110830000D02*
X157988000Y-110998000D01*
D65*
X156634000Y-144965600D02*
X156311600Y-145288000D01*
D69*
X165455999Y-101701999D02*
X166370000Y-102616000D01*
X161256000Y-101498000D02*
X161256000Y-101634000D01*
X161256000Y-107798000D02*
X161442000Y-107798000D01*
D68*
X128371600Y-124663200D02*
X127000000Y-124663200D01*
D69*
X167556000Y-97298000D02*
X167370000Y-97298000D01*
X163356000Y-105698000D02*
X162306000Y-106748000D01*
D65*
X132787000Y-118134000D02*
X131494400Y-118134000D01*
X132588000Y-135636000D02*
X131699000Y-135636000D01*
D69*
X165455999Y-110083999D02*
X166370000Y-110998000D01*
X163356000Y-107798000D02*
X163474000Y-107798000D01*
X167556000Y-101498000D02*
X167284000Y-101498000D01*
D66*
X144922000Y-95758000D02*
X145005000Y-95675000D01*
X143659998Y-145011002D02*
X144145000Y-144526000D01*
D69*
X157988000Y-98466000D02*
X157988000Y-98298000D01*
D65*
X147154000Y-114134000D02*
X146456400Y-113436400D01*
D69*
X157056000Y-101498000D02*
X157074000Y-101498000D01*
D67*
X127508000Y-150114000D02*
X127455000Y-150061000D01*
D66*
X171574000Y-97914000D02*
X171574000Y-99698000D01*
D69*
X159156001Y-107798000D02*
X158292001Y-106934000D01*
X158970000Y-103598000D02*
X157988000Y-102616000D01*
X154838400Y-112776000D02*
X154856000Y-112758400D01*
D68*
X128320800Y-121310400D02*
X127101600Y-122529600D01*
D69*
X163356000Y-99348000D02*
X162306000Y-98298000D01*
D67*
X130429000Y-148119002D02*
X130429000Y-148050000D01*
D65*
X149402800Y-113842800D02*
X149402800Y-112522000D01*
D69*
X163356000Y-99398000D02*
X163356000Y-99280000D01*
D66*
X152697000Y-106723000D02*
X153372000Y-107398000D01*
D67*
X126492000Y-150061000D02*
X127455000Y-150061000D01*
D68*
X162458400Y-134416800D02*
X163728400Y-134416800D01*
D69*
X161256000Y-99348000D02*
X162306000Y-98298000D01*
D65*
X134962000Y-111959000D02*
X134962000Y-110933600D01*
D68*
X127152400Y-116128800D02*
X127863600Y-115417600D01*
D69*
X162306000Y-106748000D02*
X162306000Y-106934000D01*
X167556000Y-109898000D02*
X166456000Y-110998000D01*
D65*
X133604000Y-127304800D02*
X133608200Y-127309000D01*
D69*
X163356000Y-109898000D02*
X163356000Y-109948000D01*
X161256000Y-97298000D02*
X161306000Y-97298000D01*
D67*
X140843000Y-141986000D02*
X142748000Y-141986000D01*
D65*
X168537500Y-134626000D02*
X168537500Y-136025500D01*
D69*
X158292001Y-106934000D02*
X157988000Y-106934000D01*
X167556000Y-105698000D02*
X167556000Y-105748000D01*
X163356000Y-99398000D02*
X163356000Y-99348000D01*
D65*
X152654000Y-146304000D02*
X150749000Y-146304000D01*
D66*
X143659998Y-145612200D02*
X143659998Y-145011002D01*
D69*
X165455999Y-109898000D02*
X165455999Y-110083999D01*
D65*
X146507200Y-113385600D02*
X146608800Y-113385600D01*
D69*
X163356000Y-101498000D02*
X163424000Y-101498000D01*
X165455999Y-99212001D02*
X166370000Y-98298000D01*
D65*
X132787000Y-122634000D02*
X131524000Y-122634000D01*
D69*
X163170000Y-107798000D02*
X162306000Y-106934000D01*
X159156001Y-97298000D02*
X158988000Y-97298000D01*
X167556000Y-99398000D02*
X166456000Y-98298000D01*
X159156001Y-97298000D02*
X159274000Y-97298000D01*
D68*
X121412000Y-130982000D02*
X121412000Y-128117600D01*
D69*
X157056000Y-97298000D02*
X157056000Y-97366000D01*
%TO.N,LSM6DSOX_INT1*%
D65*
X149961600Y-120091200D02*
X149402800Y-120650000D01*
X155549600Y-133654800D02*
X153974800Y-132080000D01*
X164592000Y-133248400D02*
X164592000Y-135890000D01*
X153974800Y-132080000D02*
X153974800Y-128473200D01*
X148153000Y-120650000D02*
X148137000Y-120634000D01*
X150266400Y-120091200D02*
X149961600Y-120091200D01*
X165164400Y-132676000D02*
X164592000Y-133248400D01*
X159512000Y-136347200D02*
X156870400Y-133705600D01*
X155194000Y-120904000D02*
X155397200Y-120904000D01*
X156870400Y-133705600D02*
X156870400Y-133654800D01*
X164134800Y-136347200D02*
X159512000Y-136347200D01*
X166390000Y-132676000D02*
X165164400Y-132676000D01*
X156870400Y-133654800D02*
X155549600Y-133654800D01*
X154432000Y-123444000D02*
X155194000Y-122682000D01*
X155194000Y-122682000D02*
X155194000Y-120904000D01*
X153974800Y-128473200D02*
X154432000Y-128016000D01*
X149402800Y-120650000D02*
X148153000Y-120650000D01*
X164592000Y-135890000D02*
X164134800Y-136347200D01*
X154432000Y-128016000D02*
X154432000Y-123444000D01*
%TO.N,+3V3*%
D68*
X131339500Y-126970700D02*
X130446600Y-126077800D01*
D67*
X122174000Y-141732000D02*
X122174000Y-140970000D01*
D65*
X138049000Y-140843000D02*
X137922000Y-140843000D01*
X140335000Y-141605000D02*
X139954000Y-141986000D01*
D66*
X151638000Y-102870000D02*
X152908000Y-102870000D01*
D65*
X139954000Y-141986000D02*
X138811000Y-141986000D01*
X134488000Y-133336000D02*
X134488000Y-132618400D01*
X134962000Y-128385200D02*
X134962000Y-127309000D01*
X143814800Y-134061200D02*
X143764000Y-134112000D01*
X147066000Y-134213600D02*
X146405600Y-134874000D01*
X134670800Y-131325800D02*
X134663000Y-131318000D01*
X136500500Y-137394000D02*
X136500500Y-136894000D01*
X136500500Y-134394000D02*
X135546000Y-134394000D01*
X167050000Y-133526000D02*
X167050000Y-132836000D01*
D66*
X154856000Y-102998001D02*
X153036001Y-102998001D01*
D65*
X169519600Y-138303000D02*
X169519600Y-137515600D01*
X131729600Y-116134000D02*
X131724400Y-116128800D01*
X168148000Y-130048000D02*
X168050000Y-130146000D01*
X134721600Y-128625600D02*
X134962000Y-128385200D01*
D66*
X151638000Y-104648000D02*
X152908000Y-104648000D01*
D67*
X134112000Y-145796000D02*
X134112000Y-146304000D01*
X152908000Y-105664000D02*
X152908000Y-104648000D01*
D65*
X141986000Y-139446000D02*
X142029000Y-139403000D01*
D66*
X106172000Y-114382000D02*
X106172000Y-116840000D01*
D65*
X162848800Y-121615200D02*
X164388800Y-121615200D01*
X166462500Y-134113500D02*
X167050000Y-133526000D01*
X136500500Y-137394000D02*
X135960800Y-137394000D01*
D67*
X122914500Y-142472500D02*
X122174000Y-141732000D01*
D68*
X130446600Y-124663200D02*
X130446600Y-123197800D01*
D65*
X168710000Y-132676000D02*
X169700000Y-132676000D01*
D68*
X130395800Y-121310400D02*
X130395800Y-122928200D01*
D65*
X155972000Y-116144800D02*
X155854400Y-116027200D01*
D67*
X133731000Y-146685000D02*
X133096000Y-147320000D01*
D68*
X166462500Y-134626000D02*
X165250000Y-134626000D01*
D67*
X154856000Y-106297999D02*
X153541999Y-106297999D01*
D65*
X166462500Y-134626000D02*
X166462500Y-134113500D01*
D67*
X122809000Y-143964500D02*
X122914500Y-143859000D01*
D65*
X171577000Y-131985000D02*
X171558200Y-131985000D01*
D67*
X122809000Y-146050000D02*
X122809000Y-143964500D01*
D65*
X135546000Y-134394000D02*
X134488000Y-133336000D01*
X144780000Y-134874000D02*
X144627600Y-134874000D01*
D67*
X134112000Y-146304000D02*
X133731000Y-146685000D01*
D65*
X171558200Y-131985000D02*
X169621200Y-130048000D01*
D67*
X154856000Y-104098001D02*
X154856000Y-102998001D01*
D65*
X134721600Y-128625600D02*
X134061200Y-128625600D01*
X132787000Y-123634000D02*
X131737600Y-123634000D01*
X162798000Y-123647200D02*
X164033200Y-123647200D01*
D66*
X133096000Y-147320000D02*
X132588000Y-147828000D01*
D65*
X131724400Y-116128800D02*
X131027200Y-116826000D01*
X134462000Y-111959000D02*
X132236600Y-111959000D01*
D67*
X116284000Y-147780000D02*
X115824000Y-147320000D01*
D65*
X147472400Y-134213600D02*
X147066000Y-134213600D01*
X134663000Y-131318000D02*
X135026400Y-130954600D01*
X168050000Y-130146000D02*
X168050000Y-131016000D01*
D66*
X139825000Y-97765000D02*
X139825000Y-94871000D01*
D65*
X168783000Y-130048000D02*
X168148000Y-130048000D01*
X143764000Y-134112000D02*
X141657500Y-134112000D01*
X135026400Y-130954600D02*
X135026400Y-130200400D01*
D68*
X130446600Y-126077800D02*
X130446600Y-124663200D01*
D65*
X134488000Y-132618400D02*
X134670800Y-132435600D01*
X146462000Y-126740400D02*
X146964400Y-126238000D01*
X131027200Y-116826000D02*
X130490000Y-116826000D01*
X130490000Y-115859600D02*
X130149600Y-115519200D01*
X131165600Y-123088400D02*
X130556000Y-123088400D01*
X133791200Y-118634000D02*
X134061200Y-118364000D01*
D68*
X130395800Y-122928200D02*
X130556000Y-123088400D01*
D65*
X155972000Y-117246400D02*
X155972000Y-116144800D01*
X134670800Y-132435600D02*
X134670800Y-131325800D01*
X139688000Y-138581500D02*
X139688000Y-139204000D01*
D67*
X122914500Y-143859000D02*
X122914500Y-142472500D01*
D68*
X131339500Y-128016000D02*
X131339500Y-126970700D01*
D65*
X131737600Y-123634000D02*
X131724400Y-123647200D01*
X140335000Y-140848500D02*
X140335000Y-141605000D01*
X146405600Y-134874000D02*
X144780000Y-134874000D01*
X164033200Y-123647200D02*
X164388800Y-123291600D01*
X132787000Y-118634000D02*
X133791200Y-118634000D01*
D66*
X139825000Y-94871000D02*
X140716000Y-93980000D01*
D65*
X134061200Y-118364000D02*
X134315200Y-118364000D01*
D66*
X132588000Y-147828000D02*
X132217002Y-147828000D01*
D65*
X147974800Y-113634000D02*
X147320000Y-112979200D01*
X135534400Y-137820400D02*
X135534400Y-138226800D01*
D67*
X153541999Y-106297999D02*
X152908000Y-105664000D01*
X115824000Y-144526000D02*
X115824000Y-146304000D01*
D65*
X139688000Y-139204000D02*
X138049000Y-140843000D01*
D67*
X115824000Y-146304000D02*
X115824000Y-147320000D01*
X122174000Y-140970000D02*
X120439000Y-140970000D01*
D65*
X141732000Y-134037500D02*
X141732000Y-133705600D01*
X141375500Y-134394000D02*
X141732000Y-134037500D01*
D66*
X165830000Y-117348000D02*
X166878000Y-117348000D01*
D67*
X134112000Y-145796000D02*
X134620000Y-145288000D01*
D65*
X169519600Y-137515600D02*
X170129200Y-136906000D01*
X143256000Y-139403000D02*
X142029000Y-139403000D01*
X146462000Y-127309000D02*
X146462000Y-126740400D01*
X144627600Y-134874000D02*
X143814800Y-134061200D01*
D68*
X130446600Y-123197800D02*
X130556000Y-123088400D01*
D65*
X138811000Y-141986000D02*
X137922000Y-141097000D01*
X135960800Y-137394000D02*
X135534400Y-137820400D01*
X131724400Y-123647200D02*
X131165600Y-123088400D01*
X148137000Y-113634000D02*
X147974800Y-113634000D01*
D67*
X120439000Y-140970000D02*
X120396000Y-140927000D01*
X132217002Y-147828000D02*
X131939000Y-147549998D01*
X131939000Y-148050000D02*
X131939000Y-147549998D01*
D65*
X141657500Y-134112000D02*
X141375500Y-134394000D01*
X134061200Y-128625600D02*
X133908800Y-128473200D01*
X137922000Y-141097000D02*
X137922000Y-140843000D01*
X169621200Y-130048000D02*
X168783000Y-130048000D01*
X130490000Y-116826000D02*
X130490000Y-115859600D01*
X132787000Y-116134000D02*
X131729600Y-116134000D01*
D66*
X153036001Y-102998001D02*
X152908000Y-102870000D01*
D67*
X117729000Y-147780000D02*
X116284000Y-147780000D01*
D65*
X132236600Y-111959000D02*
X132232400Y-111963200D01*
%TO.N,LSM6DSOX_INT2*%
X154736800Y-120446800D02*
X154736800Y-122428000D01*
X153568400Y-128219200D02*
X153568400Y-132283200D01*
X154736800Y-122428000D02*
X154032000Y-123132800D01*
X159308800Y-136753600D02*
X169265600Y-136753600D01*
X170307000Y-132207000D02*
X169926000Y-131826000D01*
X155041600Y-120142000D02*
X154736800Y-120446800D01*
X170307000Y-135712200D02*
X170307000Y-132207000D01*
X154032000Y-123132800D02*
X154032000Y-127755600D01*
X169519600Y-131826000D02*
X169169600Y-132176000D01*
X169926000Y-131826000D02*
X169519600Y-131826000D01*
X155346400Y-134061200D02*
X156616400Y-134061200D01*
X169169600Y-132176000D02*
X168710000Y-132176000D01*
X149809200Y-119430800D02*
X149106000Y-120134000D01*
X149106000Y-120134000D02*
X148137000Y-120134000D01*
X154032000Y-127755600D02*
X153568400Y-128219200D01*
X169265600Y-136753600D02*
X170307000Y-135712200D01*
X156616400Y-134061200D02*
X159308800Y-136753600D01*
X153568400Y-132283200D02*
X155346400Y-134061200D01*
%TO.N,I2C4_SCK*%
X176784000Y-135890000D02*
X176276000Y-135382000D01*
X165227000Y-128524000D02*
X165608000Y-128143000D01*
X148137000Y-121634000D02*
X149929600Y-121634000D01*
X151688800Y-127812800D02*
X151688800Y-126847600D01*
X176784000Y-138303000D02*
X176784000Y-135890000D01*
X171069000Y-138303000D02*
X172593000Y-138303000D01*
X165608000Y-128143000D02*
X167259000Y-128143000D01*
X157734000Y-129540000D02*
X159004000Y-130810000D01*
X165227000Y-129667000D02*
X165227000Y-128524000D01*
X173482000Y-139192000D02*
X175895000Y-139192000D01*
X150114000Y-121818400D02*
X149910800Y-121818400D01*
X159004000Y-130810000D02*
X164084000Y-130810000D01*
X168148000Y-129032000D02*
X167550000Y-129032000D01*
X176276000Y-135382000D02*
X174904400Y-135382000D01*
X151688800Y-126847600D02*
X151923800Y-126612600D01*
X151923800Y-126612600D02*
X151923800Y-123259800D01*
X164084000Y-130810000D02*
X165227000Y-129667000D01*
X149929600Y-121634000D02*
X150114000Y-121818400D01*
X167550000Y-129032000D02*
X167550000Y-131016000D01*
X151923800Y-123259800D02*
X151942800Y-123240800D01*
X167259000Y-128143000D02*
X167550000Y-128434000D01*
X172593000Y-138303000D02*
X173482000Y-139192000D01*
X175895000Y-139192000D02*
X176784000Y-138303000D01*
X167550000Y-128434000D02*
X167550000Y-129032000D01*
%TO.N,I2C4_SDA*%
X150493600Y-121080400D02*
X150493600Y-120904000D01*
X152323800Y-124587000D02*
X152323800Y-128143000D01*
X150263600Y-121134000D02*
X150493600Y-120904000D01*
X167050000Y-129458000D02*
X167005000Y-129413000D01*
X150520400Y-121107200D02*
X150493600Y-121080400D01*
X165735000Y-129540000D02*
X165735000Y-129921000D01*
X164338000Y-131318000D02*
X165735000Y-129921000D01*
X165862000Y-129413000D02*
X165735000Y-129540000D01*
X148137000Y-121134000D02*
X150263600Y-121134000D01*
X155194000Y-129540000D02*
X156972000Y-131318000D01*
X156972000Y-131318000D02*
X164338000Y-131318000D01*
X152552400Y-122529600D02*
X152552400Y-124358400D01*
X167050000Y-131016000D02*
X167050000Y-129458000D01*
X171577000Y-133985000D02*
X173736000Y-133985000D01*
X173736000Y-133985000D02*
X174879000Y-132842000D01*
X152323800Y-128143000D02*
X151739600Y-128727200D01*
X152552400Y-124358400D02*
X152323800Y-124587000D01*
X166497000Y-129413000D02*
X165862000Y-129413000D01*
X167005000Y-129413000D02*
X166497000Y-129413000D01*
X174879000Y-132842000D02*
X174904400Y-132842000D01*
%TO.N,Net-(D1-A)*%
D67*
X119364000Y-145780000D02*
X119380000Y-145796000D01*
X117729000Y-145780000D02*
X119364000Y-145780000D01*
X119380000Y-145796000D02*
X120426000Y-144750000D01*
X120524000Y-143130000D02*
X120396000Y-143002000D01*
X120426000Y-144750000D02*
X120524000Y-144750000D01*
X120524000Y-144750000D02*
X120524000Y-143130000D01*
%TO.N,RCCCLK*%
D65*
X132779000Y-119126000D02*
X132787000Y-119134000D01*
X130490000Y-119126000D02*
X132779000Y-119126000D01*
%TO.N,/Power/VBAT*%
D71*
X162578949Y-142873750D02*
X166190950Y-142873750D01*
X166190950Y-142873750D02*
X167995600Y-144678400D01*
X167995600Y-144729200D02*
X170180000Y-144729200D01*
D68*
X160731200Y-135534400D02*
X160172400Y-135534400D01*
D71*
X160656250Y-142873750D02*
X160655000Y-142875000D01*
D68*
X160172400Y-135534400D02*
X159258000Y-134620000D01*
D65*
X159258000Y-134620000D02*
X159258000Y-134416800D01*
D71*
X162578949Y-142873750D02*
X160656250Y-142873750D01*
D65*
X162560000Y-141935200D02*
X162560000Y-142854801D01*
X162560000Y-142854801D02*
X162578949Y-142873750D01*
X161645600Y-141020800D02*
X162560000Y-141935200D01*
D71*
X167995600Y-144678400D02*
X167995600Y-144729200D01*
%TO.N,VBAT_2*%
D65*
X159239200Y-132435600D02*
X159258000Y-132416800D01*
X143814800Y-129032000D02*
X142087600Y-130759200D01*
X157429200Y-132791200D02*
X157784800Y-132435600D01*
D68*
X162458400Y-132416800D02*
X159258000Y-132416800D01*
D65*
X155803600Y-132791200D02*
X157429200Y-132791200D01*
X157784800Y-132435600D02*
X159239200Y-132435600D01*
X132816200Y-124663200D02*
X132787000Y-124634000D01*
X142087600Y-130759200D02*
X138836400Y-130759200D01*
%TO.N,VBSW*%
D70*
X159054800Y-138226800D02*
X156819600Y-135991600D01*
X153289000Y-136931400D02*
X153289000Y-137795000D01*
D65*
X151888000Y-139196000D02*
X151888000Y-139069000D01*
D70*
X156819600Y-135991600D02*
X154228800Y-135991600D01*
X166827200Y-138226800D02*
X159054800Y-138226800D01*
D65*
X151515000Y-139569000D02*
X151888000Y-139196000D01*
D70*
X154228800Y-135991600D02*
X153289000Y-136931400D01*
X168656000Y-140665200D02*
X168656000Y-140055600D01*
D66*
X151888000Y-139069000D02*
X153162000Y-137795000D01*
D65*
X150916500Y-139569000D02*
X151515000Y-139569000D01*
D70*
X168656000Y-140055600D02*
X166827200Y-138226800D01*
D65*
X150916500Y-139069000D02*
X151888000Y-139069000D01*
D70*
X170180000Y-142189200D02*
X168656000Y-140665200D01*
%TO.N,Net-(U1-ISET)*%
D65*
X150229000Y-140756500D02*
X151170500Y-140756500D01*
X152146000Y-141732000D02*
X153416000Y-141732000D01*
X151170500Y-140756500D02*
X152146000Y-141732000D01*
%TO.N,Net-(U8-VBUS)*%
X138688000Y-138581500D02*
X138688000Y-139315000D01*
X137795000Y-140208000D02*
X136922000Y-140208000D01*
X138688000Y-139315000D02*
X137795000Y-140208000D01*
X136922000Y-140208000D02*
X135890000Y-141240000D01*
%TO.N,USB_D_P*%
X140208000Y-139319000D02*
X140208000Y-138601500D01*
X140208000Y-138601500D02*
X140188000Y-138581500D01*
X139385000Y-140142000D02*
X140208000Y-139319000D01*
X139385000Y-140848500D02*
X139385000Y-140142000D01*
%TO.N,USB_D_N*%
X141285000Y-139766000D02*
X141285000Y-140848500D01*
X140716000Y-138609500D02*
X140716000Y-139446000D01*
X140843000Y-139573000D02*
X141097000Y-139573000D01*
X140716000Y-139446000D02*
X140843000Y-139573000D01*
X140688000Y-138581500D02*
X140716000Y-138609500D01*
X141097000Y-139573000D02*
X141224000Y-139700000D01*
X141224000Y-139700000D02*
X141224000Y-139705000D01*
X141224000Y-139705000D02*
X141285000Y-139766000D01*
%TO.N,USB3300_RST*%
X141375500Y-137894000D02*
X141375500Y-138175100D01*
X141681200Y-138480800D02*
X141986000Y-138480800D01*
X141375500Y-138175100D02*
X141681200Y-138480800D01*
X135001000Y-121158000D02*
X134977000Y-121134000D01*
X134977000Y-121134000D02*
X132787000Y-121134000D01*
%TO.N,HS_ULPI_NXT*%
X142075600Y-136894000D02*
X142595600Y-137414000D01*
X142595600Y-137414000D02*
X142595600Y-137718800D01*
X141375500Y-136894000D02*
X142075600Y-136894000D01*
X135763000Y-122326400D02*
X134391400Y-122326400D01*
X134391400Y-122326400D02*
X134199000Y-122134000D01*
X134199000Y-122134000D02*
X132787000Y-122134000D01*
%TO.N,HS_ULPI_DIR*%
X142185200Y-136394000D02*
X141375500Y-136394000D01*
X132787000Y-121634000D02*
X132819000Y-121666000D01*
X134620000Y-121920000D02*
X135255000Y-121920000D01*
X135509000Y-121666000D02*
X137160000Y-121666000D01*
X132819000Y-121666000D02*
X134366000Y-121666000D01*
X135255000Y-121920000D02*
X135509000Y-121666000D01*
X134366000Y-121666000D02*
X134620000Y-121920000D01*
X143459200Y-137668000D02*
X142185200Y-136394000D01*
%TO.N,HS_ULPI_STP*%
X134721600Y-120548400D02*
X134620000Y-120650000D01*
X142951200Y-136144000D02*
X142500886Y-136144000D01*
X136271000Y-121056400D02*
X135864600Y-120650000D01*
X143408400Y-136702800D02*
X143408400Y-136601200D01*
X135864600Y-120650000D02*
X135382000Y-120650000D01*
X142250886Y-135894000D02*
X141375500Y-135894000D01*
X134620000Y-120650000D02*
X132803000Y-120650000D01*
X135382000Y-120650000D02*
X135280400Y-120548400D01*
X135280400Y-120548400D02*
X134721600Y-120548400D01*
X132803000Y-120650000D02*
X132787000Y-120634000D01*
X142500886Y-136144000D02*
X142250886Y-135894000D01*
X143408400Y-136601200D02*
X142951200Y-136144000D01*
%TO.N,HS_ULPI_CK*%
X136550400Y-123545600D02*
X136448800Y-123545600D01*
X141375500Y-135394000D02*
X142089200Y-135394000D01*
X142089200Y-135394000D02*
X142189200Y-135494000D01*
X135991600Y-127279400D02*
X135962000Y-127309000D01*
X142189200Y-135494000D02*
X143266400Y-135494000D01*
X136448800Y-123545600D02*
X135991600Y-124002800D01*
X144170400Y-136398000D02*
X143266400Y-135494000D01*
X135991600Y-124002800D02*
X135991600Y-127279400D01*
%TO.N,Net-(C29-Pad1)*%
D67*
X134721600Y-137922000D02*
X134620000Y-137922000D01*
X136500500Y-134894000D02*
X135971600Y-134894000D01*
X135971600Y-134894000D02*
X135636000Y-135229600D01*
X135077200Y-137261600D02*
X135077200Y-137566400D01*
X142169200Y-134894000D02*
X142392400Y-134670800D01*
X141375500Y-134894000D02*
X142169200Y-134894000D01*
X135636000Y-135229600D02*
X135382000Y-135229600D01*
X135077200Y-137566400D02*
X134721600Y-137922000D01*
%TO.N,HS_ULPI_D7*%
D65*
X138962000Y-111959000D02*
X138962000Y-113206400D01*
X138962000Y-113206400D02*
X139446000Y-113690400D01*
X145846800Y-131826000D02*
X144119600Y-131826000D01*
X140688000Y-133276400D02*
X140688000Y-133706500D01*
X144119600Y-131826000D02*
X142798800Y-133146800D01*
X140817600Y-133146800D02*
X140688000Y-133276400D01*
X142798800Y-133146800D02*
X140817600Y-133146800D01*
X139446000Y-113690400D02*
X140360400Y-113690400D01*
%TO.N,HS_ULPI_D6*%
X149402800Y-130098800D02*
X149402800Y-125425200D01*
X149111600Y-125134000D02*
X148137000Y-125134000D01*
X144188914Y-131191000D02*
X148310600Y-131191000D01*
X140188000Y-133014400D02*
X140462000Y-132740400D01*
X148310600Y-131191000D02*
X149402800Y-130098800D01*
X149402800Y-125425200D02*
X149111600Y-125134000D01*
X142639514Y-132740400D02*
X144188914Y-131191000D01*
X140462000Y-132740400D02*
X142639514Y-132740400D01*
X140188000Y-133706500D02*
X140188000Y-133014400D01*
%TO.N,HS_ULPI_D5*%
X148183600Y-128879600D02*
X146380200Y-130683000D01*
X140265686Y-132327114D02*
X139688000Y-132904800D01*
X146380200Y-130683000D02*
X144131228Y-130683000D01*
X148137000Y-125634000D02*
X148183600Y-125680600D01*
X139688000Y-132904800D02*
X139688000Y-133706500D01*
D67*
X148182200Y-125679200D02*
X148137000Y-125634000D01*
D65*
X142487114Y-132327114D02*
X140265686Y-132327114D01*
X148183600Y-125680600D02*
X148183600Y-128879600D01*
X144131228Y-130683000D02*
X142487114Y-132327114D01*
%TO.N,HS_ULPI_D4*%
X144754600Y-130175000D02*
X144983200Y-129946400D01*
X144983200Y-129946400D02*
X144983200Y-127330200D01*
X144983200Y-127330200D02*
X144962000Y-127309000D01*
X142331271Y-131917271D02*
X144073542Y-130175000D01*
X139188000Y-133706500D02*
X139188000Y-132744400D01*
X140015129Y-131917271D02*
X142331271Y-131917271D01*
X144073542Y-130175000D02*
X144754600Y-130175000D01*
X139188000Y-132744400D02*
X140015129Y-131917271D01*
%TO.N,HS_ULPI_D3*%
X143992600Y-129667000D02*
X144297400Y-129667000D01*
X138688000Y-132584000D02*
X139852400Y-131419600D01*
X139852400Y-131419600D02*
X142240000Y-131419600D01*
X142240000Y-131419600D02*
X143992600Y-129667000D01*
X138688000Y-133706500D02*
X138688000Y-132584000D01*
X144297400Y-129667000D02*
X144462000Y-129502400D01*
X144462000Y-129502400D02*
X144462000Y-127309000D01*
%TO.N,HS_ULPI_D2*%
X138188000Y-133706500D02*
X138188000Y-129731200D01*
X138962000Y-128957200D02*
X138962000Y-127309000D01*
X138188000Y-129731200D02*
X138962000Y-128957200D01*
%TO.N,HS_ULPI_D1*%
X138480800Y-128574800D02*
X138480800Y-127327800D01*
X137688000Y-129367600D02*
X138480800Y-128574800D01*
X138480800Y-127327800D02*
X138462000Y-127309000D01*
X137688000Y-133706500D02*
X137688000Y-129367600D01*
%TO.N,Net-(U8-XI)*%
X135081200Y-135894000D02*
X136500500Y-135894000D01*
X134823200Y-135636000D02*
X135081200Y-135894000D01*
X134488000Y-135636000D02*
X134823200Y-135636000D01*
%TO.N,Net-(U8-RBIAS)*%
D67*
X134162800Y-140462000D02*
X135483600Y-139141200D01*
X135483600Y-139141200D02*
X136245600Y-139141200D01*
X136245600Y-139141200D02*
X136499600Y-138887200D01*
X136499600Y-138887200D02*
X136499600Y-137894900D01*
X132080000Y-140462000D02*
X134162800Y-140462000D01*
X136499600Y-137894900D02*
X136500500Y-137894000D01*
%TO.N,nCHG*%
D65*
X147447000Y-137581500D02*
X148041500Y-138176000D01*
X150977600Y-126847600D02*
X151384000Y-126441200D01*
X153543000Y-149080000D02*
X153561000Y-149080000D01*
X147447000Y-135636000D02*
X147447000Y-137581500D01*
X153561000Y-149080000D02*
X155067000Y-147574000D01*
X149261200Y-122134000D02*
X149860000Y-122732800D01*
X151485600Y-135839200D02*
X151485600Y-135178800D01*
X151384000Y-126441200D02*
X151384000Y-123850400D01*
X148137000Y-122134000D02*
X149261200Y-122134000D01*
X148041500Y-138176000D02*
X148041500Y-138569000D01*
X151384000Y-123850400D02*
X151282400Y-123748800D01*
X147955000Y-135128000D02*
X147447000Y-135636000D01*
X150977600Y-134670800D02*
X150977600Y-126847600D01*
X151485600Y-135178800D02*
X150977600Y-134670800D01*
%TO.N,Net-(LD2-A)*%
X153924000Y-150749000D02*
X156210000Y-150749000D01*
X153543000Y-151130000D02*
X153924000Y-150749000D01*
%TO.N,SDMMC_CMD*%
X138182400Y-99879200D02*
X138188700Y-99885500D01*
X134359600Y-99879200D02*
X138182400Y-99879200D01*
X138684000Y-99390200D02*
X138684000Y-98006000D01*
X138188700Y-99885500D02*
X138684000Y-99390200D01*
X138684000Y-98006000D02*
X138725000Y-97965000D01*
%TO.N,SDMMC_D0*%
X142079600Y-100634800D02*
X143125000Y-99589400D01*
X148121000Y-118618000D02*
X148137000Y-118634000D01*
X146710400Y-118618000D02*
X148121000Y-118618000D01*
X135280400Y-100634800D02*
X142079600Y-100634800D01*
X143125000Y-99589400D02*
X143125000Y-97965000D01*
X146659600Y-118668800D02*
X146710400Y-118618000D01*
X145084800Y-118668800D02*
X146659600Y-118668800D01*
X143154400Y-97994400D02*
X143125000Y-97965000D01*
%TO.N,SDMMC_D1*%
X146584800Y-118134000D02*
X148137000Y-118134000D01*
X146050000Y-117754400D02*
X146205200Y-117754400D01*
X146205200Y-117754400D02*
X146584800Y-118134000D01*
X144373600Y-98113600D02*
X144225000Y-97965000D01*
X148110200Y-118160800D02*
X148137000Y-118134000D01*
%TO.N,SDMMC_CD*%
X134010400Y-114604800D02*
X134670800Y-113944400D01*
X132787000Y-116634000D02*
X133657600Y-116634000D01*
X134010400Y-116281200D02*
X134010400Y-114604800D01*
X133657600Y-116634000D02*
X134010400Y-116281200D01*
%TO.N,F9P_SAFEBOOT_N*%
D66*
X164506001Y-115909999D02*
X164506001Y-114598000D01*
D65*
X162763200Y-118414800D02*
X163830000Y-117348000D01*
X142036800Y-122123200D02*
X141173200Y-122123200D01*
X142462000Y-127309000D02*
X142462000Y-125907514D01*
X143611600Y-124757914D02*
X143611600Y-123698000D01*
D66*
X163830000Y-116586000D02*
X164506001Y-115909999D01*
D65*
X142462000Y-125907514D02*
X143611600Y-124757914D01*
X143611600Y-123698000D02*
X142036800Y-122123200D01*
X162763200Y-118770400D02*
X162763200Y-118414800D01*
D66*
X163830000Y-117348000D02*
X163830000Y-116586000D01*
%TO.N,/ZED-F9P-05B/GANT*%
D69*
X173637001Y-110698001D02*
X173736000Y-110797000D01*
D68*
X169756000Y-110698001D02*
X173637001Y-110698001D01*
%TO.N,F9P_ANT_DETECT*%
D65*
X139649200Y-124358400D02*
X138328400Y-124358400D01*
X171947200Y-108498000D02*
X169756000Y-108498000D01*
X138328400Y-124358400D02*
X137462000Y-125224800D01*
X171958000Y-108508800D02*
X171947200Y-108498000D01*
X137462000Y-125224800D02*
X137462000Y-127309000D01*
%TO.N,F9P_ANT_OFF*%
X138001643Y-126056757D02*
X138001643Y-127269357D01*
X140258800Y-124612400D02*
X139242800Y-125628400D01*
X171043600Y-107391200D02*
X171036800Y-107398000D01*
X138430000Y-125628400D02*
X138001643Y-126056757D01*
X140258800Y-124002800D02*
X140258800Y-124612400D01*
X139242800Y-125628400D02*
X138430000Y-125628400D01*
X171036800Y-107398000D02*
X169756000Y-107398000D01*
X139242800Y-120853200D02*
X139242800Y-122986800D01*
X139242800Y-122986800D02*
X140258800Y-124002800D01*
X138001643Y-127269357D02*
X137962000Y-127309000D01*
%TO.N,F9P_ANT_SHORT*%
X140665200Y-124790200D02*
X139462000Y-125993400D01*
X139852400Y-122682000D02*
X140665200Y-123494800D01*
X172567600Y-106273600D02*
X172543201Y-106297999D01*
X139462000Y-125993400D02*
X139462000Y-127309000D01*
X172543201Y-106297999D02*
X169756000Y-106297999D01*
X140665200Y-123494800D02*
X140665200Y-124790200D01*
%TO.N,F9P_GEOFENCE_STAT*%
X137820400Y-121259600D02*
X137820400Y-122021600D01*
X137185400Y-120624600D02*
X137820400Y-121259600D01*
X137160000Y-123799600D02*
X136462000Y-124497600D01*
X137160000Y-122682000D02*
X137160000Y-123799600D01*
X136462000Y-124497600D02*
X136462000Y-127309000D01*
X137820400Y-122021600D02*
X137160000Y-122682000D01*
%TO.N,F9P_RTK_STAT*%
X137566400Y-124002800D02*
X136962000Y-124607200D01*
X137820400Y-124002800D02*
X137566400Y-124002800D01*
X136962000Y-124607200D02*
X136962000Y-127309000D01*
%TO.N,UART5_RX_F9P_TXD*%
X138480800Y-114808000D02*
X138480800Y-114834000D01*
X136956800Y-111964200D02*
X136956800Y-113284000D01*
X136956800Y-113284000D02*
X138480800Y-114808000D01*
X136962000Y-111959000D02*
X136956800Y-111964200D01*
X144881600Y-114757200D02*
X145542000Y-114096800D01*
X144881600Y-114834000D02*
X144881600Y-114757200D01*
X145542000Y-114096800D02*
X146100800Y-114096800D01*
X138480800Y-114834000D02*
X144881600Y-114834000D01*
%TO.N,UART5_TX_F9P_RXD*%
X156768800Y-113284000D02*
X156768800Y-114560799D01*
X136462000Y-111959000D02*
X136462000Y-113398800D01*
X145237200Y-115234000D02*
X145460000Y-115011200D01*
X145460000Y-115011200D02*
X145542000Y-115011200D01*
X156768800Y-114560799D02*
X156806001Y-114598000D01*
X138297200Y-115234000D02*
X145237200Y-115234000D01*
X136462000Y-113398800D02*
X138297200Y-115234000D01*
%TO.N,F9P_TX_READY*%
X141158957Y-119380000D02*
X139852400Y-119380000D01*
X144945200Y-125260000D02*
X144945200Y-123166243D01*
X160105999Y-115909999D02*
X160477200Y-116281200D01*
X143962000Y-127309000D02*
X143967200Y-127303800D01*
X143967200Y-126238000D02*
X144945200Y-125260000D01*
X143967200Y-127303800D02*
X143967200Y-126238000D01*
X160105999Y-114598000D02*
X160105999Y-115909999D01*
X144945200Y-123166243D02*
X141158957Y-119380000D01*
%TO.N,F9P_D_SEL*%
X143462000Y-127309000D02*
X143459200Y-127306200D01*
X143459200Y-126085600D02*
X144526000Y-125018800D01*
X144545200Y-125018800D02*
X144545200Y-123353886D01*
X143459200Y-127306200D02*
X143459200Y-126085600D01*
X141231714Y-120040400D02*
X140462000Y-120040400D01*
X144545200Y-123353886D02*
X141231714Y-120040400D01*
X161206000Y-114598000D02*
X161206000Y-116873200D01*
X161188400Y-116890800D02*
X161206000Y-116873200D01*
X144526000Y-125018800D02*
X144545200Y-125018800D01*
%TO.N,F9P_RESET_N*%
X163406000Y-115587600D02*
X162306000Y-116687600D01*
X142951200Y-127298200D02*
X142951200Y-125984000D01*
X144145200Y-123520400D02*
X141376400Y-120751600D01*
X157988000Y-118618000D02*
X157988000Y-117262400D01*
X142962000Y-127309000D02*
X142951200Y-127298200D01*
X162306000Y-116687600D02*
X162306000Y-117551200D01*
X141376400Y-120751600D02*
X140919200Y-120751600D01*
X144145200Y-124790000D02*
X144145200Y-123520400D01*
X163406000Y-114598000D02*
X163406000Y-115587600D01*
X157988000Y-117262400D02*
X157972000Y-117246400D01*
X142951200Y-125984000D02*
X144145200Y-124790000D01*
%TO.N,F9P_EXTINT*%
X143205200Y-123901200D02*
X142189200Y-122885200D01*
X143211600Y-124592228D02*
X143211600Y-123901200D01*
X165606001Y-115724399D02*
X165606001Y-114598000D01*
X141962000Y-127309000D02*
X141962000Y-125841828D01*
X143211600Y-123901200D02*
X143205200Y-123901200D01*
X164846000Y-116484400D02*
X165606001Y-115724399D01*
X164846000Y-118821200D02*
X164846000Y-116484400D01*
X142189200Y-122885200D02*
X141681200Y-122885200D01*
X141962000Y-125841828D02*
X143211600Y-124592228D01*
%TO.N,F9P_TIMEP*%
X167792400Y-116484400D02*
X167792400Y-114611602D01*
X140716000Y-122783600D02*
X140716000Y-122529600D01*
X139903200Y-121716800D02*
X139903200Y-120599200D01*
X141462000Y-123529600D02*
X140716000Y-122783600D01*
X142811600Y-124073286D02*
X142261957Y-123523643D01*
X142798800Y-124358400D02*
X142811600Y-124358400D01*
X167792400Y-114611602D02*
X167806002Y-114598000D01*
X142811600Y-124358400D02*
X142811600Y-124073286D01*
X142261957Y-123523643D02*
X142256000Y-123529600D01*
X141462000Y-127309000D02*
X141462000Y-125695200D01*
X140716000Y-122529600D02*
X139903200Y-121716800D01*
X142256000Y-123529600D02*
X141462000Y-123529600D01*
X139903200Y-120599200D02*
X139293600Y-119989600D01*
X141462000Y-125695200D02*
X142798800Y-124358400D01*
%TO.N,NRST*%
X132787000Y-120137800D02*
X132791200Y-120142000D01*
X125984000Y-118973600D02*
X127152400Y-120142000D01*
X135991600Y-101346000D02*
X128473200Y-101346000D01*
X128473200Y-101346000D02*
X128422400Y-101295200D01*
X132779000Y-120142000D02*
X132787000Y-120134000D01*
X125984000Y-116332000D02*
X125984000Y-118973600D01*
X126796800Y-115112800D02*
X126796800Y-115519200D01*
X127152400Y-120142000D02*
X132779000Y-120142000D01*
X126796800Y-115519200D02*
X125984000Y-116332000D01*
X132787000Y-120137800D02*
X132787000Y-120134000D01*
%TO.N,Net-(D1-K)*%
D67*
X124714000Y-148050000D02*
X124714000Y-149860000D01*
X132881999Y-148550001D02*
X133096000Y-148336000D01*
X131939000Y-148549999D02*
X132587998Y-148549999D01*
X132588000Y-148550001D02*
X132881999Y-148550001D01*
X133350000Y-148336000D02*
X133604000Y-148082000D01*
X132587998Y-148549999D02*
X132588000Y-148550001D01*
X120524000Y-148050000D02*
X120524000Y-148972000D01*
D65*
X122809000Y-148050000D02*
X124714000Y-148050000D01*
D67*
X133096000Y-148336000D02*
X133350000Y-148336000D01*
X121412000Y-149860000D02*
X124714000Y-149860000D01*
X120524000Y-148972000D02*
X121412000Y-149860000D01*
%TO.N,PD6_LD4*%
D65*
X140962000Y-110126400D02*
X140766800Y-109931200D01*
X140766800Y-108559600D02*
X140868400Y-108458000D01*
X140970000Y-108458000D02*
X141020800Y-108508800D01*
X140766800Y-109931200D02*
X140766800Y-108559600D01*
X140868400Y-108458000D02*
X140970000Y-108458000D01*
X140962000Y-111959000D02*
X140962000Y-110126400D01*
%TO.N,Net-(LD4-A)*%
X160747200Y-121513600D02*
X160848800Y-121615200D01*
X158606600Y-121513600D02*
X160747200Y-121513600D01*
%TO.N,PD5_LD3*%
X141462000Y-110912400D02*
X142036800Y-110337600D01*
X141462000Y-111959000D02*
X141462000Y-110912400D01*
X155143200Y-123647200D02*
X156556600Y-123647200D01*
X142036800Y-110337600D02*
X142392400Y-110337600D01*
%TO.N,Net-(LD3-A)*%
X158606600Y-123647200D02*
X160798000Y-123647200D01*
%TO.N,Net-(LD1-A)*%
X154940000Y-150114000D02*
X149860000Y-150114000D01*
X149860000Y-150114000D02*
X148844000Y-151130000D01*
X156210000Y-148844000D02*
X154940000Y-150114000D01*
%TO.N,+5V*%
D67*
X127762000Y-145542000D02*
X127762000Y-147574000D01*
X145415000Y-139573000D02*
X145419000Y-139569000D01*
X153416000Y-143002000D02*
X154178000Y-143764000D01*
X146050000Y-139569000D02*
X146812000Y-139569000D01*
X157302200Y-146507200D02*
X156057600Y-146507200D01*
X156057600Y-146507200D02*
X154559000Y-145008600D01*
X145415000Y-138811000D02*
X147193000Y-138811000D01*
X127889000Y-145415000D02*
X127762000Y-145542000D01*
X158210000Y-148844000D02*
X158210000Y-147415000D01*
X158210000Y-150749000D02*
X158210000Y-148844000D01*
X158210000Y-147415000D02*
X157302200Y-146507200D01*
X126492000Y-148336000D02*
X127254000Y-147574000D01*
X127785999Y-147550001D02*
X127762000Y-147574000D01*
X148041500Y-139569000D02*
X146812000Y-139569000D01*
X154559000Y-145008600D02*
X154559000Y-143764000D01*
X154178000Y-143764000D02*
X154559000Y-143764000D01*
X151384000Y-142240000D02*
X152019000Y-142240000D01*
X145419000Y-139569000D02*
X146300000Y-139569000D01*
X147451000Y-139069000D02*
X148041500Y-139069000D01*
X128919000Y-147550001D02*
X127785999Y-147550001D01*
X150749000Y-141605000D02*
X151384000Y-142240000D01*
X147193000Y-138811000D02*
X147451000Y-139069000D01*
X146300000Y-139569000D02*
X146304000Y-139573000D01*
X127254000Y-147574000D02*
X127762000Y-147574000D01*
X152019000Y-142240000D02*
X152781000Y-143002000D01*
X152781000Y-143002000D02*
X153416000Y-143002000D01*
X128919000Y-148050000D02*
X128919000Y-147550001D01*
X146812000Y-139569000D02*
X145419000Y-139569000D01*
%TO.N,SYSOFF*%
D65*
X149733000Y-140760500D02*
X149729000Y-140756500D01*
X153924000Y-145288000D02*
X153924000Y-146812000D01*
X152654000Y-144304000D02*
X152654000Y-143637000D01*
X140462000Y-110540800D02*
X140462000Y-111959000D01*
X140157200Y-108458000D02*
X140157200Y-110236000D01*
X153924000Y-146812000D02*
X154178000Y-147066000D01*
X149733000Y-141859000D02*
X149733000Y-140760500D01*
X151003000Y-143129000D02*
X149733000Y-141859000D01*
X152146000Y-143129000D02*
X151003000Y-143129000D01*
X152654000Y-144304000D02*
X152940000Y-144304000D01*
X152940000Y-144304000D02*
X153924000Y-145288000D01*
X152654000Y-143637000D02*
X152146000Y-143129000D01*
X140157200Y-110236000D02*
X140462000Y-110540800D01*
%TO.N,Net-(U1-TS)*%
X152019000Y-140081000D02*
X152273000Y-139827000D01*
X150916500Y-140069000D02*
X152007000Y-140069000D01*
X152273000Y-139827000D02*
X153416000Y-139827000D01*
X152007000Y-140069000D02*
X152019000Y-140081000D01*
%TO.N,BQ24975_nCE*%
X152146000Y-136652000D02*
X152146000Y-137871200D01*
X151448200Y-138569000D02*
X150916500Y-138569000D01*
X153924000Y-121818400D02*
X153212800Y-122529600D01*
X152723800Y-136074200D02*
X152146000Y-136652000D01*
X153212800Y-126168000D02*
X153232000Y-126187200D01*
X153232000Y-126999800D02*
X152723800Y-127508000D01*
X153924000Y-117703600D02*
X153924000Y-121818400D01*
X152723800Y-127508000D02*
X152723800Y-136074200D01*
X154432000Y-116382800D02*
X154432000Y-117195600D01*
X143962000Y-111959000D02*
X143962000Y-113482000D01*
X154432000Y-117195600D02*
X153924000Y-117703600D01*
X153212800Y-122529600D02*
X153212800Y-126168000D01*
X153232000Y-126187200D02*
X153232000Y-126999800D01*
X152146000Y-137871200D02*
X151448200Y-138569000D01*
X143962000Y-113482000D02*
X143967200Y-113487200D01*
%TO.N,BQ24975_EN2*%
X149910800Y-124815600D02*
X149910800Y-124968000D01*
X142544800Y-118973600D02*
X142544800Y-118516400D01*
X146558000Y-123494800D02*
X146151600Y-123088400D01*
X149910800Y-124968000D02*
X150114000Y-125171200D01*
X141962000Y-113003200D02*
X141962000Y-111959000D01*
X146151600Y-123088400D02*
X146151600Y-122580400D01*
X150114000Y-136804400D02*
X150229000Y-136919400D01*
X150114000Y-125171200D02*
X150114000Y-136804400D01*
X141376400Y-113588800D02*
X141962000Y-113003200D01*
X146151600Y-122580400D02*
X142544800Y-118973600D01*
X150229000Y-136919400D02*
X150229000Y-137881500D01*
%TO.N,BQ24975_EN1*%
X149352000Y-136753600D02*
X149729000Y-137130600D01*
X149352000Y-136448800D02*
X149352000Y-136753600D01*
X149729000Y-137130600D02*
X149729000Y-137881500D01*
X142494000Y-113411000D02*
X142494000Y-111991000D01*
X148809000Y-135905800D02*
X149352000Y-136448800D01*
X148844000Y-132537200D02*
X148844000Y-135077200D01*
X148809000Y-135112200D02*
X148809000Y-135905800D01*
X148844000Y-135077200D02*
X148809000Y-135112200D01*
X142494000Y-111991000D02*
X142462000Y-111959000D01*
%TO.N,nPGOOD*%
X150520400Y-135534400D02*
X150520400Y-126644400D01*
X147116800Y-122631200D02*
X146812000Y-122631200D01*
X150876000Y-135890000D02*
X150520400Y-135534400D01*
X148209000Y-135890000D02*
X148234400Y-135915400D01*
X147119600Y-122634000D02*
X147116800Y-122631200D01*
X148137000Y-122634000D02*
X147119600Y-122634000D01*
X150876000Y-136906000D02*
X150876000Y-135890000D01*
X148209000Y-135890000D02*
X148844000Y-136525000D01*
X150520400Y-126644400D02*
X150876000Y-126288800D01*
X150876000Y-126288800D02*
X150876000Y-124510800D01*
X149229000Y-137291000D02*
X149229000Y-137881500D01*
X148844000Y-136906000D02*
X149229000Y-137291000D01*
X148844000Y-149080000D02*
X148844000Y-147574000D01*
X150876000Y-124510800D02*
X150774400Y-124409200D01*
X148234400Y-135915400D02*
X148234400Y-136144000D01*
X148844000Y-136525000D02*
X148844000Y-136906000D01*
%TO.N,Net-(U1-ILIM)*%
D67*
X148041500Y-140069000D02*
X148041500Y-140375500D01*
X148844000Y-144304000D02*
X148844000Y-143002000D01*
X148041500Y-140375500D02*
X147320000Y-141097000D01*
%TO.N,VBUS*%
D66*
X144823000Y-142451000D02*
X146685000Y-142451000D01*
X138059997Y-144155997D02*
X137144000Y-143240000D01*
X138059997Y-145612200D02*
X138059997Y-144155997D01*
X146685000Y-142451000D02*
X147998000Y-142451000D01*
D67*
X147998000Y-142451000D02*
X148717000Y-141732000D01*
D66*
X142859999Y-144414001D02*
X143256000Y-144018000D01*
X143256000Y-144018000D02*
X144823000Y-142451000D01*
X142859999Y-145612200D02*
X142859999Y-144414001D01*
X137144000Y-143240000D02*
X135890000Y-143240000D01*
D67*
X148729000Y-141720000D02*
X148729000Y-140756500D01*
X148717000Y-141732000D02*
X148729000Y-141720000D01*
%TO.N,Net-(U1-TMR)*%
D65*
X150749000Y-144304000D02*
X150749000Y-143510000D01*
X149225000Y-140760500D02*
X149229000Y-140756500D01*
X150749000Y-143510000D02*
X149225000Y-141986000D01*
X149225000Y-141986000D02*
X149225000Y-140760500D01*
%TO.N,Net-(U2-EN)*%
D67*
X132207000Y-150241000D02*
X132461000Y-150241000D01*
X128919000Y-148550002D02*
X127801998Y-148550002D01*
X131939000Y-149719000D02*
X132080000Y-149860000D01*
X130556000Y-151130000D02*
X131318000Y-151130000D01*
X131939000Y-149550000D02*
X131939000Y-149719000D01*
X134112000Y-150976500D02*
X134011500Y-150876000D01*
X131318000Y-151130000D02*
X132207000Y-150241000D01*
X132461000Y-150241000D02*
X132080000Y-149860000D01*
X127801998Y-148550002D02*
X127762000Y-148590000D01*
X133096000Y-150876000D02*
X132461000Y-150241000D01*
X134011500Y-150876000D02*
X133096000Y-150876000D01*
%TO.N,ESP32_GP1*%
D65*
X131826000Y-113538000D02*
X131826000Y-113588800D01*
X118364000Y-97383600D02*
X120954800Y-99974400D01*
X128574800Y-110286800D02*
X131826000Y-113538000D01*
X122123200Y-106832400D02*
X122123200Y-109880400D01*
X131871200Y-113634000D02*
X132787000Y-113634000D01*
X131826000Y-113588800D02*
X131871200Y-113634000D01*
X122529600Y-110286800D02*
X128574800Y-110286800D01*
X118364000Y-93853000D02*
X118364000Y-97383600D01*
X120954800Y-99974400D02*
X120954800Y-105664000D01*
X120954800Y-105664000D02*
X122123200Y-106832400D01*
X122123200Y-109880400D02*
X122529600Y-110286800D01*
%TO.N,ESP32_GP2*%
X119532400Y-100431600D02*
X115824000Y-96723200D01*
X119532400Y-109982000D02*
X119532400Y-100431600D01*
X132787000Y-114134000D02*
X131761600Y-114134000D01*
X128422400Y-110794800D02*
X120345200Y-110794800D01*
X131761600Y-114134000D02*
X128422400Y-110794800D01*
X120345200Y-110794800D02*
X119532400Y-109982000D01*
X115824000Y-96723200D02*
X115824000Y-93853000D01*
%TO.N,ESP32_GP3*%
X131652000Y-114634000D02*
X128219200Y-111201200D01*
X117754400Y-111201200D02*
X117043200Y-110490000D01*
X128219200Y-111201200D02*
X117754400Y-111201200D01*
X117043200Y-110490000D02*
X117043200Y-100126800D01*
X132787000Y-114634000D02*
X131652000Y-114634000D01*
X117043200Y-100126800D02*
X113284000Y-96367600D01*
X113284000Y-96367600D02*
X113284000Y-93853000D01*
%TO.N,ESP32_GP4*%
X132787000Y-115134000D02*
X131542400Y-115134000D01*
X128066800Y-111658400D02*
X116738400Y-111658400D01*
X114401600Y-109321600D02*
X114401600Y-99263200D01*
X114401600Y-99263200D02*
X110744000Y-95605600D01*
X116738400Y-111658400D02*
X114401600Y-109321600D01*
X131542400Y-115134000D02*
X128066800Y-111658400D01*
X110744000Y-95605600D02*
X110744000Y-93853000D01*
%TO.N,ESP32_GP5*%
X116027200Y-112064800D02*
X114401600Y-110439200D01*
X114401600Y-110439200D02*
X112826800Y-110439200D01*
X132787000Y-115634000D02*
X131432800Y-115634000D01*
X131432800Y-115634000D02*
X127863600Y-112064800D01*
X112014000Y-109677200D02*
X112014000Y-98501200D01*
X112801400Y-110464600D02*
X112014000Y-109677200D01*
X108204000Y-94691200D02*
X108204000Y-93853000D01*
X112826800Y-110439200D02*
X112801400Y-110464600D01*
X112014000Y-98501200D02*
X108204000Y-94691200D01*
X127863600Y-112064800D02*
X116027200Y-112064800D01*
%TO.N,MAGNETO_SPARE1*%
X140360400Y-125933200D02*
X140411200Y-125984000D01*
X140258800Y-125933200D02*
X140360400Y-125933200D01*
X139962000Y-127309000D02*
X139962000Y-126230000D01*
X139962000Y-126230000D02*
X140258800Y-125933200D01*
%TO.N,MAGNETO_SPARE2*%
X140665200Y-128574800D02*
X140665200Y-128625600D01*
X140462000Y-127309000D02*
X140462000Y-128371600D01*
X140817600Y-128778000D02*
X142748000Y-128778000D01*
X140462000Y-128371600D02*
X140665200Y-128574800D01*
X140665200Y-128625600D02*
X140817600Y-128778000D01*
%TO.N,Net-(J1-CC1)*%
X139209998Y-146829998D02*
X139446000Y-147066000D01*
X139209998Y-145612200D02*
X139209998Y-146829998D01*
%TO.N,USB_D2_P*%
X141351000Y-144653000D02*
X141478000Y-144526000D01*
X140209998Y-145612200D02*
X140209998Y-144780000D01*
X139385000Y-143957000D02*
X139385000Y-143123500D01*
X139954000Y-144526000D02*
X139955998Y-144526000D01*
X139955998Y-144526000D02*
X140209998Y-144780000D01*
X139954000Y-144526000D02*
X139385000Y-143957000D01*
X141224000Y-144653000D02*
X141351000Y-144653000D01*
X141209999Y-144667001D02*
X141224000Y-144653000D01*
X141209999Y-145612200D02*
X141209999Y-144667001D01*
%TO.N,USB_D2_N*%
X141224000Y-143184500D02*
X141285000Y-143123500D01*
X139709997Y-146440997D02*
X139954000Y-146685000D01*
X140709998Y-144278002D02*
X141224000Y-143764000D01*
X140462000Y-146685000D02*
X140589000Y-146558000D01*
X141224000Y-143764000D02*
X141224000Y-143184500D01*
X140716000Y-146431000D02*
X140709998Y-146424998D01*
X139954000Y-146685000D02*
X140462000Y-146685000D01*
X140589000Y-146558000D02*
X140716000Y-146431000D01*
X140709998Y-146424998D02*
X140709998Y-145612200D01*
X140709998Y-145612200D02*
X140709998Y-144278002D01*
X139709997Y-145612200D02*
X139709997Y-146440997D01*
%TO.N,Net-(J1-CC2)*%
X142209997Y-145612200D02*
X142209997Y-146842003D01*
X142209997Y-146842003D02*
X141986000Y-147066000D01*
%TO.N,Net-(U3-VCAP_2)*%
X150635800Y-114634000D02*
X150672800Y-114597000D01*
X148137000Y-114634000D02*
X150635800Y-114634000D01*
%TO.N,Net-(U3-VCAP_1)*%
X145462000Y-127309000D02*
X145462000Y-128444000D01*
X145745200Y-128727200D02*
X147370800Y-128727200D01*
X145462000Y-128444000D02*
X145745200Y-128727200D01*
%TO.N,SX1262_SPI2_MISO*%
X145345200Y-123812885D02*
X145513157Y-123980842D01*
X146151600Y-124663200D02*
X146971400Y-124663200D01*
X147000600Y-124634000D02*
X148137000Y-124634000D01*
X145345200Y-122978600D02*
X145345200Y-123812885D01*
X145513157Y-123980842D02*
X145513157Y-124024757D01*
X111252000Y-126796800D02*
X111252000Y-130982000D01*
X138239600Y-118757600D02*
X141124200Y-118757600D01*
X136601200Y-119938800D02*
X137058400Y-119938800D01*
X146971400Y-124663200D02*
X147000600Y-124634000D01*
X137058400Y-119938800D02*
X138239600Y-118757600D01*
X141124200Y-118757600D02*
X145345200Y-122978600D01*
X145513157Y-124024757D02*
X146151600Y-124663200D01*
%TO.N,SX1262_SPI2_MOSI*%
X135585200Y-119227600D02*
X137153600Y-119227600D01*
X145745200Y-123647200D02*
X146253200Y-124155200D01*
X147074400Y-124155200D02*
X147095600Y-124134000D01*
X145745200Y-122783600D02*
X145745200Y-123647200D01*
X147095600Y-124134000D02*
X148137000Y-124134000D01*
X141319200Y-118357600D02*
X145745200Y-122783600D01*
X138023600Y-118357600D02*
X141319200Y-118357600D01*
X146253200Y-124155200D02*
X147074400Y-124155200D01*
X113944400Y-130829600D02*
X113792000Y-130982000D01*
X137153600Y-119227600D02*
X138023600Y-118357600D01*
X113944400Y-125780800D02*
X113944400Y-130829600D01*
%TO.N,SX1262_RXEN*%
X147040600Y-119634000D02*
X148137000Y-119634000D01*
X144823914Y-119837200D02*
X146837400Y-119837200D01*
X118872000Y-119176800D02*
X118872000Y-114382000D01*
X146837400Y-119837200D02*
X147040600Y-119634000D01*
X136042400Y-118567200D02*
X137001200Y-118567200D01*
X137001200Y-118567200D02*
X137617200Y-117951200D01*
X137623600Y-117957600D02*
X142944314Y-117957600D01*
X142944314Y-117957600D02*
X144823914Y-119837200D01*
X137617200Y-117951200D02*
X137623600Y-117957600D01*
%TO.N,SX1262_TXEN*%
X146608800Y-119380000D02*
X144932400Y-119380000D01*
X136601200Y-117652800D02*
X136601200Y-117856000D01*
X143103600Y-117551200D02*
X136702800Y-117551200D01*
X136702800Y-117551200D02*
X136601200Y-117652800D01*
X148137000Y-119134000D02*
X146854800Y-119134000D01*
X116332000Y-117805200D02*
X116332000Y-114382000D01*
X146854800Y-119134000D02*
X146608800Y-119380000D01*
X144932400Y-119380000D02*
X143103600Y-117551200D01*
%TO.N,SX1262_SPI2_SCK*%
X135280400Y-118160800D02*
X135229600Y-118160800D01*
X116382800Y-130931200D02*
X116332000Y-130982000D01*
X148137000Y-117134000D02*
X136307200Y-117134000D01*
X116382800Y-124104400D02*
X116382800Y-130931200D01*
X136307200Y-117134000D02*
X135280400Y-118160800D01*
%TO.N,SX1262_SPI2_CS*%
X135737600Y-116840000D02*
X135229600Y-117348000D01*
X118922800Y-122275600D02*
X118922800Y-130931200D01*
X148137000Y-116634000D02*
X135943600Y-116634000D01*
X135943600Y-116634000D02*
X135737600Y-116840000D01*
X118922800Y-130931200D02*
X118872000Y-130982000D01*
%TO.N,SX1262_SPI2_RST*%
X108712000Y-124764800D02*
X108712000Y-130982000D01*
X108762800Y-124714000D02*
X108712000Y-124764800D01*
X148137000Y-116134000D02*
X135580000Y-116134000D01*
X135580000Y-116134000D02*
X135229600Y-116484400D01*
%TO.N,SX1262_SPI2_BUSY*%
X135242800Y-115634000D02*
X135229600Y-115620800D01*
X148137000Y-115634000D02*
X135242800Y-115634000D01*
X106172000Y-123901200D02*
X106172000Y-130982000D01*
%TO.N,SX1262_SPI2_DIO2*%
X113030000Y-111099600D02*
X110286800Y-111099600D01*
X110286800Y-111099600D02*
X109423200Y-110236000D01*
X125171200Y-103022400D02*
X125171200Y-103174800D01*
X113792000Y-111861600D02*
X113030000Y-111099600D01*
X109423200Y-110236000D02*
X109423200Y-105816400D01*
X125171200Y-103022400D02*
X125222000Y-102971600D01*
X113792000Y-114382000D02*
X113792000Y-111861600D01*
%TO.N,SX1262_SPI2_DIO1*%
X111252000Y-112115600D02*
X110896400Y-111760000D01*
X108051600Y-111760000D02*
X106934000Y-110642400D01*
X110896400Y-111760000D02*
X108051600Y-111760000D01*
X106934000Y-110642400D02*
X106934000Y-104597200D01*
X111252000Y-114382000D02*
X111252000Y-112115600D01*
%TO.N,BOOT0*%
D67*
X121666000Y-135382000D02*
X120904000Y-134620000D01*
X121666000Y-136398000D02*
X121666000Y-135382000D01*
X115824000Y-135890000D02*
X116840000Y-135890000D01*
X116840000Y-135890000D02*
X118110000Y-134620000D01*
D65*
X117551200Y-134061200D02*
X118110000Y-134620000D01*
D67*
X118110000Y-134620000D02*
X120904000Y-134620000D01*
D65*
X117551200Y-119583200D02*
X117551200Y-134061200D01*
%TD*%
%TA.AperFunction,Conductor*%
%TO.N,+5V*%
G36*
X146980867Y-138426270D02*
G01*
X147047682Y-138446690D01*
X147092854Y-138499994D01*
X147103500Y-138550261D01*
X147103500Y-138668402D01*
X147117988Y-138778463D01*
X147117991Y-138778472D01*
X147174721Y-138915430D01*
X147176385Y-138918312D01*
X147177246Y-138921526D01*
X147177831Y-138922938D01*
X147177645Y-138923014D01*
X147193000Y-138980315D01*
X147193000Y-139657684D01*
X147191364Y-139665894D01*
X147192283Y-139670997D01*
X147187323Y-139686187D01*
X147183539Y-139705191D01*
X147178223Y-139718006D01*
X147174721Y-139722571D01*
X147117991Y-139859528D01*
X147117277Y-139864946D01*
X147112068Y-139877507D01*
X147095047Y-139898607D01*
X147080939Y-139921754D01*
X147073437Y-139925397D01*
X147068201Y-139931890D01*
X147042472Y-139940439D01*
X147018091Y-139952283D01*
X147003052Y-139953538D01*
X147001896Y-139953923D01*
X147001048Y-139953706D01*
X146997529Y-139954000D01*
X145159372Y-139954000D01*
X145092333Y-139934315D01*
X145046578Y-139881511D01*
X145035379Y-139828637D01*
X145045338Y-138922938D01*
X145049669Y-138529041D01*
X145070090Y-138462224D01*
X145123394Y-138417052D01*
X145175023Y-138406413D01*
X146980867Y-138426270D01*
G37*
%TD.AperFunction*%
%TD*%
%TA.AperFunction,Conductor*%
%TO.N,GND*%
G36*
X128213039Y-139973685D02*
G01*
X128258794Y-140026489D01*
X128270000Y-140078000D01*
X128270000Y-143640000D01*
X128250315Y-143707039D01*
X128197511Y-143752794D01*
X128146000Y-143764000D01*
X126362000Y-143764000D01*
X126294961Y-143744315D01*
X126249206Y-143691511D01*
X126238000Y-143640000D01*
X126238000Y-140078000D01*
X126257685Y-140010961D01*
X126310489Y-139965206D01*
X126362000Y-139954000D01*
X128146000Y-139954000D01*
X128213039Y-139973685D01*
G37*
%TD.AperFunction*%
%TD*%
%TA.AperFunction,Conductor*%
%TO.N,+3V3*%
G36*
X123387039Y-140481685D02*
G01*
X123432794Y-140534489D01*
X123444000Y-140586000D01*
X123444000Y-142624000D01*
X123424315Y-142691039D01*
X123371511Y-142736794D01*
X123320000Y-142748000D01*
X121790000Y-142748000D01*
X121722961Y-142728315D01*
X121677206Y-142675511D01*
X121666000Y-142624000D01*
X121666000Y-140586000D01*
X121685685Y-140518961D01*
X121738489Y-140473206D01*
X121790000Y-140462000D01*
X123320000Y-140462000D01*
X123387039Y-140481685D01*
G37*
%TD.AperFunction*%
%TD*%
%TA.AperFunction,Conductor*%
%TO.N,+3V3*%
G36*
X135071039Y-145053685D02*
G01*
X135116794Y-145106489D01*
X135128000Y-145158000D01*
X135128000Y-147425998D01*
X135108315Y-147493037D01*
X135055511Y-147538792D01*
X135004000Y-147549998D01*
X134620000Y-147549998D01*
X134255438Y-147549998D01*
X134188399Y-147530313D01*
X134167756Y-147513678D01*
X134114292Y-147460213D01*
X134114288Y-147460210D01*
X133983185Y-147372609D01*
X133983172Y-147372602D01*
X133837501Y-147312264D01*
X133837489Y-147312261D01*
X133682845Y-147281500D01*
X133682842Y-147281500D01*
X133525158Y-147281500D01*
X133525155Y-147281500D01*
X133370510Y-147312261D01*
X133370498Y-147312264D01*
X133224827Y-147372602D01*
X133224814Y-147372609D01*
X133093711Y-147460210D01*
X133093706Y-147460214D01*
X133076160Y-147477760D01*
X133014836Y-147511244D01*
X132945145Y-147506258D01*
X132889212Y-147464385D01*
X132864797Y-147398920D01*
X132864487Y-147391281D01*
X132843194Y-145159182D01*
X132862238Y-145091959D01*
X132914603Y-145045702D01*
X132967188Y-145034000D01*
X135004000Y-145034000D01*
X135071039Y-145053685D01*
G37*
%TD.AperFunction*%
%TD*%
%TA.AperFunction,Conductor*%
%TO.N,+5V*%
G36*
X128213039Y-145053685D02*
G01*
X128258794Y-145106489D01*
X128270000Y-145158000D01*
X128270000Y-145744638D01*
X128250315Y-145811677D01*
X128233681Y-145832319D01*
X128016000Y-146049999D01*
X128016000Y-146285719D01*
X128015290Y-146298973D01*
X128014909Y-146302516D01*
X128014909Y-146302517D01*
X128008500Y-146362127D01*
X128008500Y-146362132D01*
X128008500Y-146362133D01*
X128008500Y-146737869D01*
X128008501Y-146737874D01*
X128013755Y-146786745D01*
X128013755Y-146813249D01*
X128008500Y-146862126D01*
X128008500Y-146862131D01*
X128008500Y-146862132D01*
X128008500Y-147237868D01*
X128008501Y-147237875D01*
X128015290Y-147301028D01*
X128016000Y-147314281D01*
X128016000Y-147626001D01*
X127996315Y-147693040D01*
X127943511Y-147738795D01*
X127886932Y-147748223D01*
X127886932Y-147749502D01*
X127723153Y-147749502D01*
X127568508Y-147780263D01*
X127568496Y-147780266D01*
X127476045Y-147818561D01*
X127467868Y-147820187D01*
X127463528Y-147822977D01*
X127428593Y-147828000D01*
X127305362Y-147828000D01*
X127238323Y-147808315D01*
X127217681Y-147791681D01*
X126782319Y-147356319D01*
X126748834Y-147294996D01*
X126746000Y-147268638D01*
X126746000Y-145158000D01*
X126765685Y-145090961D01*
X126818489Y-145045206D01*
X126870000Y-145034000D01*
X128146000Y-145034000D01*
X128213039Y-145053685D01*
G37*
%TD.AperFunction*%
%TD*%
M02*
