%TF.GenerationSoftware,KiCad,Pcbnew,10.0.1*%
%TF.CreationDate,2026-06-25T14:26:35+01:00*%
%TF.ProjectId,rtk,72746b2e-6b69-4636-9164-5f7063625858,rev?*%
%TF.SameCoordinates,Original*%
%TF.FileFunction,Copper,L4,Bot*%
%TF.FilePolarity,Positive*%
%FSLAX46Y46*%
G04 Gerber Fmt 4.6, Leading zero omitted, Abs format (unit mm)*
G04 Created by KiCad (PCBNEW 10.0.1) date 2026-06-25 14:26:35*
%MOMM*%
%LPD*%
G01*
G04 APERTURE LIST*
G04 Aperture macros list*
%AMRoundRect*
0 Rectangle with rounded corners*
0 $1 Rounding radius*
0 $2 $3 $4 $5 $6 $7 $8 $9 X,Y pos of 4 corners*
0 Add a 4 corners polygon primitive as box body*
4,1,4,$2,$3,$4,$5,$6,$7,$8,$9,$2,$3,0*
0 Add four circle primitives for the rounded corners*
1,1,$1+$1,$2,$3*
1,1,$1+$1,$4,$5*
1,1,$1+$1,$6,$7*
1,1,$1+$1,$8,$9*
0 Add four rect primitives between the rounded corners*
20,1,$1+$1,$2,$3,$4,$5,0*
20,1,$1+$1,$4,$5,$6,$7,0*
20,1,$1+$1,$6,$7,$8,$9,0*
20,1,$1+$1,$8,$9,$2,$3,0*%
G04 Aperture macros list end*
%ADD10C,0.200000*%
%TA.AperFunction,NonConductor*%
%ADD11C,0.200000*%
%TD*%
%TA.AperFunction,ComponentPad*%
%ADD12R,1.700000X1.700000*%
%TD*%
%TA.AperFunction,ComponentPad*%
%ADD13C,1.700000*%
%TD*%
%TA.AperFunction,ComponentPad*%
%ADD14C,1.508000*%
%TD*%
%TA.AperFunction,ComponentPad*%
%ADD15R,1.508000X1.508000*%
%TD*%
%TA.AperFunction,WasherPad*%
%ADD16O,0.990600X2.108200*%
%TD*%
%TA.AperFunction,WasherPad*%
%ADD17O,0.990600X1.803400*%
%TD*%
%TA.AperFunction,ComponentPad*%
%ADD18C,0.508000*%
%TD*%
%TA.AperFunction,ComponentPad*%
%ADD19RoundRect,0.200100X0.949900X-0.949900X0.949900X0.949900X-0.949900X0.949900X-0.949900X-0.949900X0*%
%TD*%
%TA.AperFunction,ComponentPad*%
%ADD20C,2.200000*%
%TD*%
%TA.AperFunction,SMDPad,CuDef*%
%ADD21RoundRect,0.250000X0.337500X0.475000X-0.337500X0.475000X-0.337500X-0.475000X0.337500X-0.475000X0*%
%TD*%
%TA.AperFunction,SMDPad,CuDef*%
%ADD22RoundRect,0.250000X-0.337500X-0.475000X0.337500X-0.475000X0.337500X0.475000X-0.337500X0.475000X0*%
%TD*%
%TA.AperFunction,SMDPad,CuDef*%
%ADD23RoundRect,0.250000X-0.475000X0.337500X-0.475000X-0.337500X0.475000X-0.337500X0.475000X0.337500X0*%
%TD*%
%TA.AperFunction,SMDPad,CuDef*%
%ADD24RoundRect,0.250000X-0.450000X0.350000X-0.450000X-0.350000X0.450000X-0.350000X0.450000X0.350000X0*%
%TD*%
%TA.AperFunction,SMDPad,CuDef*%
%ADD25RoundRect,0.250000X0.475000X-0.337500X0.475000X0.337500X-0.475000X0.337500X-0.475000X-0.337500X0*%
%TD*%
%TA.AperFunction,ViaPad*%
%ADD26C,0.600000*%
%TD*%
%TA.AperFunction,Conductor*%
%ADD27C,0.200000*%
%TD*%
%TA.AperFunction,Conductor*%
%ADD28C,0.400000*%
%TD*%
%TA.AperFunction,Conductor*%
%ADD29C,0.500000*%
%TD*%
%TA.AperFunction,Conductor*%
%ADD30C,0.300000*%
%TD*%
%TA.AperFunction,Conductor*%
%ADD31C,0.600000*%
%TD*%
G04 APERTURE END LIST*
D10*
D11*
X170759698Y-87369390D02*
X170835888Y-87331295D01*
X170835888Y-87331295D02*
X170950174Y-87331295D01*
X170950174Y-87331295D02*
X171064460Y-87369390D01*
X171064460Y-87369390D02*
X171140650Y-87445580D01*
X171140650Y-87445580D02*
X171178745Y-87521771D01*
X171178745Y-87521771D02*
X171216841Y-87674152D01*
X171216841Y-87674152D02*
X171216841Y-87788438D01*
X171216841Y-87788438D02*
X171178745Y-87940819D01*
X171178745Y-87940819D02*
X171140650Y-88017009D01*
X171140650Y-88017009D02*
X171064460Y-88093200D01*
X171064460Y-88093200D02*
X170950174Y-88131295D01*
X170950174Y-88131295D02*
X170873983Y-88131295D01*
X170873983Y-88131295D02*
X170759698Y-88093200D01*
X170759698Y-88093200D02*
X170721602Y-88055104D01*
X170721602Y-88055104D02*
X170721602Y-87788438D01*
X170721602Y-87788438D02*
X170873983Y-87788438D01*
X170378745Y-88131295D02*
X170378745Y-87331295D01*
X170378745Y-87331295D02*
X170073983Y-87331295D01*
X170073983Y-87331295D02*
X169997793Y-87369390D01*
X169997793Y-87369390D02*
X169959698Y-87407485D01*
X169959698Y-87407485D02*
X169921602Y-87483676D01*
X169921602Y-87483676D02*
X169921602Y-87597961D01*
X169921602Y-87597961D02*
X169959698Y-87674152D01*
X169959698Y-87674152D02*
X169997793Y-87712247D01*
X169997793Y-87712247D02*
X170073983Y-87750342D01*
X170073983Y-87750342D02*
X170378745Y-87750342D01*
X169616841Y-88093200D02*
X169502555Y-88131295D01*
X169502555Y-88131295D02*
X169312079Y-88131295D01*
X169312079Y-88131295D02*
X169235888Y-88093200D01*
X169235888Y-88093200D02*
X169197793Y-88055104D01*
X169197793Y-88055104D02*
X169159698Y-87978914D01*
X169159698Y-87978914D02*
X169159698Y-87902723D01*
X169159698Y-87902723D02*
X169197793Y-87826533D01*
X169197793Y-87826533D02*
X169235888Y-87788438D01*
X169235888Y-87788438D02*
X169312079Y-87750342D01*
X169312079Y-87750342D02*
X169464460Y-87712247D01*
X169464460Y-87712247D02*
X169540650Y-87674152D01*
X169540650Y-87674152D02*
X169578745Y-87636057D01*
X169578745Y-87636057D02*
X169616841Y-87559866D01*
X169616841Y-87559866D02*
X169616841Y-87483676D01*
X169616841Y-87483676D02*
X169578745Y-87407485D01*
X169578745Y-87407485D02*
X169540650Y-87369390D01*
X169540650Y-87369390D02*
X169464460Y-87331295D01*
X169464460Y-87331295D02*
X169273983Y-87331295D01*
X169273983Y-87331295D02*
X169159698Y-87369390D01*
X168816840Y-87826533D02*
X168207317Y-87826533D01*
X167864460Y-88093200D02*
X167750174Y-88131295D01*
X167750174Y-88131295D02*
X167559698Y-88131295D01*
X167559698Y-88131295D02*
X167483507Y-88093200D01*
X167483507Y-88093200D02*
X167445412Y-88055104D01*
X167445412Y-88055104D02*
X167407317Y-87978914D01*
X167407317Y-87978914D02*
X167407317Y-87902723D01*
X167407317Y-87902723D02*
X167445412Y-87826533D01*
X167445412Y-87826533D02*
X167483507Y-87788438D01*
X167483507Y-87788438D02*
X167559698Y-87750342D01*
X167559698Y-87750342D02*
X167712079Y-87712247D01*
X167712079Y-87712247D02*
X167788269Y-87674152D01*
X167788269Y-87674152D02*
X167826364Y-87636057D01*
X167826364Y-87636057D02*
X167864460Y-87559866D01*
X167864460Y-87559866D02*
X167864460Y-87483676D01*
X167864460Y-87483676D02*
X167826364Y-87407485D01*
X167826364Y-87407485D02*
X167788269Y-87369390D01*
X167788269Y-87369390D02*
X167712079Y-87331295D01*
X167712079Y-87331295D02*
X167521602Y-87331295D01*
X167521602Y-87331295D02*
X167407317Y-87369390D01*
X167178745Y-87331295D02*
X166721602Y-87331295D01*
X166950174Y-88131295D02*
X166950174Y-87331295D01*
X166493031Y-87902723D02*
X166112078Y-87902723D01*
X166569221Y-88131295D02*
X166302554Y-87331295D01*
X166302554Y-87331295D02*
X166035888Y-88131295D01*
X165502555Y-87712247D02*
X165769221Y-87712247D01*
X165769221Y-88131295D02*
X165769221Y-87331295D01*
X165769221Y-87331295D02*
X165388269Y-87331295D01*
X164816841Y-87712247D02*
X165083507Y-87712247D01*
X165083507Y-88131295D02*
X165083507Y-87331295D01*
X165083507Y-87331295D02*
X164702555Y-87331295D01*
X163864460Y-87597961D02*
X163673984Y-88131295D01*
X163673984Y-88131295D02*
X163483507Y-87597961D01*
X162759698Y-88131295D02*
X163216841Y-88131295D01*
X162988269Y-88131295D02*
X162988269Y-87331295D01*
X162988269Y-87331295D02*
X163064460Y-87445580D01*
X163064460Y-87445580D02*
X163140650Y-87521771D01*
X163140650Y-87521771D02*
X163216841Y-87559866D01*
X162416840Y-88055104D02*
X162378745Y-88093200D01*
X162378745Y-88093200D02*
X162416840Y-88131295D01*
X162416840Y-88131295D02*
X162454936Y-88093200D01*
X162454936Y-88093200D02*
X162416840Y-88055104D01*
X162416840Y-88055104D02*
X162416840Y-88131295D01*
X161883507Y-87331295D02*
X161807317Y-87331295D01*
X161807317Y-87331295D02*
X161731126Y-87369390D01*
X161731126Y-87369390D02*
X161693031Y-87407485D01*
X161693031Y-87407485D02*
X161654936Y-87483676D01*
X161654936Y-87483676D02*
X161616841Y-87636057D01*
X161616841Y-87636057D02*
X161616841Y-87826533D01*
X161616841Y-87826533D02*
X161654936Y-87978914D01*
X161654936Y-87978914D02*
X161693031Y-88055104D01*
X161693031Y-88055104D02*
X161731126Y-88093200D01*
X161731126Y-88093200D02*
X161807317Y-88131295D01*
X161807317Y-88131295D02*
X161883507Y-88131295D01*
X161883507Y-88131295D02*
X161959698Y-88093200D01*
X161959698Y-88093200D02*
X161997793Y-88055104D01*
X161997793Y-88055104D02*
X162035888Y-87978914D01*
X162035888Y-87978914D02*
X162073984Y-87826533D01*
X162073984Y-87826533D02*
X162073984Y-87636057D01*
X162073984Y-87636057D02*
X162035888Y-87483676D01*
X162035888Y-87483676D02*
X161997793Y-87407485D01*
X161997793Y-87407485D02*
X161959698Y-87369390D01*
X161959698Y-87369390D02*
X161883507Y-87331295D01*
D12*
%TO.P,J12,1,Pin_1_1*%
%TO.N,GND*%
X115189000Y-141732000D03*
D13*
%TO.P,J12,2,Pin_2_2*%
%TO.N,Net-(J12-Pin_2)*%
X115189000Y-139192000D03*
%TD*%
D12*
%TO.P,TP1,1,1_1*%
%TO.N,Net-(U2-PG)*%
X117475000Y-150495000D03*
%TD*%
%TO.P,J4,1,Pin_1_1*%
%TO.N,/Power/VBAT*%
X170180000Y-144729200D03*
D13*
%TO.P,J4,2,Pin_2_2*%
%TO.N,VBSW*%
X170180000Y-142189200D03*
%TD*%
D12*
%TO.P,J9,1,Pin_1_1*%
%TO.N,+3V3*%
X148844000Y-91186000D03*
D13*
%TO.P,J9,2,Pin_2_2*%
%TO.N,PA14{slash}SWCLK*%
X148844000Y-93726000D03*
%TO.P,J9,3,Pin_3_3*%
%TO.N,GND*%
X148844000Y-96266000D03*
%TO.P,J9,4,Pin_4_4*%
%TO.N,PA13{slash}SWDIO*%
X148844000Y-98806000D03*
%TO.P,J9,5,Pin_5_5*%
%TO.N,NRST*%
X148844000Y-101346000D03*
%TO.P,J9,6,Pin_6_6*%
%TO.N,PB3{slash}SWO*%
X148844000Y-103886000D03*
%TO.P,J9,7,Pin_7_7*%
%TO.N,PD8{slash}DEBUG_TX*%
X148844000Y-106426000D03*
%TO.P,J9,8,Pin_8_8*%
%TO.N,PD9{slash}DEBUG_RX*%
X148844000Y-108966000D03*
%TD*%
D12*
%TO.P,J8,1,Pin_1_1*%
%TO.N,HS_SOF*%
X129641600Y-130810000D03*
%TD*%
D14*
%TO.P,U5,1,GP1_1*%
%TO.N,ESP32_GP1*%
X118364000Y-93853000D03*
%TO.P,U5,2,GP2_2*%
%TO.N,ESP32_GP2*%
X115824000Y-93853000D03*
%TO.P,U5,3,GP3_3*%
%TO.N,ESP32_GP3*%
X113284000Y-93853000D03*
%TO.P,U5,3V3,3V3(OUT)_3V3*%
%TO.N,+3V3*%
X120904000Y-93853000D03*
%TO.P,U5,4,GP4_4*%
%TO.N,ESP32_GP4*%
X110744000Y-93853000D03*
%TO.P,U5,5,GP5_5*%
%TO.N,ESP32_GP5*%
X108204000Y-93853000D03*
D15*
%TO.P,U5,5V,5V_5V*%
%TO.N,unconnected-(U5-Pad5V)*%
X125984000Y-93853000D03*
D14*
%TO.P,U5,6,GP6_6*%
%TO.N,unconnected-(U5-GP6-Pad6)*%
X105664000Y-93853000D03*
%TO.P,U5,7,GP7_7*%
%TO.N,unconnected-(U5-GP7-Pad7)*%
X105664000Y-109093000D03*
%TO.P,U5,8,GP8_8*%
%TO.N,unconnected-(U5-GP8-Pad8)*%
X108204000Y-109093000D03*
%TO.P,U5,9,GP9_9*%
%TO.N,unconnected-(U5-GP9-Pad9)*%
X110744000Y-109093000D03*
%TO.P,U5,10,GP10_10*%
%TO.N,unconnected-(U5-GP10-Pad10)*%
X113284000Y-109093000D03*
%TO.P,U5,11,GP11_11*%
%TO.N,unconnected-(U5-GP11-Pad11)*%
X115824000Y-109093000D03*
%TO.P,U5,12,GP12_12*%
%TO.N,unconnected-(U5-GP12-Pad12)*%
X118364000Y-109093000D03*
%TO.P,U5,13,GP13_13*%
%TO.N,unconnected-(U5-GP13-Pad13)*%
X120904000Y-109093000D03*
%TO.P,U5,GND,GND_GND*%
%TO.N,GND*%
X123444000Y-93853000D03*
%TO.P,U5,RX,RX_RX*%
%TO.N,ESP32_RX*%
X123444000Y-109093000D03*
%TO.P,U5,TX,TX_TX*%
%TO.N,ESP32_TX*%
X125984000Y-109093000D03*
%TD*%
D12*
%TO.P,J11,1,Pin_1_1*%
%TO.N,+3V3*%
X174904400Y-130302000D03*
D13*
%TO.P,J11,2,Pin_2_2*%
%TO.N,I2C4_SDA*%
X174904400Y-132842000D03*
%TO.P,J11,3,Pin_3_3*%
%TO.N,I2C4_SCK*%
X174904400Y-135382000D03*
%TO.P,J11,4,Pin_4_4*%
%TO.N,MAGNETO_SPARE1*%
X174904400Y-137922000D03*
%TO.P,J11,5,Pin_5_5*%
%TO.N,MAGNETO_SPARE2*%
X174904400Y-140462000D03*
%TO.P,J11,6,Pin_6_6*%
%TO.N,GND*%
X174904400Y-143002000D03*
%TD*%
D16*
%TO.P,J1,*%
%TO.N,*%
X136139996Y-146187200D03*
D17*
X136139996Y-150367200D03*
D16*
X144780000Y-146187200D03*
D17*
X144780000Y-150367200D03*
%TD*%
D18*
%TO.P,U2,V*%
%TO.N,N/C*%
X130822700Y-148837400D03*
X130822700Y-148050000D03*
X130822700Y-147262600D03*
X130035300Y-148837400D03*
X130035300Y-148050000D03*
X130035300Y-147262600D03*
%TD*%
D12*
%TO.P,J7,1,Pin_1_1*%
%TO.N,I2C4_SDA*%
X155194000Y-129540000D03*
D13*
%TO.P,J7,2,Pin_2_2*%
%TO.N,I2C4_SCK*%
X157734000Y-129540000D03*
%TO.P,J7,3,Pin_3_3*%
%TO.N,+3V3*%
X160274000Y-129540000D03*
%TO.P,J7,4,Pin_4_4*%
%TO.N,GND*%
X162814000Y-129540000D03*
%TD*%
D19*
%TO.P,J5,1,In_1*%
%TO.N,Net-(J5-In)*%
X171440000Y-122926000D03*
D20*
%TO.P,J5,2,Ext_2*%
%TO.N,GND*%
X168890000Y-125476000D03*
X173990000Y-125476000D03*
X168890000Y-120376000D03*
X173990000Y-120376000D03*
%TD*%
D12*
%TO.P,J10,1,Pin_1_1*%
%TO.N,+3V3*%
X119126000Y-136398000D03*
D13*
%TO.P,J10,2,Pin_2_2*%
%TO.N,BOOT0*%
X121666000Y-136398000D03*
%TD*%
D21*
%TO.P,C10,1*%
%TO.N,+3V3*%
X152646200Y-112928400D03*
%TO.P,C10,2*%
%TO.N,GND*%
X150571200Y-112928400D03*
%TD*%
D22*
%TO.P,C19,1*%
%TO.N,+3V3*%
X121093500Y-96774000D03*
%TO.P,C19,2*%
%TO.N,GND*%
X123168500Y-96774000D03*
%TD*%
D23*
%TO.P,C23,1*%
%TO.N,+3V3*%
X136652000Y-131318000D03*
%TO.P,C23,2*%
%TO.N,GND*%
X136652000Y-133393000D03*
%TD*%
D22*
%TO.P,C33,1*%
%TO.N,Net-(U3-VCAP_1)*%
X148187500Y-127635000D03*
%TO.P,C33,2*%
%TO.N,GND*%
X150262500Y-127635000D03*
%TD*%
%TO.P,C20,1*%
%TO.N,+3V3*%
X121115000Y-99060000D03*
%TO.P,C20,2*%
%TO.N,GND*%
X123190000Y-99060000D03*
%TD*%
D24*
%TO.P,R11,1*%
%TO.N,Net-(J1-CC2)*%
X141986000Y-148368000D03*
%TO.P,R11,2*%
%TO.N,GND*%
X141986000Y-150368000D03*
%TD*%
D22*
%TO.P,C15,1*%
%TO.N,+3V3*%
X106404500Y-118364000D03*
%TO.P,C15,2*%
%TO.N,GND*%
X108479500Y-118364000D03*
%TD*%
D21*
%TO.P,C14,1*%
%TO.N,+3V3*%
X148132800Y-112166400D03*
%TO.P,C14,2*%
%TO.N,GND*%
X146057800Y-112166400D03*
%TD*%
D22*
%TO.P,C16,1*%
%TO.N,+3V3*%
X106404500Y-120650000D03*
%TO.P,C16,2*%
%TO.N,GND*%
X108479500Y-120650000D03*
%TD*%
D23*
%TO.P,C22,1*%
%TO.N,+3V3*%
X146304000Y-135106500D03*
%TO.P,C22,2*%
%TO.N,GND*%
X146304000Y-137181500D03*
%TD*%
D21*
%TO.P,C18,1*%
%TO.N,+3V3*%
X137922000Y-96012000D03*
%TO.P,C18,2*%
%TO.N,GND*%
X135847000Y-96012000D03*
%TD*%
D22*
%TO.P,C17,1*%
%TO.N,+3V3*%
X140462000Y-96012000D03*
%TO.P,C17,2*%
%TO.N,GND*%
X142537000Y-96012000D03*
%TD*%
D24*
%TO.P,R12,1*%
%TO.N,Net-(J1-CC1)*%
X139446000Y-148368000D03*
%TO.P,R12,2*%
%TO.N,GND*%
X139446000Y-150368000D03*
%TD*%
D25*
%TO.P,C11,1*%
%TO.N,+3V3*%
X131267200Y-110998000D03*
%TO.P,C11,2*%
%TO.N,GND*%
X131267200Y-108923000D03*
%TD*%
D21*
%TO.P,C13,1*%
%TO.N,+3V3*%
X144068800Y-125526800D03*
%TO.P,C13,2*%
%TO.N,GND*%
X141993800Y-125526800D03*
%TD*%
D25*
%TO.P,C9,1*%
%TO.N,+3V3*%
X132842000Y-123465500D03*
%TO.P,C9,2*%
%TO.N,GND*%
X132842000Y-121390500D03*
%TD*%
D26*
%TO.N,Net-(J12-Pin_2)*%
X134366000Y-124358400D03*
%TO.N,GND*%
X166370000Y-126492000D03*
%TO.N,PD8{slash}DEBUG_TX*%
X152400000Y-108077000D03*
%TO.N,PD9{slash}DEBUG_RX*%
X152527000Y-109474000D03*
%TO.N,PA14{slash}SWCLK*%
X151511000Y-98933000D03*
%TO.N,+5V*%
X127254000Y-146050000D03*
%TO.N,GND*%
X126746000Y-140462000D03*
X127762000Y-141732000D03*
X127762000Y-142494000D03*
X127762000Y-143256000D03*
%TO.N,+3V3*%
X122936000Y-141224000D03*
%TO.N,GND*%
X166370000Y-98298000D03*
X127101600Y-122529600D03*
X135585200Y-132537200D03*
X145592800Y-125984000D03*
X156591000Y-139827000D03*
X148691600Y-129286000D03*
X121412000Y-128117600D03*
X126746000Y-143256000D03*
X171958000Y-109474000D03*
X146253200Y-133604000D03*
X140716000Y-149352000D03*
X171574000Y-99698000D03*
X162238000Y-102616000D03*
X127863600Y-115417600D03*
X131318000Y-122428000D03*
X127000000Y-124663200D03*
X166370000Y-106934000D03*
X163626800Y-134416800D03*
X137668000Y-107188000D03*
X142025000Y-99110800D03*
X168537500Y-136025500D03*
X137688000Y-137394000D03*
X162306000Y-110998000D03*
X156311600Y-145288000D03*
X138938000Y-136144000D03*
X133858000Y-95504000D03*
X134518400Y-110490000D03*
X159207200Y-144475200D03*
X126746000Y-142494000D03*
X133608200Y-127309000D03*
X149479000Y-139319000D03*
X131318000Y-135255000D03*
X127762000Y-140462000D03*
X136906000Y-144526000D03*
X130251200Y-108000800D03*
X127762000Y-128016000D03*
X159207200Y-145186400D03*
X152908000Y-101092000D03*
X146685000Y-146304000D03*
X162306000Y-98298000D03*
X157988000Y-110998000D03*
X157988000Y-102616000D03*
X127254000Y-140970000D03*
X156591000Y-141605000D03*
X127455000Y-150061000D03*
X148082000Y-136779000D03*
X157988000Y-106934000D03*
X152400000Y-147726400D03*
X146608800Y-113385600D03*
X108712000Y-116840000D03*
X112522000Y-135890000D03*
X131064000Y-137922000D03*
X166400000Y-130326000D03*
X158597600Y-144830800D03*
X154838400Y-112776000D03*
X170180000Y-113284000D03*
X157988000Y-98298000D03*
X162306000Y-106934000D03*
X144653000Y-141478000D03*
X144272000Y-144526000D03*
X126746000Y-141478000D03*
X143764000Y-94234000D03*
X166370000Y-110998000D03*
X131216400Y-131318000D03*
X149402800Y-112522000D03*
X145669000Y-113411000D03*
X126695200Y-113131600D03*
X143465000Y-107569000D03*
X166370000Y-102616000D03*
%TO.N,LSM6DSOX_INT1*%
X155397200Y-120904000D03*
X150266400Y-120091200D03*
%TO.N,+3V3*%
X133096000Y-145796000D03*
X152908000Y-104648000D03*
X134251200Y-123494800D03*
X133096000Y-146558000D03*
X115824000Y-147320000D03*
X137922000Y-140843000D03*
X142029000Y-139403000D03*
X135534400Y-138226800D03*
X133858000Y-147320000D03*
X115824000Y-144526000D03*
X132232400Y-111963200D03*
X134315200Y-118364000D03*
X155854400Y-116027200D03*
X106172000Y-116840000D03*
X135026400Y-130200400D03*
X166878000Y-117348000D03*
X170129200Y-136906000D03*
X141732000Y-133807200D03*
X130149600Y-115519200D03*
X134112000Y-145796000D03*
X134366000Y-146558000D03*
X122174000Y-141732000D03*
X133096000Y-147320000D03*
X146964400Y-126238000D03*
X122174000Y-140970000D03*
X134620000Y-145288000D03*
X164388800Y-121615200D03*
X168783000Y-130048000D03*
X169700000Y-132676000D03*
X130556000Y-123088400D03*
X133731000Y-146685000D03*
X115824000Y-146304000D03*
X135546000Y-134394000D03*
X133908800Y-128473200D03*
X164388800Y-123291600D03*
X147320000Y-112979200D03*
X134620000Y-147320000D03*
X134874000Y-146050000D03*
X122914500Y-142472500D03*
X147472400Y-134213600D03*
X152908000Y-102870000D03*
X165250000Y-134626000D03*
X140716000Y-93980000D03*
%TO.N,LSM6DSOX_INT2*%
X155041600Y-120142000D03*
X149809200Y-119430800D03*
%TO.N,I2C4_SCK*%
X151942800Y-123240800D03*
X168148000Y-129032000D03*
X149910800Y-121818400D03*
X151688800Y-127812800D03*
%TO.N,I2C4_SDA*%
X152552400Y-122529600D03*
X166497000Y-129413000D03*
X150493600Y-120904000D03*
X151739600Y-128727200D03*
%TO.N,/Power/VBAT*%
X161645600Y-141020800D03*
X160731200Y-135534400D03*
%TO.N,VBAT_2*%
X134162800Y-125679200D03*
X155803600Y-132791200D03*
X138836400Y-130759200D03*
X143814800Y-129032000D03*
%TO.N,USB3300_RST*%
X141986000Y-138480800D03*
X135001000Y-121158000D03*
%TO.N,HS_ULPI_NXT*%
X135763000Y-122326400D03*
X142595600Y-137718800D03*
%TO.N,HS_ULPI_DIR*%
X143459200Y-137668000D03*
X137160000Y-121666000D03*
%TO.N,HS_ULPI_STP*%
X136271000Y-121056400D03*
X143408400Y-136702800D03*
%TO.N,HS_ULPI_CK*%
X144170400Y-136398000D03*
X136550400Y-123545600D03*
%TO.N,Net-(C29-Pad1)*%
X142316200Y-134747000D03*
X135382000Y-135229600D03*
X135077200Y-137261600D03*
%TO.N,HS_ULPI_D7*%
X140360400Y-113690400D03*
X145846800Y-131826000D03*
%TO.N,nCHG*%
X151485600Y-135839200D03*
X155067000Y-147574000D03*
X151282400Y-123748800D03*
X147955000Y-135128000D03*
X149860000Y-122732800D03*
%TO.N,SDMMC_CMD*%
X137972800Y-113334800D03*
X134359600Y-99879200D03*
%TO.N,SDMMC_D0*%
X145084800Y-118668800D03*
X135280400Y-100634800D03*
%TO.N,SDMMC_D1*%
X143764000Y-110363000D03*
X146050000Y-117754400D03*
%TO.N,SDMMC_CD*%
X134670800Y-113944400D03*
X130657600Y-102108000D03*
%TO.N,F9P_SAFEBOOT_N*%
X141173200Y-122123200D03*
X162763200Y-118770400D03*
%TO.N,F9P_ANT_DETECT*%
X139649200Y-124358400D03*
X171958000Y-108508800D03*
%TO.N,F9P_ANT_OFF*%
X171043600Y-107391200D03*
X139242800Y-120853200D03*
%TO.N,F9P_ANT_SHORT*%
X139852400Y-122682000D03*
X172567600Y-106273600D03*
%TO.N,F9P_GEOFENCE_STAT*%
X137185400Y-120624600D03*
X132461000Y-88900000D03*
%TO.N,F9P_RTK_STAT*%
X137820400Y-124002800D03*
X133477000Y-89662000D03*
%TO.N,UART5_RX_F9P_TXD*%
X146100800Y-114096800D03*
X154686000Y-114046000D03*
%TO.N,UART5_TX_F9P_RXD*%
X156768800Y-113284000D03*
X145542000Y-115011200D03*
%TO.N,F9P_TX_READY*%
X160477200Y-116281200D03*
X139852400Y-119380000D03*
%TO.N,F9P_D_SEL*%
X140462000Y-120040400D03*
X161206000Y-116873200D03*
%TO.N,F9P_RESET_N*%
X157988000Y-118618000D03*
X162306000Y-117551200D03*
X140919200Y-120751600D03*
%TO.N,F9P_EXTINT*%
X141681200Y-122885200D03*
X164846000Y-118821200D03*
%TO.N,F9P_TIMEP*%
X139293600Y-119989600D03*
X167792400Y-116484400D03*
%TO.N,PA13{slash}SWDIO*%
X150825200Y-111099600D03*
X147472400Y-110896400D03*
%TO.N,NRST*%
X126796800Y-115112800D03*
X135991600Y-101346000D03*
X128422400Y-101295200D03*
%TO.N,PB3{slash}SWO*%
X139344400Y-108458000D03*
%TO.N,HS_SOF*%
X132943600Y-128320800D03*
%TO.N,Net-(D1-K)*%
X124714000Y-149860000D03*
X133604000Y-148082000D03*
%TO.N,PD6_LD4*%
X141020800Y-108508800D03*
X156972000Y-115874800D03*
%TO.N,PD5_LD3*%
X154076400Y-113233200D03*
X153162000Y-121615200D03*
X155143200Y-123647200D03*
X142392400Y-110337600D03*
%TO.N,+5V*%
X146812000Y-138811000D03*
X146050000Y-139569000D03*
X145415000Y-138811000D03*
X146812000Y-139569000D03*
X150749000Y-141605000D03*
X127889000Y-145415000D03*
X146050000Y-138811000D03*
X145415000Y-139573000D03*
%TO.N,SYSOFF*%
X154584400Y-134721600D03*
X158953200Y-116382800D03*
X140157200Y-108458000D03*
X154178000Y-147066000D03*
%TO.N,BQ24975_nCE*%
X143967200Y-113487200D03*
X154432000Y-116382800D03*
%TO.N,BQ24975_EN2*%
X146558000Y-123494800D03*
X149910800Y-124815600D03*
X142544800Y-118618000D03*
X141376400Y-113588800D03*
%TO.N,BQ24975_EN1*%
X148844000Y-132537200D03*
X142494000Y-113411000D03*
%TO.N,nPGOOD*%
X150876000Y-136906000D03*
X148844000Y-147574000D03*
X146812000Y-122631200D03*
X150774400Y-124409200D03*
X148209000Y-135890000D03*
%TO.N,Net-(U1-ILIM)*%
X147320000Y-141097000D03*
X148844000Y-143002000D03*
%TO.N,VBUS*%
X143256000Y-144018000D03*
X138176000Y-144272000D03*
%TO.N,Net-(U2-EN)*%
X127801998Y-148550002D03*
X130556000Y-151130000D03*
%TO.N,ESP32_TX*%
X126034800Y-106172000D03*
%TO.N,MAGNETO_SPARE1*%
X140411200Y-125984000D03*
%TO.N,MAGNETO_SPARE2*%
X142748000Y-128778000D03*
%TO.N,Net-(J1-CC1)*%
X139446000Y-147066000D03*
%TO.N,USB_D2_P*%
X139954000Y-144526000D03*
X141478000Y-144526000D03*
%TO.N,Net-(J1-CC2)*%
X141986000Y-147066000D03*
%TO.N,Net-(U3-VCAP_1)*%
X147370800Y-128727200D03*
%TO.N,SX1262_SPI2_MISO*%
X136601200Y-119938800D03*
X111252000Y-126796800D03*
%TO.N,SX1262_SPI2_MOSI*%
X113944400Y-125780800D03*
X135585200Y-119227600D03*
%TO.N,SX1262_RXEN*%
X136042400Y-118567200D03*
X118872000Y-119176800D03*
%TO.N,SX1262_TXEN*%
X116332000Y-117805200D03*
X136601200Y-117856000D03*
%TO.N,SX1262_SPI2_SCK*%
X135229600Y-118160800D03*
X116382800Y-124104400D03*
%TO.N,SX1262_SPI2_CS*%
X118922800Y-122275600D03*
X135229600Y-117348000D03*
%TO.N,SX1262_SPI2_RST*%
X135229600Y-116484400D03*
X108762800Y-124714000D03*
%TO.N,SX1262_SPI2_BUSY*%
X135229600Y-115620800D03*
X106172000Y-123901200D03*
%TO.N,SX1262_SPI2_DIO2*%
X109423200Y-105816400D03*
X125222000Y-102971600D03*
%TO.N,SX1262_SPI2_DIO1*%
X125171200Y-103886000D03*
X106934000Y-104597200D03*
%TO.N,BOOT0*%
X117551200Y-119583200D03*
X129032000Y-107289600D03*
%TD*%
%TO.N,I2C4_SDA*%
D27*
X167030400Y-128371600D02*
X166497000Y-128905000D01*
X169646600Y-128371600D02*
X167030400Y-128371600D01*
X173101000Y-132461000D02*
X173101000Y-131826000D01*
X173482000Y-132842000D02*
X173101000Y-132461000D01*
X173101000Y-131826000D02*
X169646600Y-128371600D01*
X166497000Y-128905000D02*
X166497000Y-129540000D01*
X174904400Y-132842000D02*
X173482000Y-132842000D01*
%TO.N,Net-(J12-Pin_2)*%
X115290600Y-139090400D02*
X115189000Y-139192000D01*
X123342400Y-139090400D02*
X115290600Y-139090400D01*
X126746000Y-135686800D02*
X123342400Y-139090400D01*
X126746000Y-130098800D02*
X126746000Y-135686800D01*
X127660400Y-129184400D02*
X126746000Y-130098800D01*
X129184400Y-129184400D02*
X127660400Y-129184400D01*
X134010400Y-124358400D02*
X129184400Y-129184400D01*
X134366000Y-124358400D02*
X134010400Y-124358400D01*
%TO.N,+3V3*%
X134082700Y-123465500D02*
X132842000Y-123465500D01*
X134112000Y-123494800D02*
X134082700Y-123465500D01*
X134251200Y-123494800D02*
X134112000Y-123494800D01*
%TO.N,VBAT_2*%
X134416800Y-126339600D02*
X138836400Y-130759200D01*
X134162800Y-125679200D02*
X134416800Y-125933200D01*
X134416800Y-125933200D02*
X134416800Y-126339600D01*
%TO.N,USB3300_RST*%
X141986000Y-136245600D02*
X141986000Y-138480800D01*
X142951200Y-133959600D02*
X142957600Y-133959600D01*
X142957600Y-135274000D02*
X141986000Y-136245600D01*
X136194800Y-125882400D02*
X136194800Y-127203200D01*
X135001000Y-124688600D02*
X136194800Y-125882400D01*
X136194800Y-127203200D02*
X142951200Y-133959600D01*
X135001000Y-121158000D02*
X135001000Y-124688600D01*
X142957600Y-133959600D02*
X142957600Y-135274000D01*
%TO.N,HS_ULPI_NXT*%
X142494000Y-137617200D02*
X142595600Y-137718800D01*
X142494000Y-136398000D02*
X142494000Y-137617200D01*
X143357600Y-135534400D02*
X142494000Y-136398000D01*
X143357600Y-133712000D02*
X143357600Y-135534400D01*
X143364000Y-133705600D02*
X143357600Y-133712000D01*
X136601200Y-126949200D02*
X142494000Y-132842000D01*
X136601200Y-125679200D02*
X136601200Y-126949200D01*
X135509000Y-124587000D02*
X136601200Y-125679200D01*
X142500400Y-132842000D02*
X143364000Y-133705600D01*
X135509000Y-122936000D02*
X135509000Y-124587000D01*
X142494000Y-132842000D02*
X142500400Y-132842000D01*
X135763000Y-122326400D02*
X135763000Y-122682000D01*
X135763000Y-122682000D02*
X135509000Y-122936000D01*
%TO.N,HS_ULPI_STP*%
X143408400Y-136271000D02*
X143408400Y-136702800D01*
X143764000Y-135915400D02*
X143408400Y-136271000D01*
X143764000Y-133502400D02*
X143764000Y-135915400D01*
X137020400Y-125526800D02*
X137020400Y-126758800D01*
X135909000Y-123298000D02*
X135909000Y-124415400D01*
X136398000Y-122809000D02*
X135909000Y-123298000D01*
X137020400Y-126758800D02*
X143764000Y-133502400D01*
X136398000Y-122047000D02*
X136398000Y-122809000D01*
X135909000Y-124415400D02*
X137020400Y-125526800D01*
X136271000Y-121920000D02*
X136398000Y-122047000D01*
X136271000Y-121056400D02*
X136271000Y-121920000D01*
%TO.N,HS_ULPI_CK*%
X136525000Y-123571000D02*
X136550400Y-123545600D01*
X136525000Y-124377400D02*
X136525000Y-123571000D01*
X137420400Y-126549200D02*
X137420400Y-125272800D01*
X144170400Y-133299200D02*
X137420400Y-126549200D01*
X144170400Y-136398000D02*
X144170400Y-133299200D01*
X137420400Y-125272800D02*
X136525000Y-124377400D01*
%TO.N,HS_ULPI_DIR*%
X144780000Y-133299200D02*
X144780000Y-137160000D01*
X137820400Y-126339600D02*
X144780000Y-133299200D01*
X137820400Y-124968000D02*
X137820400Y-126339600D01*
X144272000Y-137668000D02*
X143459200Y-137668000D01*
X137160000Y-124307600D02*
X137820400Y-124968000D01*
X144780000Y-137160000D02*
X144272000Y-137668000D01*
X137160000Y-121666000D02*
X137160000Y-124307600D01*
%TO.N,GND*%
D28*
X173990000Y-120376000D02*
X173990000Y-125476000D01*
X167386000Y-125476000D02*
X166370000Y-126492000D01*
X168890000Y-125476000D02*
X167386000Y-125476000D01*
X168890000Y-125476000D02*
X173990000Y-125476000D01*
X168890000Y-120376000D02*
X173990000Y-120376000D01*
X168890000Y-125476000D02*
X168890000Y-120376000D01*
%TO.N,UART5_RX_F9P_TXD*%
D27*
X147980400Y-114604800D02*
X147472400Y-114096800D01*
X154127200Y-114604800D02*
X147980400Y-114604800D01*
X154686000Y-114046000D02*
X154127200Y-114604800D01*
X147472400Y-114096800D02*
X146100800Y-114096800D01*
%TO.N,PD8{slash}DEBUG_TX*%
X152400000Y-108077000D02*
X150876000Y-108077000D01*
X150876000Y-108077000D02*
X149225000Y-106426000D01*
X149225000Y-106426000D02*
X148844000Y-106426000D01*
%TO.N,PD6_LD4*%
X157861000Y-114935000D02*
X156972000Y-115824000D01*
X150685500Y-108839000D02*
X153289000Y-108839000D01*
X149593300Y-107746800D02*
X150685500Y-108839000D01*
X146177000Y-108839000D02*
X147269200Y-107746800D01*
X147269200Y-107746800D02*
X149593300Y-107746800D01*
X153289000Y-108839000D02*
X157861000Y-113411000D01*
X157861000Y-113411000D02*
X157861000Y-114935000D01*
X141020800Y-108508800D02*
X141351000Y-108839000D01*
X156972000Y-115824000D02*
X156972000Y-115874800D01*
X141351000Y-108839000D02*
X146177000Y-108839000D01*
%TO.N,SYSOFF*%
X141478000Y-107696000D02*
X140271500Y-107696000D01*
X142113000Y-108331000D02*
X141478000Y-107696000D01*
X144907000Y-108331000D02*
X142113000Y-108331000D01*
X140271500Y-107696000D02*
X140157200Y-107810300D01*
X148082000Y-105156000D02*
X144907000Y-108331000D01*
X150622000Y-105156000D02*
X148082000Y-105156000D01*
X153924000Y-108458000D02*
X153924000Y-105918000D01*
X158953200Y-113487200D02*
X153924000Y-108458000D01*
X140157200Y-107810300D02*
X140157200Y-108458000D01*
X150876000Y-105410000D02*
X150622000Y-105156000D01*
X158953200Y-116382800D02*
X158953200Y-113487200D01*
X153924000Y-105918000D02*
X153416000Y-105410000D01*
X153416000Y-105410000D02*
X150876000Y-105410000D01*
%TO.N,PD9{slash}DEBUG_RX*%
X149987000Y-108966000D02*
X148844000Y-108966000D01*
X152527000Y-109474000D02*
X150495000Y-109474000D01*
X150495000Y-109474000D02*
X149987000Y-108966000D01*
%TO.N,PA14{slash}SWCLK*%
X151130000Y-93726000D02*
X148844000Y-93726000D01*
X151511000Y-94107000D02*
X151130000Y-93726000D01*
X151511000Y-98933000D02*
X151511000Y-94107000D01*
%TO.N,GND*%
X145669000Y-112555200D02*
X146057800Y-112166400D01*
X145669000Y-113411000D02*
X145669000Y-112555200D01*
%TO.N,PA13{slash}SWDIO*%
X149402800Y-111099600D02*
X150825200Y-111099600D01*
X149199600Y-110896400D02*
X149402800Y-111099600D01*
X147472400Y-110896400D02*
X149199600Y-110896400D01*
%TO.N,SDMMC_D1*%
X146050000Y-117652800D02*
X146050000Y-117754400D01*
X144932400Y-116535200D02*
X146050000Y-117652800D01*
X144932400Y-110540800D02*
X144932400Y-116535200D01*
X144754600Y-110363000D02*
X144932400Y-110540800D01*
X143764000Y-110363000D02*
X144754600Y-110363000D01*
%TO.N,F9P_EXTINT*%
X164846000Y-119176800D02*
X164846000Y-118821200D01*
X163880800Y-120142000D02*
X164846000Y-119176800D01*
X156565600Y-120142000D02*
X163880800Y-120142000D01*
X155883243Y-119459643D02*
X156565600Y-120142000D01*
X152022443Y-119459643D02*
X155883243Y-119459643D01*
X151384000Y-118821200D02*
X152022443Y-119459643D01*
X149555200Y-118821200D02*
X151384000Y-118821200D01*
X146405600Y-121970800D02*
X149555200Y-118821200D01*
X143002000Y-121970800D02*
X146405600Y-121970800D01*
X142087600Y-122885200D02*
X143002000Y-121970800D01*
X141681200Y-122885200D02*
X142087600Y-122885200D01*
%TO.N,F9P_SAFEBOOT_N*%
X141782800Y-122123200D02*
X141173200Y-122123200D01*
X142341600Y-121564400D02*
X141782800Y-122123200D01*
X146202400Y-121564400D02*
X142341600Y-121564400D01*
X149352000Y-118414800D02*
X146202400Y-121564400D01*
X151841200Y-118414800D02*
X149352000Y-118414800D01*
X156232543Y-119059643D02*
X152486043Y-119059643D01*
X156857700Y-119684800D02*
X156232543Y-119059643D01*
X162458400Y-119684800D02*
X156857700Y-119684800D01*
X162763200Y-119380000D02*
X162458400Y-119684800D01*
X162763200Y-118770400D02*
X162763200Y-119380000D01*
X152486043Y-119059643D02*
X151841200Y-118414800D01*
%TO.N,F9P_TIMEP*%
X166319200Y-116484400D02*
X167792400Y-116484400D01*
X164652400Y-118151200D02*
X166319200Y-116484400D01*
X161340800Y-119278400D02*
X162468000Y-118151200D01*
X157251400Y-119278400D02*
X161340800Y-119278400D01*
X156632643Y-118659643D02*
X157251400Y-119278400D01*
X153051243Y-118659643D02*
X156632643Y-118659643D01*
X162468000Y-118151200D02*
X164652400Y-118151200D01*
X152349200Y-117957600D02*
X153051243Y-118659643D01*
X149199600Y-117957600D02*
X152349200Y-117957600D01*
X141782800Y-121056400D02*
X146100800Y-121056400D01*
X141427200Y-121412000D02*
X141782800Y-121056400D01*
X140716000Y-121412000D02*
X141427200Y-121412000D01*
X139293600Y-119989600D02*
X140716000Y-121412000D01*
X146100800Y-121056400D02*
X149199600Y-117957600D01*
%TO.N,F9P_RESET_N*%
X140970000Y-120700800D02*
X140919200Y-120751600D01*
X140970000Y-120548400D02*
X140970000Y-120700800D01*
X145999200Y-120548400D02*
X140970000Y-120548400D01*
X152552400Y-117551200D02*
X148996400Y-117551200D01*
X152752843Y-117751643D02*
X152552400Y-117551200D01*
X152755600Y-117751643D02*
X152752843Y-117751643D01*
X148996400Y-117551200D02*
X145999200Y-120548400D01*
X157365700Y-118618000D02*
X157007343Y-118259643D01*
X157007343Y-118259643D02*
X153263600Y-118259643D01*
X157988000Y-118618000D02*
X157365700Y-118618000D01*
X153263600Y-118259643D02*
X152755600Y-117751643D01*
%TO.N,I2C4_SDA*%
X150520400Y-120904000D02*
X150493600Y-120904000D01*
X150977600Y-121361200D02*
X150520400Y-120904000D01*
X151333200Y-121361200D02*
X150977600Y-121361200D01*
X152552400Y-122529600D02*
X152501600Y-122529600D01*
X152501600Y-122529600D02*
X151333200Y-121361200D01*
%TO.N,I2C4_SCK*%
X150647400Y-121818400D02*
X149910800Y-121818400D01*
X151511000Y-122682000D02*
X150647400Y-121818400D01*
X151511000Y-122809000D02*
X151511000Y-122682000D01*
X151942800Y-123240800D02*
X151511000Y-122809000D01*
%TO.N,BQ24975_EN1*%
X138430000Y-126339600D02*
X138430000Y-122428000D01*
X144551400Y-132461000D02*
X138430000Y-126339600D01*
X146227800Y-132461000D02*
X144551400Y-132461000D01*
X148844000Y-132537200D02*
X146304000Y-132537200D01*
X146304000Y-132537200D02*
X146227800Y-132461000D01*
X141605000Y-112522000D02*
X142494000Y-113411000D01*
X140144500Y-112522000D02*
X141605000Y-112522000D01*
X138226800Y-114439700D02*
X140144500Y-112522000D01*
X138226800Y-122224800D02*
X138226800Y-114439700D01*
X138430000Y-122428000D02*
X138226800Y-122224800D01*
%TO.N,HS_ULPI_D7*%
X144576800Y-131826000D02*
X145846800Y-131826000D01*
X138626800Y-121481800D02*
X138938000Y-121793000D01*
X138938000Y-121793000D02*
X138938000Y-126187200D01*
X139090400Y-118262400D02*
X139090400Y-119329200D01*
X138626800Y-119792800D02*
X138626800Y-121481800D01*
X140360400Y-116992400D02*
X139090400Y-118262400D01*
X140360400Y-113690400D02*
X140360400Y-116992400D01*
X139090400Y-119329200D02*
X138626800Y-119792800D01*
X138938000Y-126187200D02*
X144576800Y-131826000D01*
%TO.N,SX1262_SPI2_SCK*%
X121767600Y-124104400D02*
X126847600Y-119024400D01*
X126847600Y-119024400D02*
X134848600Y-119024400D01*
X116382800Y-124104400D02*
X121767600Y-124104400D01*
X134848600Y-119024400D02*
X135229600Y-118643400D01*
X135229600Y-118643400D02*
X135229600Y-118160800D01*
%TO.N,nPGOOD*%
X148844000Y-144907000D02*
X148844000Y-147574000D01*
X151511000Y-142240000D02*
X148844000Y-144907000D01*
X151511000Y-140970000D02*
X151511000Y-142240000D01*
X150876000Y-140335000D02*
X151511000Y-140970000D01*
X150876000Y-136906000D02*
X150876000Y-140335000D01*
%TO.N,nCHG*%
X151511000Y-136398000D02*
X155067000Y-139954000D01*
X151511000Y-135813800D02*
X151511000Y-136398000D01*
X150825200Y-135128000D02*
X151511000Y-135813800D01*
X155067000Y-139954000D02*
X155067000Y-147574000D01*
X147955000Y-135128000D02*
X150825200Y-135128000D01*
%TO.N,SYSOFF*%
X154787600Y-148640800D02*
X154178000Y-148031200D01*
X157048200Y-148640800D02*
X154787600Y-148640800D01*
X157734000Y-147955000D02*
X157048200Y-148640800D01*
X157734000Y-137871200D02*
X157734000Y-147955000D01*
X154178000Y-148031200D02*
X154178000Y-147066000D01*
X154584400Y-134721600D02*
X157734000Y-137871200D01*
%TO.N,MAGNETO_SPARE2*%
X172618400Y-139979400D02*
X173101000Y-140462000D01*
X151895443Y-132083443D02*
X166627443Y-132083443D01*
X150469600Y-130657600D02*
X151895443Y-132083443D01*
X172618400Y-138074400D02*
X172618400Y-139979400D01*
X144221200Y-128371600D02*
X146507200Y-130657600D01*
X143306800Y-128371600D02*
X144221200Y-128371600D01*
X142900400Y-128778000D02*
X143306800Y-128371600D01*
X142748000Y-128778000D02*
X142900400Y-128778000D01*
X146507200Y-130657600D02*
X150469600Y-130657600D01*
X173101000Y-140462000D02*
X174904400Y-140462000D01*
X166627443Y-132083443D02*
X172618400Y-138074400D01*
%TO.N,MAGNETO_SPARE1*%
X173482000Y-137922000D02*
X174904400Y-137922000D01*
X167005000Y-131445000D02*
X173482000Y-137922000D01*
X152933400Y-131445000D02*
X167005000Y-131445000D01*
X146710400Y-129997200D02*
X151485600Y-129997200D01*
X151485600Y-129997200D02*
X152933400Y-131445000D01*
X142036800Y-127914400D02*
X144627600Y-127914400D01*
X140817600Y-126695200D02*
X142036800Y-127914400D01*
X140817600Y-126390400D02*
X140817600Y-126695200D01*
X144627600Y-127914400D02*
X146710400Y-129997200D01*
X140411200Y-125984000D02*
X140817600Y-126390400D01*
%TO.N,I2C4_SCK*%
X169164000Y-129032000D02*
X168148000Y-129032000D01*
X171196000Y-131064000D02*
X169164000Y-129032000D01*
X171196000Y-133604000D02*
X171196000Y-131064000D01*
X172974000Y-135382000D02*
X171196000Y-133604000D01*
X174904400Y-135382000D02*
X172974000Y-135382000D01*
%TO.N,F9P_ANT_DETECT*%
X171069000Y-109397800D02*
X171958000Y-108508800D01*
X167081200Y-119684800D02*
X171069000Y-115697000D01*
X167081200Y-123748800D02*
X167081200Y-119684800D01*
X171069000Y-115697000D02*
X171069000Y-109397800D01*
X164896800Y-125933200D02*
X167081200Y-123748800D01*
X154622500Y-125933200D02*
X164896800Y-125933200D01*
X149301200Y-126339600D02*
X154216100Y-126339600D01*
X154216100Y-126339600D02*
X154622500Y-125933200D01*
X144881600Y-124307600D02*
X145491200Y-124917200D01*
X144881600Y-124301200D02*
X144881600Y-124307600D01*
X145491200Y-124917200D02*
X147878800Y-124917200D01*
X139706400Y-124301200D02*
X144881600Y-124301200D01*
X147878800Y-124917200D02*
X149301200Y-126339600D01*
X139649200Y-124358400D02*
X139706400Y-124301200D01*
%TO.N,F9P_ANT_SHORT*%
X172567600Y-106934000D02*
X172567600Y-106273600D01*
X170148200Y-108108800D02*
X171392800Y-108108800D01*
X169367200Y-108889800D02*
X170148200Y-108108800D01*
X169367200Y-116763800D02*
X169367200Y-108889800D01*
X166624000Y-119507000D02*
X169367200Y-116763800D01*
X166624000Y-123291600D02*
X166624000Y-119507000D01*
X164388800Y-125526800D02*
X166624000Y-123291600D01*
X153517600Y-125882400D02*
X153873200Y-125526800D01*
X153873200Y-125526800D02*
X164388800Y-125526800D01*
X149453600Y-125882400D02*
X153517600Y-125882400D01*
X171392800Y-108108800D02*
X172567600Y-106934000D01*
X148082000Y-124510800D02*
X149453600Y-125882400D01*
X145796000Y-124510800D02*
X148082000Y-124510800D01*
X141071600Y-123901200D02*
X145186400Y-123901200D01*
X145186400Y-123901200D02*
X145796000Y-124510800D01*
X139852400Y-122682000D02*
X141071600Y-123901200D01*
%TO.N,F9P_ANT_OFF*%
X169418000Y-107391200D02*
X171043600Y-107391200D01*
X168808400Y-108000800D02*
X169418000Y-107391200D01*
X168808400Y-116560600D02*
X168808400Y-108000800D01*
X166116000Y-119253000D02*
X168808400Y-116560600D01*
X166116000Y-123037600D02*
X166116000Y-119253000D01*
X164026800Y-125126800D02*
X166116000Y-123037600D01*
X153130200Y-125126800D02*
X164026800Y-125126800D01*
X152774600Y-125482400D02*
X153130200Y-125126800D01*
X149656800Y-125482400D02*
X152774600Y-125482400D01*
X149656800Y-125476000D02*
X149656800Y-125482400D01*
X145999200Y-124104400D02*
X148285200Y-124104400D01*
X145389600Y-123494800D02*
X145999200Y-124104400D01*
X141325600Y-123494800D02*
X145389600Y-123494800D01*
X140512800Y-122123200D02*
X140512800Y-122682000D01*
X140512800Y-122682000D02*
X141325600Y-123494800D01*
X139242800Y-120853200D02*
X140512800Y-122123200D01*
X148285200Y-124104400D02*
X149656800Y-125476000D01*
%TO.N,UART5_TX_F9P_RXD*%
X146456400Y-115316000D02*
X154736800Y-115316000D01*
X146151600Y-115011200D02*
X146456400Y-115316000D01*
X154736800Y-115316000D02*
X156768800Y-113284000D01*
X145542000Y-115011200D02*
X146151600Y-115011200D01*
%TO.N,+3V3*%
X148539200Y-111760000D02*
X148132800Y-112166400D01*
X151688800Y-111760000D02*
X148539200Y-111760000D01*
X152646200Y-112717400D02*
X151688800Y-111760000D01*
X152646200Y-112928400D02*
X152646200Y-112717400D01*
%TO.N,PB3{slash}SWO*%
X135636000Y-102235000D02*
X135128000Y-102743000D01*
X145034000Y-102235000D02*
X146685000Y-103886000D01*
X135636000Y-102235000D02*
X145034000Y-102235000D01*
X135128000Y-106172000D02*
X135128000Y-102743000D01*
X137414000Y-108458000D02*
X135128000Y-106172000D01*
X139344400Y-108458000D02*
X137414000Y-108458000D01*
%TO.N,SDMMC_D0*%
X134620000Y-101295200D02*
X135280400Y-100634800D01*
X142544800Y-111150400D02*
X139090400Y-111150400D01*
X143357600Y-116687600D02*
X143357600Y-111963200D01*
X145084800Y-118414800D02*
X143357600Y-116687600D01*
X143357600Y-111963200D02*
X142544800Y-111150400D01*
X145084800Y-118668800D02*
X145084800Y-118414800D01*
X139090400Y-111150400D02*
X134620000Y-106680000D01*
X134620000Y-106680000D02*
X134620000Y-101295200D01*
%TO.N,SDMMC_CMD*%
X133705600Y-106527600D02*
X133705600Y-100533200D01*
X133705600Y-100533200D02*
X134359600Y-99879200D01*
X137972800Y-113334800D02*
X137972800Y-110794800D01*
X137972800Y-110794800D02*
X133705600Y-106527600D01*
%TO.N,PD5_LD3*%
X154076400Y-111506000D02*
X154076400Y-113233200D01*
X148056600Y-110413800D02*
X152984200Y-110413800D01*
X152984200Y-110413800D02*
X154076400Y-111506000D01*
X146989800Y-109347000D02*
X148056600Y-110413800D01*
X142392400Y-110337600D02*
X143383000Y-109347000D01*
X143383000Y-109347000D02*
X146989800Y-109347000D01*
%TO.N,F9P_RTK_STAT*%
X137820400Y-120151843D02*
X137820400Y-124002800D01*
X137607357Y-119938800D02*
X137820400Y-120151843D01*
X137607357Y-114112357D02*
X137607357Y-119938800D01*
X137033000Y-113538000D02*
X137607357Y-114112357D01*
X132588000Y-90551000D02*
X132588000Y-106172000D01*
X137033000Y-110617000D02*
X137033000Y-113538000D01*
X133477000Y-89662000D02*
X132588000Y-90551000D01*
X132588000Y-106172000D02*
X137033000Y-110617000D01*
%TO.N,NRST*%
X127889000Y-114020600D02*
X126796800Y-115112800D01*
X127889000Y-101828600D02*
X127889000Y-114020600D01*
X128422400Y-101295200D02*
X127889000Y-101828600D01*
%TO.N,BOOT0*%
X116332000Y-116179600D02*
X128270000Y-116179600D01*
X129032000Y-115417600D02*
X129032000Y-107289600D01*
X115316000Y-118364000D02*
X115316000Y-117195600D01*
X128270000Y-116179600D02*
X129032000Y-115417600D01*
X116433600Y-119481600D02*
X115316000Y-118364000D01*
X117449600Y-119481600D02*
X116433600Y-119481600D01*
X117551200Y-119583200D02*
X117449600Y-119481600D01*
X115316000Y-117195600D02*
X116332000Y-116179600D01*
%TO.N,SX1262_RXEN*%
X135940800Y-115112800D02*
X135940800Y-118465600D01*
X135839200Y-115011200D02*
X135940800Y-115112800D01*
X132016400Y-117411600D02*
X134416800Y-115011200D01*
X134416800Y-115011200D02*
X135839200Y-115011200D01*
X120637200Y-117411600D02*
X132016400Y-117411600D01*
X135940800Y-118465600D02*
X136042400Y-118567200D01*
X118872000Y-119176800D02*
X120637200Y-117411600D01*
%TO.N,SX1262_TXEN*%
X131775200Y-116992400D02*
X117144800Y-116992400D01*
X134162800Y-114604800D02*
X131775200Y-116992400D01*
X136194800Y-114604800D02*
X134162800Y-114604800D01*
X136601200Y-115011200D02*
X136194800Y-114604800D01*
X117144800Y-116992400D02*
X116332000Y-117805200D01*
X136601200Y-117856000D02*
X136601200Y-115011200D01*
%TO.N,F9P_GEOFENCE_STAT*%
X137207357Y-120602643D02*
X137185400Y-120624600D01*
X137207357Y-114601357D02*
X137207357Y-120602643D01*
X133350000Y-110744000D02*
X137207357Y-114601357D01*
X131470400Y-105981500D02*
X133350000Y-107861100D01*
X133350000Y-107861100D02*
X133350000Y-110744000D01*
X131470400Y-89890600D02*
X131470400Y-105981500D01*
X132461000Y-88900000D02*
X131470400Y-89890600D01*
%TO.N,SX1262_SPI2_BUSY*%
X112014000Y-123901200D02*
X106172000Y-123901200D01*
X122326400Y-120497600D02*
X115417600Y-120497600D01*
X132378400Y-117811600D02*
X125012400Y-117811600D01*
X134569200Y-115620800D02*
X132378400Y-117811600D01*
X115417600Y-120497600D02*
X112014000Y-123901200D01*
X135229600Y-115620800D02*
X134569200Y-115620800D01*
X125012400Y-117811600D02*
X122326400Y-120497600D01*
%TO.N,SX1262_SPI2_RST*%
X112572800Y-124714000D02*
X108762800Y-124714000D01*
X115925600Y-121361200D02*
X112572800Y-124714000D01*
X122478800Y-121361200D02*
X115925600Y-121361200D01*
X132842000Y-118211600D02*
X125628400Y-118211600D01*
X134569200Y-116484400D02*
X132842000Y-118211600D01*
X135229600Y-116484400D02*
X134569200Y-116484400D01*
X125628400Y-118211600D02*
X122478800Y-121361200D01*
%TO.N,SX1262_SPI2_CS*%
X122580400Y-122275600D02*
X118922800Y-122275600D01*
X134289800Y-117348000D02*
X133013400Y-118624400D01*
X126231600Y-118624400D02*
X122580400Y-122275600D01*
X135229600Y-117348000D02*
X134289800Y-117348000D01*
X133013400Y-118624400D02*
X126231600Y-118624400D01*
%TO.N,SX1262_SPI2_MOSI*%
X121107200Y-125780800D02*
X113944400Y-125780800D01*
X127400000Y-119488000D02*
X121107200Y-125780800D01*
X135324800Y-119488000D02*
X127400000Y-119488000D01*
X135585200Y-119227600D02*
X135324800Y-119488000D01*
%TO.N,SX1262_SPI2_MISO*%
X128016000Y-119888000D02*
X121107200Y-126796800D01*
X136550400Y-119888000D02*
X128016000Y-119888000D01*
X136601200Y-119938800D02*
X136550400Y-119888000D01*
X121107200Y-126796800D02*
X111252000Y-126796800D01*
%TO.N,F9P_D_SEL*%
X160651357Y-117859643D02*
X161206000Y-117305000D01*
X161206000Y-117305000D02*
X161206000Y-116873200D01*
X153572043Y-117859643D02*
X160651357Y-117859643D01*
X152857200Y-117144800D02*
X153572043Y-117859643D01*
X145897600Y-120040400D02*
X148793200Y-117144800D01*
X140462000Y-120040400D02*
X145897600Y-120040400D01*
X148793200Y-117144800D02*
X152857200Y-117144800D01*
%TO.N,F9P_TX_READY*%
X160105999Y-116652401D02*
X160477200Y-116281200D01*
X160105999Y-117262001D02*
X160105999Y-116652401D01*
X153883243Y-117459643D02*
X159908357Y-117459643D01*
X153162000Y-116738400D02*
X153883243Y-117459643D01*
X148590000Y-116738400D02*
X153162000Y-116738400D01*
X159908357Y-117459643D02*
X160105999Y-117262001D01*
X145948400Y-119380000D02*
X148590000Y-116738400D01*
X139852400Y-119380000D02*
X145948400Y-119380000D01*
%TO.N,PD5_LD3*%
X153162000Y-122301000D02*
X154508200Y-123647200D01*
X153162000Y-121615200D02*
X153162000Y-122301000D01*
X154508200Y-123647200D02*
X155143200Y-123647200D01*
%TO.N,LSM6DSOX_INT1*%
X151765000Y-120904000D02*
X155397200Y-120904000D01*
X150952200Y-120091200D02*
X151765000Y-120904000D01*
X150266400Y-120091200D02*
X150952200Y-120091200D01*
%TO.N,GND*%
X147679500Y-137181500D02*
X148082000Y-136779000D01*
D29*
X108479500Y-117072500D02*
X108712000Y-116840000D01*
D27*
X141993800Y-125526800D02*
X141993800Y-126195000D01*
X145592800Y-126492000D02*
X145592800Y-125984000D01*
X142748000Y-126949200D02*
X145135600Y-126949200D01*
D29*
X123190000Y-96795500D02*
X123168500Y-96774000D01*
D27*
X145135600Y-126949200D02*
X145592800Y-126492000D01*
D29*
X108479500Y-118364000D02*
X108479500Y-117072500D01*
D27*
X149402800Y-129286000D02*
X148691600Y-129286000D01*
D30*
X132842000Y-121390500D02*
X128240700Y-121390500D01*
X123168500Y-94128500D02*
X123168500Y-96774000D01*
D27*
X141993800Y-126195000D02*
X142748000Y-126949200D01*
D29*
X123190000Y-99060000D02*
X123190000Y-96795500D01*
X140716000Y-150368000D02*
X140716000Y-149352000D01*
X140716000Y-150368000D02*
X141732000Y-150368000D01*
D27*
X150571200Y-112928400D02*
X150164800Y-112522000D01*
X131267200Y-108923000D02*
X131173400Y-108923000D01*
X150262500Y-128426300D02*
X149402800Y-129286000D01*
D29*
X134366000Y-96012000D02*
X133858000Y-95504000D01*
D27*
X150164800Y-112522000D02*
X149402800Y-112522000D01*
D29*
X108479500Y-120650000D02*
X108479500Y-118364000D01*
D30*
X128240700Y-121390500D02*
X127101600Y-122529600D01*
D29*
X135847000Y-96012000D02*
X134366000Y-96012000D01*
D27*
X150262500Y-127635000D02*
X150262500Y-128426300D01*
D29*
X139446000Y-150368000D02*
X140716000Y-150368000D01*
D30*
X123444000Y-93853000D02*
X123168500Y-94128500D01*
D29*
X142537000Y-95461000D02*
X143764000Y-94234000D01*
X142537000Y-96012000D02*
X142537000Y-95461000D01*
D27*
X136441000Y-133393000D02*
X135585200Y-132537200D01*
X131173400Y-108923000D02*
X130251200Y-108000800D01*
X136652000Y-133393000D02*
X136441000Y-133393000D01*
X146304000Y-137181500D02*
X147679500Y-137181500D01*
%TO.N,+3V3*%
D29*
X106404500Y-120650000D02*
X106404500Y-118364000D01*
D27*
X147167600Y-134213600D02*
X146304000Y-135077200D01*
X135534400Y-130200400D02*
X135026400Y-130200400D01*
D29*
X140462000Y-96012000D02*
X140716000Y-95758000D01*
D27*
X131267200Y-110998000D02*
X132232400Y-111963200D01*
X146304000Y-135077200D02*
X146304000Y-135106500D01*
D29*
X121115000Y-96795500D02*
X121093500Y-96774000D01*
X121115000Y-99060000D02*
X121115000Y-96795500D01*
X106404500Y-117072500D02*
X106172000Y-116840000D01*
D27*
X147472400Y-134213600D02*
X147167600Y-134213600D01*
X146151600Y-125374400D02*
X146964400Y-126187200D01*
X144068800Y-125526800D02*
X144221200Y-125374400D01*
D30*
X121093500Y-94042500D02*
X121093500Y-96774000D01*
D29*
X121136500Y-96731000D02*
X121093500Y-96774000D01*
X106404500Y-118364000D02*
X106404500Y-117072500D01*
X140716000Y-92202000D02*
X141732000Y-91186000D01*
X137922000Y-96012000D02*
X140462000Y-96012000D01*
D27*
X146964400Y-126187200D02*
X146964400Y-126238000D01*
D29*
X140716000Y-95758000D02*
X140716000Y-92202000D01*
D30*
X120904000Y-93853000D02*
X121093500Y-94042500D01*
D29*
X141732000Y-91186000D02*
X148844000Y-91186000D01*
D27*
X144221200Y-125374400D02*
X146151600Y-125374400D01*
X148132800Y-112166400D02*
X147320000Y-112979200D01*
X136652000Y-131318000D02*
X135534400Y-130200400D01*
%TO.N,LSM6DSOX_INT2*%
X149809200Y-119430800D02*
X151130000Y-119430800D01*
X151841200Y-120142000D02*
X155041600Y-120142000D01*
X151130000Y-119430800D02*
X151841200Y-120142000D01*
%TO.N,I2C4_SCK*%
X156006800Y-127812800D02*
X157734000Y-129540000D01*
X151688800Y-127812800D02*
X156006800Y-127812800D01*
%TO.N,I2C4_SDA*%
X155143200Y-129489200D02*
X155194000Y-129540000D01*
X152501600Y-129489200D02*
X155143200Y-129489200D01*
X151739600Y-128727200D02*
X152501600Y-129489200D01*
%TO.N,/Power/VBAT*%
X160731200Y-140106400D02*
X161645600Y-141020800D01*
X160731200Y-135534400D02*
X160731200Y-140106400D01*
%TO.N,VBAT_2*%
X145516600Y-131191000D02*
X148513800Y-131191000D01*
X148513800Y-131191000D02*
X150114000Y-132791200D01*
X143814800Y-129032000D02*
X143814800Y-129489200D01*
X143814800Y-129489200D02*
X145516600Y-131191000D01*
X150114000Y-132791200D02*
X155803600Y-132791200D01*
%TO.N,Net-(C29-Pad1)*%
D30*
X138176000Y-134772400D02*
X136347200Y-136601200D01*
X136347200Y-136601200D02*
X135382000Y-136601200D01*
X135382000Y-136956800D02*
X135382000Y-136601200D01*
X142316200Y-134747000D02*
X142290800Y-134772400D01*
X142290800Y-134772400D02*
X138176000Y-134772400D01*
X135077200Y-137261600D02*
X135382000Y-136956800D01*
X135382000Y-135229600D02*
X135382000Y-136601200D01*
%TO.N,nCHG*%
D27*
X151282400Y-123748800D02*
X150317200Y-123748800D01*
X150317200Y-123748800D02*
X149860000Y-123291600D01*
X149860000Y-123291600D02*
X149860000Y-122732800D01*
%TO.N,SDMMC_CMD*%
X134366000Y-99872800D02*
X134359600Y-99879200D01*
%TO.N,SDMMC_CD*%
X132486400Y-111302800D02*
X134670800Y-113487200D01*
X132486400Y-108153200D02*
X132486400Y-111302800D01*
X130657600Y-102108000D02*
X130657600Y-106324400D01*
X130657600Y-106324400D02*
X132486400Y-108153200D01*
X134670800Y-113487200D02*
X134670800Y-113944400D01*
%TO.N,F9P_RESET_N*%
X161239200Y-118618000D02*
X157988000Y-118618000D01*
X162306000Y-117551200D02*
X161239200Y-118618000D01*
%TO.N,NRST*%
X148844000Y-101346000D02*
X135991600Y-101346000D01*
%TO.N,PB3{slash}SWO*%
X146685000Y-103886000D02*
X148844000Y-103886000D01*
%TO.N,HS_SOF*%
X132943600Y-129032000D02*
X132334000Y-129641600D01*
X132334000Y-129641600D02*
X130810000Y-129641600D01*
X132943600Y-128320800D02*
X132943600Y-129032000D01*
X130810000Y-129641600D02*
X129641600Y-130810000D01*
%TO.N,Net-(D1-K)*%
D30*
X131826000Y-147574000D02*
X131826000Y-146812000D01*
X125730000Y-149860000D02*
X124714000Y-149860000D01*
X126492000Y-148082000D02*
X126492000Y-149098000D01*
X126492000Y-149098000D02*
X125730000Y-149860000D01*
X131826000Y-146812000D02*
X131318000Y-146304000D01*
X127000000Y-147574000D02*
X126492000Y-148082000D01*
X129286000Y-146304000D02*
X128016000Y-147574000D01*
X131318000Y-146304000D02*
X129286000Y-146304000D01*
X133604000Y-148082000D02*
X132334000Y-148082000D01*
X132334000Y-148082000D02*
X131826000Y-147574000D01*
X128016000Y-147574000D02*
X127000000Y-147574000D01*
%TO.N,+5V*%
D31*
X142621000Y-142367000D02*
X145415000Y-139573000D01*
D30*
X149098000Y-141224000D02*
X147447000Y-139573000D01*
X146054000Y-139573000D02*
X146050000Y-139569000D01*
D31*
X130937000Y-142367000D02*
X142621000Y-142367000D01*
X127889000Y-145415000D02*
X130937000Y-142367000D01*
D30*
X150749000Y-141605000D02*
X150368000Y-141224000D01*
X150368000Y-141224000D02*
X149098000Y-141224000D01*
X147447000Y-139573000D02*
X146054000Y-139573000D01*
%TO.N,BQ24975_nCE*%
D27*
X144475200Y-117195600D02*
X144475200Y-113995200D01*
X146253200Y-118465600D02*
X145745200Y-118465600D01*
X144475200Y-113995200D02*
X143967200Y-113487200D01*
X154381200Y-116332000D02*
X148386800Y-116332000D01*
X145745200Y-118465600D02*
X144475200Y-117195600D01*
X148386800Y-116332000D02*
X146253200Y-118465600D01*
X154432000Y-116382800D02*
X154381200Y-116332000D01*
%TO.N,BQ24975_EN2*%
X142544800Y-118618000D02*
X142544800Y-114300000D01*
X142544800Y-114300000D02*
X142189200Y-113944400D01*
X142189200Y-113944400D02*
X141732000Y-113944400D01*
X146558000Y-123494800D02*
X148590000Y-123494800D01*
X141732000Y-113944400D02*
X141376400Y-113588800D01*
X148590000Y-123494800D02*
X149910800Y-124815600D01*
%TO.N,nPGOOD*%
X150266400Y-124307600D02*
X148590000Y-122631200D01*
X150774400Y-124409200D02*
X150672800Y-124307600D01*
X150672800Y-124307600D02*
X150266400Y-124307600D01*
X148590000Y-122631200D02*
X146812000Y-122631200D01*
X149860000Y-135890000D02*
X148209000Y-135890000D01*
X150876000Y-136906000D02*
X149860000Y-135890000D01*
%TO.N,Net-(U1-ILIM)*%
D30*
X148844000Y-142621000D02*
X148844000Y-143002000D01*
X147320000Y-141097000D02*
X148844000Y-142621000D01*
%TO.N,VBUS*%
D29*
X142875000Y-143637000D02*
X138811000Y-143637000D01*
X143256000Y-144018000D02*
X142875000Y-143637000D01*
X138811000Y-143637000D02*
X138176000Y-144272000D01*
%TO.N,Net-(U2-EN)*%
D30*
X130556000Y-151130000D02*
X129032000Y-151130000D01*
X128270000Y-150368000D02*
X128270000Y-149018004D01*
X128270000Y-149018004D02*
X127801998Y-148550002D01*
X129032000Y-151130000D02*
X128270000Y-150368000D01*
%TO.N,ESP32_TX*%
D27*
X126034800Y-106172000D02*
X126034800Y-109042200D01*
X126034800Y-109042200D02*
X125984000Y-109093000D01*
%TO.N,Net-(J1-CC1)*%
D30*
X139446000Y-148368000D02*
X139446000Y-147066000D01*
%TO.N,USB_D2_P*%
D27*
X141478000Y-144526000D02*
X139954000Y-144526000D01*
%TO.N,Net-(J1-CC2)*%
D30*
X141986000Y-148368000D02*
X141986000Y-147066000D01*
%TO.N,Net-(U3-VCAP_1)*%
D27*
X147370800Y-128727200D02*
X147370800Y-128451700D01*
X147370800Y-128451700D02*
X148187500Y-127635000D01*
%TO.N,SX1262_SPI2_DIO2*%
X106070400Y-104444800D02*
X106070400Y-105257600D01*
X106070400Y-105257600D02*
X106629200Y-105816400D01*
X107543600Y-102971600D02*
X106070400Y-104444800D01*
X106629200Y-105816400D02*
X109524800Y-105816400D01*
X125222000Y-102971600D02*
X107543600Y-102971600D01*
%TO.N,SX1262_SPI2_DIO1*%
X125171200Y-103886000D02*
X107645200Y-103886000D01*
X107645200Y-103886000D02*
X106934000Y-104597200D01*
%TD*%
%TA.AperFunction,Conductor*%
%TO.N,+5V*%
G36*
X147136039Y-138449685D02*
G01*
X147181794Y-138502489D01*
X147193000Y-138554000D01*
X147193000Y-140084000D01*
X147173315Y-140151039D01*
X147120511Y-140196794D01*
X147069000Y-140208000D01*
X145158000Y-140208000D01*
X145090961Y-140188315D01*
X145045206Y-140135511D01*
X145034000Y-140084000D01*
X145034000Y-138554000D01*
X145053685Y-138486961D01*
X145106489Y-138441206D01*
X145158000Y-138430000D01*
X147069000Y-138430000D01*
X147136039Y-138449685D01*
G37*
%TD.AperFunction*%
%TD*%
%TA.AperFunction,Conductor*%
%TO.N,+5V*%
G36*
X128031677Y-144799685D02*
G01*
X128052319Y-144816319D01*
X128255771Y-145019771D01*
X128278999Y-145051998D01*
X128484031Y-145462062D01*
X128496406Y-145530827D01*
X128469638Y-145595366D01*
X128460803Y-145605197D01*
X127544319Y-146521681D01*
X127482996Y-146555166D01*
X127456638Y-146558000D01*
X127051362Y-146558000D01*
X126984323Y-146538315D01*
X126963681Y-146521681D01*
X126528319Y-146086319D01*
X126513615Y-146059391D01*
X126497023Y-146033573D01*
X126496131Y-146027372D01*
X126494834Y-146024996D01*
X126492000Y-145998638D01*
X126492000Y-145847362D01*
X126511685Y-145780323D01*
X126528319Y-145759681D01*
X127471681Y-144816319D01*
X127533004Y-144782834D01*
X127559362Y-144780000D01*
X127964638Y-144780000D01*
X128031677Y-144799685D01*
G37*
%TD.AperFunction*%
%TD*%
M02*
