%TF.GenerationSoftware,KiCad,Pcbnew,10.0.1*%
%TF.CreationDate,2026-06-25T14:26:35+01:00*%
%TF.ProjectId,rtk,72746b2e-6b69-4636-9164-5f7063625858,rev?*%
%TF.SameCoordinates,Original*%
%TF.FileFunction,Soldermask,Bot*%
%TF.FilePolarity,Negative*%
%FSLAX46Y46*%
G04 Gerber Fmt 4.6, Leading zero omitted, Abs format (unit mm)*
G04 Created by KiCad (PCBNEW 10.0.1) date 2026-06-25 14:26:35*
%MOMM*%
%LPD*%
G01*
G04 APERTURE LIST*
G04 Aperture macros list*
%AMRoundRect*
0 Rectangle with rounded corners*
0 $1 Rounding radius*
0 $2 $3 $4 $5 $6 $7 $8 $9 X,Y pos of 4 corners*
0 Add a 4 corners polygon primitive as box body*
4,1,4,$2,$3,$4,$5,$6,$7,$8,$9,$2,$3,0*
0 Add four circle primitives for the rounded corners*
1,1,$1+$1,$2,$3*
1,1,$1+$1,$4,$5*
1,1,$1+$1,$6,$7*
1,1,$1+$1,$8,$9*
0 Add four rect primitives between the rounded corners*
20,1,$1+$1,$2,$3,$4,$5,0*
20,1,$1+$1,$4,$5,$6,$7,0*
20,1,$1+$1,$6,$7,$8,$9,0*
20,1,$1+$1,$8,$9,$2,$3,0*%
G04 Aperture macros list end*
%ADD10R,1.700000X1.700000*%
%ADD11C,1.700000*%
%ADD12C,2.700000*%
%ADD13C,1.712000*%
%ADD14RoundRect,0.102000X-0.754000X0.754000X-0.754000X-0.754000X0.754000X-0.754000X0.754000X0.754000X0*%
%ADD15O,0.990600X2.108200*%
%ADD16O,0.990600X1.803400*%
%ADD17C,0.660400*%
%ADD18C,0.508000*%
%ADD19RoundRect,0.200100X0.949900X-0.949900X0.949900X0.949900X-0.949900X0.949900X-0.949900X-0.949900X0*%
%ADD20C,2.200000*%
%ADD21RoundRect,0.250000X0.337500X0.475000X-0.337500X0.475000X-0.337500X-0.475000X0.337500X-0.475000X0*%
%ADD22RoundRect,0.250000X-0.337500X-0.475000X0.337500X-0.475000X0.337500X0.475000X-0.337500X0.475000X0*%
%ADD23RoundRect,0.250000X-0.475000X0.337500X-0.475000X-0.337500X0.475000X-0.337500X0.475000X0.337500X0*%
%ADD24RoundRect,0.250000X-0.450000X0.350000X-0.450000X-0.350000X0.450000X-0.350000X0.450000X0.350000X0*%
%ADD25RoundRect,0.250000X0.475000X-0.337500X0.475000X0.337500X-0.475000X0.337500X-0.475000X-0.337500X0*%
G04 APERTURE END LIST*
D10*
%TO.C,J12*%
X115189000Y-141732000D03*
D11*
X115189000Y-139192000D03*
%TD*%
D10*
%TO.C,TP1*%
X117475000Y-150495000D03*
%TD*%
D12*
%TO.C,H4*%
X175260000Y-88900000D03*
%TD*%
%TO.C,H3*%
X104140000Y-88900000D03*
%TD*%
%TO.C,H2*%
X175260000Y-149860000D03*
%TD*%
%TO.C,H1*%
X104140000Y-149860000D03*
%TD*%
D10*
%TO.C,J4*%
X170180000Y-144729200D03*
D11*
X170180000Y-142189200D03*
%TD*%
D10*
%TO.C,J9*%
X148844000Y-91186000D03*
D11*
X148844000Y-93726000D03*
X148844000Y-96266000D03*
X148844000Y-98806000D03*
X148844000Y-101346000D03*
X148844000Y-103886000D03*
X148844000Y-106426000D03*
X148844000Y-108966000D03*
%TD*%
D10*
%TO.C,J8*%
X129641600Y-130810000D03*
%TD*%
D13*
%TO.C,U5*%
X118364000Y-93853000D03*
X115824000Y-93853000D03*
X113284000Y-93853000D03*
X120904000Y-93853000D03*
X110744000Y-93853000D03*
X108204000Y-93853000D03*
D14*
X125984000Y-93853000D03*
D13*
X105664000Y-93853000D03*
X105664000Y-109093000D03*
X108204000Y-109093000D03*
X110744000Y-109093000D03*
X113284000Y-109093000D03*
X115824000Y-109093000D03*
X118364000Y-109093000D03*
X120904000Y-109093000D03*
X123444000Y-93853000D03*
X123444000Y-109093000D03*
X125984000Y-109093000D03*
%TD*%
D10*
%TO.C,J11*%
X174904400Y-130302000D03*
D11*
X174904400Y-132842000D03*
X174904400Y-135382000D03*
X174904400Y-137922000D03*
X174904400Y-140462000D03*
X174904400Y-143002000D03*
%TD*%
D15*
%TO.C,J1*%
X136139996Y-146187200D03*
D16*
X136139996Y-150367200D03*
D17*
X137569999Y-146687199D03*
X143349997Y-146687199D03*
D15*
X144780000Y-146187200D03*
D16*
X144780000Y-150367200D03*
%TD*%
D18*
%TO.C,U2*%
X130822700Y-148837400D03*
X130822700Y-148050000D03*
X130822700Y-147262600D03*
X130035300Y-148837400D03*
X130035300Y-148050000D03*
X130035300Y-147262600D03*
%TD*%
D10*
%TO.C,J7*%
X155194000Y-129540000D03*
D11*
X157734000Y-129540000D03*
X160274000Y-129540000D03*
X162814000Y-129540000D03*
%TD*%
D19*
%TO.C,J5*%
X171440000Y-122926000D03*
D20*
X168890000Y-125476000D03*
X173990000Y-125476000D03*
X168890000Y-120376000D03*
X173990000Y-120376000D03*
%TD*%
D10*
%TO.C,J10*%
X119126000Y-136398000D03*
D11*
X121666000Y-136398000D03*
%TD*%
D21*
%TO.C,C10*%
X152646200Y-112928400D03*
X150571200Y-112928400D03*
%TD*%
D22*
%TO.C,C19*%
X121093500Y-96774000D03*
X123168500Y-96774000D03*
%TD*%
D23*
%TO.C,C23*%
X136652000Y-131318000D03*
X136652000Y-133393000D03*
%TD*%
D22*
%TO.C,C33*%
X148187500Y-127635000D03*
X150262500Y-127635000D03*
%TD*%
%TO.C,C20*%
X121115000Y-99060000D03*
X123190000Y-99060000D03*
%TD*%
D24*
%TO.C,R11*%
X141986000Y-148368000D03*
X141986000Y-150368000D03*
%TD*%
D22*
%TO.C,C15*%
X106404500Y-118364000D03*
X108479500Y-118364000D03*
%TD*%
D21*
%TO.C,C14*%
X148132800Y-112166400D03*
X146057800Y-112166400D03*
%TD*%
D22*
%TO.C,C16*%
X106404500Y-120650000D03*
X108479500Y-120650000D03*
%TD*%
D23*
%TO.C,C22*%
X146304000Y-135106500D03*
X146304000Y-137181500D03*
%TD*%
D21*
%TO.C,C18*%
X137922000Y-96012000D03*
X135847000Y-96012000D03*
%TD*%
D22*
%TO.C,C17*%
X140462000Y-96012000D03*
X142537000Y-96012000D03*
%TD*%
D24*
%TO.C,R12*%
X139446000Y-148368000D03*
X139446000Y-150368000D03*
%TD*%
D25*
%TO.C,C11*%
X131267200Y-110998000D03*
X131267200Y-108923000D03*
%TD*%
D21*
%TO.C,C13*%
X144068800Y-125526800D03*
X141993800Y-125526800D03*
%TD*%
D25*
%TO.C,C9*%
X132842000Y-123465500D03*
X132842000Y-121390500D03*
%TD*%
M02*
